<svg width="300" height="300" xmlns="http://www.w3.org/2000/svg">
  <!-- Body -->
  <ellipse cx="150" cy="200" rx="100" ry="60" style="fill:lightgrey;stroke:black;stroke-width:2" />
  
  <!-- Head -->
  <circle cx="150" cy="100" r="50" style="fill:lightgrey;stroke:black;stroke-width:2" />
  
  <!-- Eyes -->
  <ellipse cx="135" cy="95" rx="15" ry="20" style="fill:white;stroke:black;stroke-width:1" />
  <ellipse cx="165" cy="95" rx="15" ry="20" style="fill:white;stroke:black;stroke-width:1" />
  
  <!-- Pupils -->
  <circle cx="135" cy="100" r="8" style="fill:black" />
  <circle cx="165" cy="100" r="8" style="fill:black" />
  
  <!-- Nose -->
  <circle cx="150" cy="120" r="4" style="fill:pink" />
  
  <!-- Mouth -->
  <path d="M 150 125 Q 145 135 150 140" style="fill:none;stroke:black;stroke-width:2" />
  <path d="M 150 125 Q 155 135 150 140" style="fill:none;stroke:black;stroke-width:2" />

  <!-- Whiskers -->
  <line x1="120" y1="120" x2="80" y2="110" style="stroke:black;stroke-width:2"/>
  <line x1="120" y1="125" x2="80" y2="125" style="stroke:black;stroke-width:2"/>
  <line x1="120" y1="130" x2="80" y2="140" style="stroke:black;stroke-width:2"/>
  <line x1="180" y1="120" x2="220" y2="110" style="stroke:black;stroke-width:2"/>
  <line x1="180" y1="125" x2="220" y2="125" style="stroke:black;stroke-width:2"/>
  <line x1="180" y1="130" x2="220" y2="140" style="stroke:black;stroke-width:2"/>

  <!-- Ears -->
  <polygon points="130,40 150,80 110,80" style="fill:lightgrey;stroke:black;stroke-width:2" />
  <polygon points="170,40 150,80 190,80" style="fill:lightgrey;stroke:black;stroke-width:2" />

  <!-- Blush -->
  <circle cx="125" cy="130" r="8" style="fill:pink;opacity:0.5" />
  <circle cx="175" cy="130" r="8" style="fill:pink;opacity:0.5" />
</svg>
