<?xml version="1.0" encoding="UTF-8" standalone="no"?>
<!DOCTYPE svg PUBLIC "-//W3C//DTD SVG 1.1//EN" "http://www.w3.org/Graphics/SVG/1.1/DTD/svg11.dtd">
<svg xmlns="http://www.w3.org/2000/svg" version="1.1" viewBox="0.00 0.00 415.00 415.00">
<g stroke-width="2.00" fill="none" stroke-linecap="butt">
<path stroke="#f3f5f9" vector-effect="non-scaling-stroke" d="
  M 415.00 264.38
  Q 414.10 261.99 414.38 259.26
  Q 414.45 258.59 414.01 259.10
  Q 413.88 259.25 413.64 259.28
  Q 413.18 259.32 412.92 258.92
  Q 412.81 258.74 412.63 258.65
  A 0.49 0.48 23.7 0 0 411.96 258.91
  Q 411.62 259.82 410.74 260.08
  C 410.14 260.26 409.45 260.85 408.98 261.29
  C 408.12 262.06 408.04 263.27 407.07 264.05
  Q 406.51 264.50 405.72 264.76
  Q 403.43 265.52 401.98 267.07
  Q 399.95 269.23 398.83 269.98
  Q 396.94 271.23 395.36 272.81
  Q 395.26 272.91 395.13 272.88
  Q 395.00 272.85 394.87 272.87
  Q 394.59 272.91 394.45 273.15
  Q 393.38 274.97 391.48 275.40
  A 1.39 1.38 -0.7 0 0 390.43 276.47
  Q 390.21 277.54 389.19 277.46
  Q 388.87 277.44 388.80 277.75
  Q 388.45 279.39 387.14 280.35
  Q 386.70 280.68 386.58 281.21
  Q 386.40 282.01 386.08 282.78
  A 0.61 0.59 -54.1 0 0 386.17 283.38
  Q 386.63 283.97 386.25 284.63
  Q 386.07 284.93 385.71 284.97
  Q 385.09 285.03 384.95 284.45
  Q 384.78 283.80 384.32 284.28
  Q 383.12 285.53 383.10 286.90
  Q 383.09 287.42 382.59 287.54
  L 381.41 287.82
  Q 380.95 287.93 380.90 288.40
  Q 380.75 289.58 379.22 290.05
  Q 379.01 290.11 378.97 289.90
  Q 378.87 289.38 378.54 289.79
  Q 377.91 290.59 377.01 290.78
  Q 376.48 290.89 376.19 291.34
  L 373.91 294.93
  Q 373.60 295.42 373.77 295.97
  Q 373.96 296.57 373.49 296.99
  Q 371.13 299.10 368.99 301.52
  A 0.73 0.71 -31.7 0 0 368.83 302.15
  Q 368.90 302.42 368.81 302.66
  C 368.39 303.77 367.47 303.97 367.19 305.39
  Q 366.97 306.48 366.42 307.40
  Q 365.37 309.14 364.41 310.90
  Q 364.19 311.31 363.76 311.50
  L 360.02 313.16
  Q 359.53 313.38 359.35 313.88
  Q 358.36 316.48 355.62 317.35
  Q 354.31 317.76 353.99 319.18
  Q 353.85 319.80 353.25 319.97
  L 351.00 320.62
  Q 350.55 320.75 350.37 321.18
  Q 349.71 322.80 348.51 324.05
  Q 348.15 324.43 348.02 324.94
  Q 347.93 325.32 347.74 325.64
  Q 347.51 326.05 346.81 326.34
  Q 345.75 326.79 344.87 327.54
  Q 344.49 327.87 343.99 327.90
  Q 340.29 328.16 337.18 330.15
  Q 336.78 330.41 336.30 330.37
  Q 335.61 330.31 335.44 331.02
  A 1.20 1.18 -10.0 0 1 334.93 331.74
  Q 334.04 332.31 333.94 333.66
  A 2.17 2.16 -3.3 0 1 332.18 335.63
  L 329.67 336.11
  Q 329.32 336.18 329.07 336.43
  L 328.84 336.66
  Q 328.43 337.07 327.85 337.17
  Q 325.50 337.58 324.09 339.14
  Q 322.60 340.77 320.66 341.52
  Q 319.72 341.88 319.02 342.58
  Q 318.30 343.29 317.53 343.94
  Q 317.18 344.23 316.81 343.96
  Q 316.60 343.81 316.45 344.02
  Q 316.38 344.12 316.27 344.17
  Q 314.10 345.27 312.67 347.24
  A 1.89 1.84 -83.0 0 1 311.91 347.85
  Q 309.76 348.75 307.83 350.05
  Q 306.12 351.19 304.70 351.63
  Q 303.30 352.06 301.76 352.39
  Q 300.90 352.58 301.77 352.70
  Q 301.94 352.72 302.09 352.78
  Q 302.52 352.95 302.48 353.41
  Q 302.42 354.28 301.55 354.11
  Q 301.31 354.07 301.16 354.28
  Q 301.13 354.33 301.12 354.39
  Q 301.10 354.67 301.40 354.79
  Q 303.48 355.62 302.58 356.77"
/>
<path stroke="#818c8d" vector-effect="non-scaling-stroke" d="
  M 302.58 356.77
  Q 241.37 356.68 180.26 356.52
  Q 166.11 356.48 160.25 355.65
  C 142.33 353.11 124.18 344.84 110.58 332.65
  Q 87.16 311.67 80.25 280.98"
/>
<path stroke="#829094" vector-effect="non-scaling-stroke" d="
  M 80.25 280.98
  Q 78.83 272.32 78.76 267.25
  Q 78.32 234.54 78.52 168.61"
/>
<path stroke="#879498" vector-effect="non-scaling-stroke" d="
  M 78.52 168.61
  Q 78.41 152.37 78.77 146.50
  Q 79.11 140.94 81.17 133.02
  Q 83.86 122.67 86.97 115.83"
/>
<path stroke="#8d999e" vector-effect="non-scaling-stroke" d="
  M 86.97 115.83
  Q 93.60 103.68 98.63 97.88
  Q 104.88 90.67 110.53 86.03
  Q 124.98 74.12 143.99 69.74
  Q 144.57 69.60 144.46 69.29"
/>
<path stroke="#949ea4" vector-effect="non-scaling-stroke" d="
  M 144.46 69.29
  Q 144.89 69.37 144.88 68.75
  Q 144.53 46.37 144.78 23.67
  Q 144.79 22.85 143.97 22.93
  Q 126.43 24.78 110.58 32.50"
/>
<path stroke="#879498" vector-effect="non-scaling-stroke" d="
  M 110.58 32.50
  Q 101.34 36.18 93.30 41.70
  Q 86.66 46.26 78.03 53.74
  Q 69.63 61.02 63.36 68.82
  C 53.71 80.83 45.98 93.50 40.89 107.97
  C 35.94 122.05 32.83 137.32 32.93 152.23"
/>
<path stroke="#829094" vector-effect="non-scaling-stroke" d="
  M 32.93 152.23
  L 33.23 255.18"
/>
<path stroke="#f3f5f9" vector-effect="non-scaling-stroke" d="
  M 33.23 255.18
  Q 32.44 257.76 32.89 260.25
  Q 32.97 260.66 32.75 261.03
  Q 32.52 261.40 32.57 261.87
  Q 32.64 262.60 32.14 262.07
  Q 31.94 261.86 32.05 261.57
  Q 32.21 261.16 31.89 261.47
  Q 31.77 261.58 31.73 261.79
  A 0.20 0.20 0.0 0 1 31.34 261.76
  Q 31.21 259.63 30.23 258.56
  Q 29.96 258.27 29.56 258.30
  Q 25.05 258.64 21.57 255.88
  Q 21.20 255.60 20.75 255.69
  Q 19.60 255.92 19.06 254.88
  Q 18.83 254.45 18.37 254.29
  L 6.72 250.36
  Q 6.34 250.23 6.08 249.94
  Q 4.29 247.89 1.82 248.99
  Q 1.42 249.17 1.35 249.60
  Q 1.25 250.15 0.78 250.47
  A 0.99 0.98 69.5 0 0 0.35 251.42
  Q 0.64 253.56 0.00 255.25"
/>
<path stroke="#8d999e" vector-effect="non-scaling-stroke" d="
  M 195.17 39.87
  L 199.69 54.44
  A 1.12 1.12 0.0 0 1 198.78 55.88
  C 193.56 56.65 188.58 58.80 183.85 61.00
  Q 168.67 68.08 160.25 82.89"
/>
<path stroke="#829094" vector-effect="non-scaling-stroke" d="
  M 160.25 82.89
  Q 155.99 90.91 153.83 99.72
  Q 153.48 101.14 152.68 101.69
  Q 144.64 107.22 135.98 113.52
  A 1.29 1.28 58.3 0 0 135.60 115.16
  L 154.10 150.09
  A 1.28 1.26 76.5 0 0 155.18 150.76
  Q 168.40 151.11 181.58 151.33
  C 189.98 151.48 196.63 152.35 204.00 154.56
  Q 218.72 158.96 231.21 167.24"
/>
<path stroke="#808d8e" vector-effect="non-scaling-stroke" d="
  M 231.21 167.24
  C 256.01 184.43 271.56 210.21 275.04 240.02
  Q 275.88 247.14 275.85 259.76
  Q 275.76 294.03 275.75 325.86
  Q 275.75 326.40 276.29 326.42
  Q 287.30 326.76 296.42 325.22
  C 314.80 322.12 334.52 312.40 348.40 298.93
  Q 372.78 275.26 380.71 242.23
  C 383.65 229.95 383.77 215.47 383.43 202.26"
/>
<path stroke="#829094" vector-effect="non-scaling-stroke" d="
  M 383.43 202.26
  L 383.45 146.24
  Q 383.45 145.75 382.96 145.75
  L 338.19 145.76
  A 0.64 0.63 -89.5 0 0 337.56 146.39
  L 337.52 209.06"
/>
<path stroke="#808d8e" vector-effect="non-scaling-stroke" d="
  M 337.52 209.06
  C 338.09 233.04 328.16 258.32 307.35 271.63
  A 0.39 0.39 0.0 0 1 306.75 271.30
  L 306.84 233.27"
/>
<path stroke="#829094" vector-effect="non-scaling-stroke" d="
  M 306.84 233.27
  Q 306.82 200.11 306.81 167.00
  Q 306.81 162.33 306.06 157.21"
/>
<path stroke="#879498" vector-effect="non-scaling-stroke" d="
  M 306.06 157.21
  Q 306.02 151.07 304.66 144.34
  Q 300.19 122.30 288.35 102.95"
/>
<path stroke="#8d999e" vector-effect="non-scaling-stroke" d="
  M 288.35 102.95
  Q 286.14 98.44 282.09 92.91
  Q 269.49 75.64 253.78 62.80"
/>
<path stroke="#949ea4" vector-effect="non-scaling-stroke" d="
  M 253.78 62.80
  Q 249.32 58.67 244.61 54.87
  Q 218.55 33.82 191.59 12.11
  C 189.68 10.56 188.42 8.81 186.79 7.08
  Q 184.95 5.10 185.71 7.70
  L 195.17 39.87"
/>
<path stroke="#213843" vector-effect="non-scaling-stroke" d="
  M 253.78 62.80
  Q 252.73 63.00 251.60 63.08
  Q 250.64 63.15 249.54 62.64
  Q 247.63 61.76 245.54 61.40
  C 244.08 61.15 242.89 60.35 241.50 60.27
  Q 232.74 59.77 224.07 60.13
  Q 223.58 60.15 223.29 60.54
  Q 222.72 61.31 221.71 61.16
  Q 217.46 60.54 213.45 60.05
  Q 212.95 59.98 212.50 59.75
  Q 211.95 59.46 211.37 59.47
  Q 210.73 59.47 210.12 59.38
  Q 208.25 59.07 206.53 58.92
  C 204.64 58.76 203.53 57.64 201.84 57.08
  Q 201.24 56.87 201.30 56.25
  Q 201.56 53.49 200.16 51.72
  Q 199.77 51.23 199.90 50.61
  Q 200.04 49.97 199.42 49.84
  A 0.71 0.70 -78.3 0 1 198.87 49.00
  Q 199.24 47.35 198.08 46.23
  Q 197.68 45.86 197.64 45.32
  Q 197.48 43.28 196.83 41.22
  Q 196.67 40.71 196.28 40.31
  Q 195.32 39.35 195.17 39.87"
/>
<path stroke="#142e37" vector-effect="non-scaling-stroke" d="
  M 288.35 102.95
  Q 287.81 103.19 288.63 105.17
  Q 291.07 111.08 293.33 114.87
  C 293.78 115.61 293.59 116.24 293.67 117.06
  A 0.35 0.34 15.3 0 1 293.12 117.37
  C 290.94 115.79 290.63 113.73 289.43 111.54
  Q 288.56 109.95 287.88 108.23
  Q 287.64 107.64 287.15 107.25
  Q 286.77 106.94 286.62 106.47
  Q 285.65 103.30 283.18 101.10
  Q 282.81 100.78 282.65 100.32
  L 282.27 99.24
  Q 281.94 98.29 281.45 99.31
  Q 281.33 99.58 281.04 99.65
  Q 280.42 99.80 280.06 99.27
  Q 279.83 98.93 279.62 99.40
  Q 279.31 100.08 278.73 99.62
  L 276.81 98.11
  Q 276.43 97.81 275.94 97.75
  L 272.60 97.34
  Q 272.09 97.28 271.68 96.97
  L 271.01 96.47
  Q 270.58 96.15 270.04 96.12
  Q 268.21 96.03 266.37 95.94
  Q 265.56 95.91 262.65 95.53
  Q 260.77 95.28 258.86 95.47
  Q 257.26 95.62 255.60 95.37
  Q 252.03 94.82 248.49 95.13
  Q 247.96 95.18 247.56 94.84
  Q 246.93 94.31 246.21 94.55
  Q 245.72 94.71 245.20 94.65
  Q 237.31 93.64 228.32 93.91
  Q 225.66 93.99 217.27 93.32
  Q 215.47 93.18 213.75 93.15
  Q 212.04 93.11 210.30 92.71
  Q 207.63 92.09 205.72 94.31
  A 1.48 1.48 0.0 0 1 203.17 93.74
  Q 202.86 92.61 203.83 91.79
  Q 204.13 91.54 204.15 91.14
  Q 204.25 89.41 205.59 88.08
  Q 205.91 87.78 205.88 87.36
  Q 205.84 86.89 205.26 86.63"
/>
<path stroke="#8d999e" vector-effect="non-scaling-stroke" d="
  M 205.26 86.63
  Q 205.65 86.00 205.17 85.70"
/>
<path stroke="#142e37" vector-effect="non-scaling-stroke" d="
  M 205.17 85.70
  Q 206.41 83.53 201.65 82.26
  Q 197.97 81.28 193.31 80.93
  Q 190.01 80.69 186.94 81.74
  Q 183.18 83.03 180.52 84.74
  Q 178.19 86.24 175.74 88.89
  Q 173.63 91.16 172.74 94.07
  Q 171.77 97.26 170.82 100.42
  Q 170.69 100.89 170.29 101.16
  Q 169.86 101.45 169.49 101.83
  Q 169.03 102.32 168.74 101.71
  Q 168.65 101.54 168.50 101.72
  Q 168.19 102.06 167.81 101.80
  Q 167.26 101.41 167.41 100.89
  Q 167.46 100.72 167.64 100.75
  Q 167.69 100.76 167.74 100.78
  Q 168.34 101.19 168.03 100.53
  Q 167.33 99.06 167.08 97.58
  A 0.83 0.81 3.5 0 0 166.48 96.92
  Q 165.96 96.78 165.82 96.21
  Q 165.68 95.64 166.28 95.64
  L 166.73 95.64
  Q 167.60 95.64 167.07 94.95
  Q 166.52 94.24 165.78 94.54
  A 3.39 3.19 -38.1 0 1 162.69 94.26
  Q 162.02 93.80 161.14 93.67
  Q 160.71 93.61 160.41 93.93
  Q 160.05 94.31 159.59 94.04
  Q 159.48 93.98 159.41 93.89
  Q 159.32 93.74 159.38 93.58
  Q 159.59 93.07 159.05 93.17
  Q 158.77 93.23 158.55 93.10
  Q 158.15 92.88 158.13 92.42
  L 158.10 90.97"
/>
<path stroke="#102a33" vector-effect="non-scaling-stroke" d="
  M 158.10 90.97
  Q 160.40 86.75 160.87 85.00
  Q 161.39 83.08 160.25 82.89"
/>
<path stroke="#031e23" vector-effect="non-scaling-stroke" d="
  M 306.84 233.27
  Q 305.36 235.24 305.65 230.83
  Q 305.69 230.27 305.14 230.15
  L 304.75 230.06
  Q 303.80 229.84 304.54 229.20
  Q 305.03 228.78 304.81 228.15
  Q 304.68 227.80 304.31 227.71
  Q 304.06 227.65 304.10 227.39
  Q 304.12 227.25 304.10 227.10
  Q 303.82 225.41 303.33 223.68
  Q 303.18 223.14 302.62 223.14
  L 302.32 223.14
  Q 301.93 223.14 301.80 222.77
  Q 301.06 220.60 301.00 218.57
  Q 300.95 217.27 300.31 216.11
  Q 299.12 213.99 298.18 211.78
  Q 298.06 211.49 298.23 211.22
  L 298.38 210.99
  Q 298.48 210.82 298.35 210.68
  L 295.73 207.77
  Q 295.42 207.42 295.34 206.96
  Q 295.17 205.96 294.42 205.34
  A 1.38 1.36 14.9 0 1 293.94 204.53
  Q 293.60 202.57 291.92 201.59
  Q 291.46 201.33 291.28 200.84
  Q 290.76 199.40 290.07 197.90
  Q 289.68 197.07 288.77 196.59
  Q 287.73 196.04 286.80 195.45
  Q 285.40 194.56 284.89 192.98
  Q 284.74 192.51 284.32 192.25
  Q 280.18 189.71 275.50 186.92
  Q 273.75 185.88 270.92 182.49
  Q 269.73 181.06 267.88 180.10
  Q 265.94 179.09 264.18 178.96
  Q 261.95 178.79 260.35 177.27
  Q 259.98 176.92 259.50 176.76
  Q 256.06 175.57 255.17 174.95
  Q 252.85 173.31 251.40 173.18
  Q 251.30 173.17 251.22 173.24
  Q 251.02 173.44 250.88 173.19
  Q 250.57 172.63 250.12 173.09
  Q 249.35 173.88 248.15 173.88
  A 0.94 0.93 73.9 0 1 247.33 173.42
  Q 247.07 172.99 246.59 172.88
  A 0.62 0.62 0.0 0 1 246.11 172.29
  L 246.11 171.76
  Q 246.10 171.28 245.62 171.19
  Q 244.67 171.00 244.10 170.13
  Q 243.73 169.56 243.08 169.24
  Q 242.62 169.01 242.29 169.39
  Q 241.99 169.72 241.60 169.51
  Q 240.66 169.01 239.90 169.76
  Q 239.66 170.00 239.43 169.75
  Q 238.88 169.18 238.11 169.50
  Q 237.79 169.64 237.59 169.36
  Q 236.66 168.08 235.00 167.70
  Q 234.65 167.62 234.38 167.40
  Q 229.67 163.69 231.21 167.24"
/>
<path stroke="#879498" vector-effect="non-scaling-stroke" d="
  M 205.17 85.70
  C 194.61 80.26 182.93 81.28 175.83 91.20
  Q 174.10 93.61 172.76 98.37
  Q 171.74 101.99 170.13 105.77
  A 0.72 0.72 0.0 0 0 170.85 106.77
  Q 175.96 106.38 181.18 106.67
  C 188.85 107.10 196.22 101.13 200.09 94.88
  Q 202.13 91.59 203.90 87.95
  Q 204.14 87.44 205.26 86.63"
/>
<path stroke="#0a252d" vector-effect="non-scaling-stroke" d="
  M 306.06 157.21
  Q 305.03 163.72 305.19 170.19
  Q 305.20 170.48 304.97 170.31
  Q 304.77 170.16 304.65 170.37
  A 0.08 0.08 0.0 0 1 304.50 170.36
  Q 304.09 169.13 304.12 167.93
  Q 304.13 167.75 304.05 167.60
  Q 303.99 167.46 303.83 167.45
  Q 303.44 167.43 303.43 167.04
  Q 303.39 163.77 302.99 160.99
  Q 302.85 160.09 303.62 159.66
  Q 303.99 159.45 304.12 159.04
  Q 304.52 157.79 303.58 156.99
  Q 303.16 156.63 303.22 156.07
  Q 303.66 152.26 300.75 149.02
  A 1.14 1.14 0.0 0 1 300.44 148.19
  Q 300.47 147.23 299.58 146.37
  Q 299.27 146.08 298.86 146.04
  Q 297.47 145.93 296.48 144.81
  Q 294.35 142.42 291.64 142.98
  Q 291.20 143.07 290.77 142.94
  L 288.37 142.22
  Q 288.04 142.11 287.81 141.84
  Q 287.46 141.41 286.89 141.74
  Q 286.64 141.88 286.46 141.66
  Q 285.85 140.94 284.92 140.92
  Q 284.23 140.91 283.55 140.70
  Q 281.80 140.16 280.01 139.71
  Q 278.36 139.29 276.39 139.35
  Q 273.52 139.43 270.61 139.45
  Q 267.97 139.46 265.41 138.57
  Q 262.16 137.45 258.68 137.10
  C 257.29 136.96 256.22 135.60 254.64 135.40
  Q 250.31 134.83 245.75 135.09
  Q 243.57 135.21 241.41 134.44
  Q 239.84 133.88 237.94 133.97
  Q 235.76 134.07 233.74 133.73
  Q 232.22 133.48 230.58 133.32
  Q 229.03 133.18 227.42 133.12
  Q 225.97 133.07 223.85 132.67
  Q 222.64 132.44 218.79 132.39
  Q 216.16 132.35 213.77 131.85
  Q 211.74 131.43 209.75 131.36
  Q 207.73 131.28 205.76 131.01
  Q 202.51 130.56 199.39 130.26
  Q 197.91 130.13 196.40 129.72
  Q 194.76 129.29 193.34 129.42
  Q 191.04 129.64 188.90 129.13
  Q 186.22 128.49 183.48 127.93
  Q 180.76 127.37 177.96 127.18
  Q 172.74 126.82 167.59 126.03
  Q 166.46 125.86 165.42 125.95
  Q 164.21 126.05 162.96 126.09
  Q 161.32 126.15 159.88 126.94
  Q 158.70 127.59 157.11 127.43
  Q 155.34 127.24 153.48 127.71
  Q 151.88 128.11 150.29 128.10
  Q 149.81 128.09 149.42 128.36
  L 148.32 129.12
  Q 147.92 129.40 147.62 129.02
  Q 146.52 127.67 145.06 128.29
  Q 144.71 128.44 144.62 128.07
  Q 144.40 127.27 143.57 127.38
  Q 142.93 127.47 143.12 126.85
  Q 143.51 125.51 142.27 125.10
  Q 141.65 124.89 141.86 124.27
  Q 142.08 123.65 141.52 123.36
  Q 141.05 123.11 140.88 122.61
  Q 139.64 118.94 137.22 115.45
  Q 136.80 114.83 137.47 114.50
  C 138.24 114.12 138.61 113.35 139.44 112.84
  Q 140.96 111.93 142.30 110.84
  Q 143.67 109.72 145.20 108.92
  Q 149.64 106.58 153.89 102.61
  Q 155.24 101.35 155.37 100.51
  Q 156.12 95.58 158.10 90.97"
/>
<path stroke="#031e23" vector-effect="non-scaling-stroke" d="
  M 383.43 202.26
  Q 382.89 208.47 383.04 214.75
  Q 383.04 214.90 382.86 214.91
  Q 382.74 214.92 382.74 214.80
  Q 382.60 212.47 382.65 210.45
  Q 382.65 210.30 382.51 210.25
  Q 382.46 210.23 382.41 210.27
  Q 382.09 210.55 382.10 210.13
  Q 382.14 208.01 381.95 205.88
  Q 381.92 205.57 381.75 205.32
  Q 381.67 205.20 381.64 205.05
  Q 381.57 204.65 381.61 205.06
  Q 381.62 205.19 381.54 205.31
  Q 381.41 205.51 381.26 205.31
  Q 380.29 204.04 379.79 202.55
  Q 379.63 202.07 379.13 202.11
  Q 378.13 202.18 377.62 202.89
  Q 377.32 203.30 376.82 203.37
  Q 375.75 203.51 375.50 202.53
  Q 375.45 202.31 375.29 202.47
  Q 374.49 203.29 373.56 202.18
  Q 373.46 202.06 373.57 201.96
  L 373.77 201.75
  Q 373.98 201.55 373.88 201.27
  L 373.03 198.78
  A 2.54 2.53 -7.7 0 0 370.80 197.08
  C 369.75 197.01 367.87 197.14 367.02 197.92
  Q 366.61 198.30 366.03 198.19
  Q 365.50 198.08 365.04 198.35
  Q 362.63 199.76 360.05 200.38
  Q 359.46 200.52 359.03 200.94
  Q 357.35 202.55 355.43 202.94
  Q 353.23 203.39 351.26 203.43
  Q 348.29 203.48 340.45 203.20
  Q 339.91 203.18 339.80 203.71
  Q 339.59 204.76 339.72 205.82
  Q 339.73 205.89 339.67 205.90
  Q 339.61 205.91 339.56 205.87
  Q 339.51 205.83 339.51 205.76
  Q 339.59 204.55 339.18 203.63
  Q 338.54 202.21 338.31 203.75
  L 337.52 209.06"
/>
<path stroke="#879498" vector-effect="non-scaling-stroke" d="
  M 337.70 81.06
  L 337.52 112.98
  A 0.51 0.51 0.0 0 0 338.03 113.50
  L 383.15 113.50
  A 0.32 0.31 0.0 0 0 383.47 113.19
  L 383.43 92.21"
/>
<path stroke="#8d999e" vector-effect="non-scaling-stroke" d="
  M 383.43 92.21
  L 383.21 23.51
  A 0.45 0.45 0.0 0 0 382.76 23.06
  L 337.75 23.05
  Q 337.47 23.05 337.47 23.33
  L 337.70 81.06"
/>
<path stroke="#142e37" vector-effect="non-scaling-stroke" d="
  M 383.43 92.21
  L 383.26 86.97
  Q 383.23 86.01 382.77 86.85
  Q 382.26 87.76 382.35 88.77
  Q 382.37 88.95 382.24 89.07
  Q 382.12 89.17 382.14 89.31
  Q 382.24 89.99 382.07 89.20
  Q 381.76 87.75 381.31 86.30
  Q 381.15 85.82 380.65 85.81
  Q 378.80 85.79 377.62 84.53
  Q 377.23 84.10 376.65 84.03
  Q 376.01 83.94 375.77 83.36
  Q 375.58 82.89 375.07 82.91
  Q 374.08 82.95 373.35 82.05
  Q 372.97 81.59 372.39 81.45
  Q 366.87 80.18 361.26 80.38
  Q 360.76 80.40 360.31 80.20
  Q 359.97 80.06 359.62 80.14
  Q 357.75 80.58 355.87 80.51
  Q 354.03 80.43 352.10 80.74
  Q 349.98 81.08 347.74 81.44
  Q 347.22 81.53 346.75 81.30
  Q 345.99 80.92 345.20 81.20
  Q 342.59 82.10 340.12 80.99
  Q 339.66 80.78 339.36 80.39
  L 338.54 79.32
  Q 338.22 78.90 338.19 79.43
  Q 338.12 80.51 337.70 81.06"
/>
<path stroke="#829094" vector-effect="non-scaling-stroke" d="
  M 245.71 299.63
  Q 245.97 259.77 245.66 249.00
  Q 245.31 236.22 238.61 222.03"
/>
<path stroke="#879498" vector-effect="non-scaling-stroke" d="
  M 238.61 222.03
  Q 233.80 211.66 224.82 202.43
  Q 214.53 191.86 201.45 186.84
  Q 188.49 181.87 176.71 182.56"
/>
<path stroke="#808d8e" vector-effect="non-scaling-stroke" d="
  M 176.71 182.56
  Q 152.81 182.36 134.10 196.59
  Q 119.05 208.03 112.01 225.71
  Q 101.46 252.18 111.15 278.28
  C 116.21 291.92 125.04 302.64 136.85 311.85
  Q 142.66 316.38 149.65 319.36
  C 159.22 323.44 169.43 326.48 179.75 326.50
  Q 212.11 326.57 245.37 326.48
  A 0.42 0.42 0.0 0 0 245.79 326.06
  L 245.71 299.63"
/>
<path stroke="#082227" vector-effect="non-scaling-stroke" d="
  M 176.71 182.56
  Q 172.89 184.23 168.25 184.25
  Q 166.21 184.25 164.29 184.63
  Q 162.30 185.01 160.41 185.44
  Q 155.11 186.65 149.29 189.54
  Q 147.30 190.54 145.21 191.33
  Q 143.13 192.12 141.22 193.35
  C 139.24 194.63 137.06 195.77 135.27 197.34
  Q 134.07 198.39 132.69 199.42
  Q 131.86 200.04 131.36 200.92
  Q 130.67 202.14 129.54 202.99
  Q 128.28 203.94 127.30 205.24
  Q 125.02 208.28 122.52 211.06"
/>
<path stroke="#031e23" vector-effect="non-scaling-stroke" d="
  M 122.52 211.06
  Q 120.00 213.41 118.39 216.34
  Q 117.35 218.25 116.55 219.63
  Q 115.18 222.01 114.89 223.01
  Q 113.31 228.53 111.75 234.04
  Q 110.69 237.79 110.31 241.53
  A 0.53 0.53 0.0 0 0 111.08 242.06
  Q 114.07 240.50 116.84 243.02
  Q 119.04 245.03 121.90 245.13
  Q 122.48 245.15 122.94 245.48
  C 124.26 246.41 125.22 247.25 126.82 247.78
  C 129.12 248.55 131.28 249.86 133.78 250.07
  Q 135.30 250.20 136.52 250.98
  Q 138.15 252.02 140.09 252.33
  C 141.26 252.52 141.93 253.48 143.24 253.73
  Q 144.89 254.03 146.30 254.86
  Q 146.99 255.27 147.75 255.09
  A 1.92 1.91 -40.3 0 1 148.88 255.18
  Q 150.77 255.95 152.72 256.74
  Q 154.08 257.28 155.82 257.53
  Q 157.49 257.77 159.10 258.47
  A 2.07 2.01 -35.1 0 0 160.11 258.63
  C 161.72 258.46 163.08 259.80 164.53 258.78
  A 1.25 1.24 -53.5 0 1 165.63 258.61
  L 169.66 259.94
  A 4.03 4.00 39.3 0 0 172.82 259.64
  Q 175.15 258.35 176.58 260.38
  Q 176.90 260.82 177.41 260.64
  Q 179.10 260.06 180.39 258.97
  A 1.07 1.07 0.0 0 1 181.13 258.72
  Q 183.18 258.83 184.92 259.85
  A 3.47 3.46 -42.0 0 0 188.13 260.01
  Q 189.94 259.18 191.42 260.20
  C 193.16 261.39 195.45 261.09 197.43 261.13
  C 199.62 261.17 202.07 261.94 204.56 261.77
  C 207.15 261.58 209.57 262.43 212.13 261.65
  Q 213.22 261.32 214.22 261.83
  Q 217.31 263.40 220.08 262.18
  Q 220.48 262.00 220.88 262.16
  Q 226.11 264.18 231.97 264.77
  Q 233.39 264.91 234.42 265.84
  Q 234.72 266.11 235.12 266.17
  Q 235.97 266.31 236.47 265.68
  Q 236.67 265.42 236.94 265.59
  Q 238.12 266.32 238.35 267.71
  Q 238.44 268.21 238.84 268.52
  Q 241.31 270.38 240.88 274.11
  Q 240.77 275.05 241.25 275.87
  A 1.50 1.46 32.9 0 1 241.44 276.70
  Q 241.40 277.19 241.20 277.63
  Q 240.97 278.12 241.01 278.65
  L 241.53 285.18
  Q 241.58 285.69 241.83 286.14
  Q 242.76 287.77 242.93 289.82
  Q 242.94 289.96 243.08 289.97
  Q 243.23 289.99 243.31 290.11
  Q 243.55 290.49 243.41 290.90
  Q 243.35 291.07 243.37 291.26
  Q 243.44 291.99 243.58 291.27
  Q 243.64 290.99 243.84 290.79
  Q 244.53 290.13 244.65 291.08
  L 245.71 299.63"
/>
<path stroke="#0a252d" vector-effect="non-scaling-stroke" d="
  M 238.61 222.03
  Q 237.57 225.40 238.78 228.24
  Q 239.71 230.40 239.83 232.01
  A 2.02 1.89 -65.7 0 0 240.15 232.95
  Q 240.63 233.68 240.82 234.47
  Q 240.96 235.06 240.36 235.17
  Q 237.83 235.66 236.83 233.46
  Q 236.67 233.10 236.29 232.98
  Q 234.78 232.47 233.79 231.29
  Q 233.47 230.91 232.97 230.86
  Q 232.25 230.77 231.65 230.37
  A 1.29 1.25 57.8 0 0 230.78 230.16
  Q 227.14 230.64 226.00 230.50
  Q 220.99 229.92 216.00 230.65
  Q 214.54 230.86 210.50 230.13
  C 208.98 229.85 207.31 230.50 205.71 230.15
  Q 202.51 229.45 199.51 229.50
  Q 196.44 229.55 192.55 229.26
  Q 177.05 228.11 164.83 225.72
  Q 162.13 225.19 159.73 225.09
  C 157.39 225.00 155.03 224.62 152.81 223.85
  Q 149.68 222.78 146.43 222.00
  Q 143.07 221.18 140.23 219.75
  Q 137.76 218.49 135.16 217.87
  Q 132.23 217.17 129.84 216.16
  Q 126.21 214.63 122.65 213.18
  Q 122.16 212.99 122.26 212.47
  L 122.52 211.06"
/>
<path stroke="#213843" vector-effect="non-scaling-stroke" d="
  M 144.46 69.29
  L 144.45 68.79
  Q 144.45 68.22 143.97 68.53
  Q 143.19 69.04 142.19 69.18
  Q 139.78 69.49 137.44 69.88
  Q 135.33 70.23 132.68 71.36
  Q 128.51 73.13 124.18 74.88
  Q 123.84 75.02 123.66 75.35
  Q 123.39 75.82 122.83 75.67
  A 1.09 1.00 -43.6 0 0 122.28 75.68
  L 117.88 77.04
  Q 117.38 77.20 117.48 76.68
  L 117.85 74.66
  Q 117.90 74.34 117.61 74.19
  Q 117.46 74.11 117.27 74.11
  Q 116.73 74.13 116.33 73.76
  Q 114.96 72.53 113.30 71.80
  A 2.06 2.03 -5.5 0 1 112.44 71.10
  Q 111.50 69.73 110.12 68.59
  Q 109.83 68.35 109.49 68.34
  Q 109.20 68.34 108.97 68.14
  L 97.27 57.74
  Q 96.82 57.34 96.22 57.26
  Q 95.61 57.17 95.19 56.71
  Q 94.88 56.39 94.46 56.26
  Q 92.98 55.78 91.45 55.20
  Q 90.07 54.67 89.00 53.65
  Q 87.75 52.46 86.43 51.36
  A 1.64 1.63 60.3 0 1 87.21 48.49
  Q 88.75 48.24 88.73 46.74"
/>
<path stroke="#1b333d" vector-effect="non-scaling-stroke" d="
  M 88.73 46.74
  L 110.58 32.50"
/>
<path stroke="#142e37" vector-effect="non-scaling-stroke" d="
  M 88.73 46.74
  Q 81.43 53.19 74.23 59.70
  Q 72.50 61.27 71.19 63.10
  Q 69.82 65.03 68.18 66.58
  Q 67.76 66.98 67.61 67.53
  Q 67.47 68.04 67.00 68.25
  Q 66.24 68.60 66.03 69.47
  Q 65.92 69.91 66.38 69.87
  Q 67.32 69.79 67.68 70.62
  A 0.85 0.84 -11.6 0 0 68.46 71.13
  Q 71.08 71.15 71.71 73.25
  Q 71.84 73.71 72.20 74.03
  Q 73.37 75.04 73.99 76.50
  Q 74.43 76.66 74.23 77.07
  Q 74.04 77.45 74.33 77.75
  C 75.21 78.66 76.34 79.26 76.85 80.45
  Q 77.34 81.61 78.46 82.44
  Q 79.35 83.10 80.06 84.21
  Q 83.64 89.85 84.37 92.00
  Q 85.24 94.58 86.58 95.84
  Q 87.08 96.32 87.31 96.76
  Q 87.59 97.28 87.88 97.80
  Q 88.12 98.24 88.11 98.74
  Q 88.06 100.96 89.74 102.24
  Q 89.97 102.42 89.70 102.54
  Q 89.62 102.57 89.59 102.65
  Q 89.46 103.00 89.58 103.36
  Q 90.38 105.71 89.30 107.37
  Q 89.06 107.74 89.27 108.13
  Q 89.58 108.70 89.26 109.25
  Q 87.40 112.49 86.97 115.83"
/>
<path stroke="#0a252d" vector-effect="non-scaling-stroke" d="
  M 78.52 168.61
  Q 77.12 179.84 77.25 191.09
  Q 77.25 191.14 77.20 191.17
  Q 77.14 191.21 77.13 191.14
  Q 77.12 191.08 77.12 191.02
  C 77.09 189.60 77.69 187.38 75.61 187.00
  Q 75.08 186.91 74.77 186.48
  Q 74.54 186.15 74.70 185.83
  Q 74.99 185.23 74.48 184.81
  L 72.73 183.38
  Q 72.53 183.21 72.59 182.96
  Q 72.63 182.82 72.59 182.69
  Q 72.40 182.12 71.83 181.81
  Q 69.83 180.72 69.66 178.69
  A 1.41 1.39 -84.9 0 0 68.65 177.47
  Q 67.42 177.12 67.19 175.76
  Q 67.08 175.08 66.56 174.62
  Q 64.23 172.61 61.91 170.59
  Q 61.42 170.16 60.01 170.10
  Q 59.52 170.08 59.15 169.73
  Q 57.34 168.01 55.62 166.08
  C 54.79 165.15 53.61 164.46 52.53 163.85
  Q 52.16 163.64 51.94 163.27
  Q 51.36 162.28 50.18 162.15
  Q 49.71 162.10 49.52 161.66
  Q 49.35 161.27 48.93 161.36
  Q 48.52 161.44 48.17 161.21
  Q 46.42 160.04 45.12 158.49
  Q 44.00 157.16 42.47 156.30
  Q 38.60 154.12 34.53 153.25
  Q 33.89 153.12 34.10 152.50
  Q 34.37 151.71 34.13 150.95
  Q 34.00 150.55 33.89 150.95
  Q 33.49 152.40 32.93 152.23"
/>
<path stroke="#041d22" vector-effect="non-scaling-stroke" d="
  M 80.25 280.98
  Q 79.03 281.26 79.04 282.27
  Q 79.04 282.62 78.78 282.86
  Q 78.59 283.04 78.59 283.30
  Q 78.56 284.43 78.21 283.35
  Q 78.07 282.90 77.62 282.67
  A 0.77 0.75 17.7 0 1 77.20 281.88
  Q 77.37 280.53 77.06 279.01
  A 0.50 0.50 0.0 0 0 76.24 278.74
  Q 75.75 279.18 75.88 279.80
  Q 75.89 279.86 75.83 279.87
  Q 75.68 279.92 75.52 279.88
  Q 75.20 279.80 75.40 279.55
  Q 76.18 278.56 76.11 277.48
  Q 76.08 277.08 75.75 277.31
  Q 75.48 277.50 75.68 277.80
  A 0.06 0.05 75.1 0 1 75.64 277.88
  L 75.29 277.88
  Q 74.94 277.88 74.92 277.54
  L 74.75 275.24
  Q 74.75 275.18 74.69 275.18
  L 74.42 275.20
  A 0.29 0.28 -90.0 0 0 74.15 275.48
  L 74.09 277.27
  A 0.66 0.66 0.0 0 1 73.42 277.91
  Q 72.05 277.89 71.86 276.41
  Q 71.84 276.25 71.78 276.10
  Q 71.74 275.96 71.60 275.95
  Q 70.80 275.91 71.22 275.23
  Q 71.69 274.47 71.02 273.94
  Q 70.84 273.79 70.69 273.97
  Q 70.60 274.08 70.56 274.21
  Q 70.33 275.07 70.36 274.18
  Q 70.37 274.05 70.39 273.91
  A 0.39 0.35 28.9 0 0 70.28 273.59
  Q 68.15 271.45 68.24 268.51
  Q 68.26 267.93 67.99 267.42
  Q 67.32 266.15 67.03 264.77
  Q 66.57 262.56 64.54 260.51
  Q 64.18 260.13 63.65 260.13
  L 62.80 260.13
  Q 62.43 260.13 62.35 259.76
  Q 62.20 259.07 61.53 258.82
  A 1.09 1.09 0.0 0 1 60.83 257.97
  Q 60.47 255.67 59.35 253.51
  A 1.37 1.36 -2.5 0 0 58.66 252.88
  L 56.25 251.83
  Q 55.78 251.63 55.65 251.14
  C 55.30 249.78 54.91 248.46 53.90 247.42
  Q 52.83 246.31 52.86 244.73
  Q 52.87 244.27 52.44 244.11
  Q 49.18 242.92 48.84 239.56
  Q 48.77 238.83 48.05 238.63
  Q 47.29 238.41 47.02 237.58
  A 1.22 1.21 6.7 0 0 46.51 236.94
  L 43.89 235.37
  Q 43.43 235.09 43.00 235.41
  Q 42.84 235.53 42.83 235.72
  Q 42.81 236.16 42.39 236.08
  L 39.53 235.54
  Q 39.15 235.47 38.78 235.57
  Q 38.09 235.74 37.82 234.94
  Q 37.67 234.51 37.23 234.40
  Q 37.05 234.35 36.88 234.41
  Q 36.73 234.46 36.72 234.61
  Q 36.71 234.78 36.86 234.81
  Q 37.31 234.89 37.08 235.28
  Q 36.84 235.71 36.35 235.85
  Q 36.07 235.92 36.04 236.22
  L 35.86 237.84
  Q 35.81 238.25 35.41 238.17
  Q 35.25 238.14 35.09 238.07
  Q 34.26 237.66 34.36 238.58
  Q 34.44 239.29 34.08 239.84
  Q 33.78 240.29 33.94 240.81
  C 34.51 242.64 33.71 244.26 33.69 246.08
  Q 33.65 249.02 33.63 251.69
  Q 33.62 253.47 33.86 257.29
  Q 34.22 262.88 33.51 268.49"
/>
<path stroke="#76868d" vector-effect="non-scaling-stroke" d="
  M 33.51 268.49
  L 33.23 255.18"
/>
<path stroke="#758187" vector-effect="non-scaling-stroke" d="
  M 302.58 356.77
  C 305.80 357.25 309.03 357.42 312.24 357.97
  C 342.41 363.14 366.83 382.43 380.52 409.80
  Q 380.77 410.29 380.22 410.29
  L 324.76 410.00
  A 1.94 1.93 61.9 0 1 323.68 409.67
  C 315.82 404.32 307.04 402.69 297.60 402.68
  Q 233.00 402.57 168.32 402.43
  C 129.99 402.35 93.11 383.39 67.87 354.85
  C 46.11 330.26 33.92 301.30 33.51 268.49"
/>
<path stroke="#f3f5f9" vector-effect="non-scaling-stroke" d="
  M 390.91 415.00
  Q 388.58 414.49 386.25 415.00"
/>
</g>
<path fill="#ffffff" d="
  M 0.00 0.00
  L 415.00 0.00
  L 415.00 264.38
  Q 414.10 261.99 414.38 259.26
  Q 414.45 258.59 414.01 259.10
  Q 413.88 259.25 413.64 259.28
  Q 413.18 259.32 412.92 258.92
  Q 412.81 258.74 412.63 258.65
  A 0.49 0.48 23.7 0 0 411.96 258.91
  Q 411.62 259.82 410.74 260.08
  C 410.14 260.26 409.45 260.85 408.98 261.29
  C 408.12 262.06 408.04 263.27 407.07 264.05
  Q 406.51 264.50 405.72 264.76
  Q 403.43 265.52 401.98 267.07
  Q 399.95 269.23 398.83 269.98
  Q 396.94 271.23 395.36 272.81
  Q 395.26 272.91 395.13 272.88
  Q 395.00 272.85 394.87 272.87
  Q 394.59 272.91 394.45 273.15
  Q 393.38 274.97 391.48 275.40
  A 1.39 1.38 -0.7 0 0 390.43 276.47
  Q 390.21 277.54 389.19 277.46
  Q 388.87 277.44 388.80 277.75
  Q 388.45 279.39 387.14 280.35
  Q 386.70 280.68 386.58 281.21
  Q 386.40 282.01 386.08 282.78
  A 0.61 0.59 -54.1 0 0 386.17 283.38
  Q 386.63 283.97 386.25 284.63
  Q 386.07 284.93 385.71 284.97
  Q 385.09 285.03 384.95 284.45
  Q 384.78 283.80 384.32 284.28
  Q 383.12 285.53 383.10 286.90
  Q 383.09 287.42 382.59 287.54
  L 381.41 287.82
  Q 380.95 287.93 380.90 288.40
  Q 380.75 289.58 379.22 290.05
  Q 379.01 290.11 378.97 289.90
  Q 378.87 289.38 378.54 289.79
  Q 377.91 290.59 377.01 290.78
  Q 376.48 290.89 376.19 291.34
  L 373.91 294.93
  Q 373.60 295.42 373.77 295.97
  Q 373.96 296.57 373.49 296.99
  Q 371.13 299.10 368.99 301.52
  A 0.73 0.71 -31.7 0 0 368.83 302.15
  Q 368.90 302.42 368.81 302.66
  C 368.39 303.77 367.47 303.97 367.19 305.39
  Q 366.97 306.48 366.42 307.40
  Q 365.37 309.14 364.41 310.90
  Q 364.19 311.31 363.76 311.50
  L 360.02 313.16
  Q 359.53 313.38 359.35 313.88
  Q 358.36 316.48 355.62 317.35
  Q 354.31 317.76 353.99 319.18
  Q 353.85 319.80 353.25 319.97
  L 351.00 320.62
  Q 350.55 320.75 350.37 321.18
  Q 349.71 322.80 348.51 324.05
  Q 348.15 324.43 348.02 324.94
  Q 347.93 325.32 347.74 325.64
  Q 347.51 326.05 346.81 326.34
  Q 345.75 326.79 344.87 327.54
  Q 344.49 327.87 343.99 327.90
  Q 340.29 328.16 337.18 330.15
  Q 336.78 330.41 336.30 330.37
  Q 335.61 330.31 335.44 331.02
  A 1.20 1.18 -10.0 0 1 334.93 331.74
  Q 334.04 332.31 333.94 333.66
  A 2.17 2.16 -3.3 0 1 332.18 335.63
  L 329.67 336.11
  Q 329.32 336.18 329.07 336.43
  L 328.84 336.66
  Q 328.43 337.07 327.85 337.17
  Q 325.50 337.58 324.09 339.14
  Q 322.60 340.77 320.66 341.52
  Q 319.72 341.88 319.02 342.58
  Q 318.30 343.29 317.53 343.94
  Q 317.18 344.23 316.81 343.96
  Q 316.60 343.81 316.45 344.02
  Q 316.38 344.12 316.27 344.17
  Q 314.10 345.27 312.67 347.24
  A 1.89 1.84 -83.0 0 1 311.91 347.85
  Q 309.76 348.75 307.83 350.05
  Q 306.12 351.19 304.70 351.63
  Q 303.30 352.06 301.76 352.39
  Q 300.90 352.58 301.77 352.70
  Q 301.94 352.72 302.09 352.78
  Q 302.52 352.95 302.48 353.41
  Q 302.42 354.28 301.55 354.11
  Q 301.31 354.07 301.16 354.28
  Q 301.13 354.33 301.12 354.39
  Q 301.10 354.67 301.40 354.79
  Q 303.48 355.62 302.58 356.77
  Q 241.37 356.68 180.26 356.52
  Q 166.11 356.48 160.25 355.65
  C 142.33 353.11 124.18 344.84 110.58 332.65
  Q 87.16 311.67 80.25 280.98
  Q 78.83 272.32 78.76 267.25
  Q 78.32 234.54 78.52 168.61
  Q 78.41 152.37 78.77 146.50
  Q 79.11 140.94 81.17 133.02
  Q 83.86 122.67 86.97 115.83
  Q 93.60 103.68 98.63 97.88
  Q 104.88 90.67 110.53 86.03
  Q 124.98 74.12 143.99 69.74
  Q 144.57 69.60 144.46 69.29
  Q 144.89 69.37 144.88 68.75
  Q 144.53 46.37 144.78 23.67
  Q 144.79 22.85 143.97 22.93
  Q 126.43 24.78 110.58 32.50
  Q 101.34 36.18 93.30 41.70
  Q 86.66 46.26 78.03 53.74
  Q 69.63 61.02 63.36 68.82
  C 53.71 80.83 45.98 93.50 40.89 107.97
  C 35.94 122.05 32.83 137.32 32.93 152.23
  L 33.23 255.18
  Q 32.44 257.76 32.89 260.25
  Q 32.97 260.66 32.75 261.03
  Q 32.52 261.40 32.57 261.87
  Q 32.64 262.60 32.14 262.07
  Q 31.94 261.86 32.05 261.57
  Q 32.21 261.16 31.89 261.47
  Q 31.77 261.58 31.73 261.79
  A 0.20 0.20 0.0 0 1 31.34 261.76
  Q 31.21 259.63 30.23 258.56
  Q 29.96 258.27 29.56 258.30
  Q 25.05 258.64 21.57 255.88
  Q 21.20 255.60 20.75 255.69
  Q 19.60 255.92 19.06 254.88
  Q 18.83 254.45 18.37 254.29
  L 6.72 250.36
  Q 6.34 250.23 6.08 249.94
  Q 4.29 247.89 1.82 248.99
  Q 1.42 249.17 1.35 249.60
  Q 1.25 250.15 0.78 250.47
  A 0.99 0.98 69.5 0 0 0.35 251.42
  Q 0.64 253.56 0.00 255.25
  L 0.00 0.00
  Z
  M 195.17 39.87
  L 199.69 54.44
  A 1.12 1.12 0.0 0 1 198.78 55.88
  C 193.56 56.65 188.58 58.80 183.85 61.00
  Q 168.67 68.08 160.25 82.89
  Q 155.99 90.91 153.83 99.72
  Q 153.48 101.14 152.68 101.69
  Q 144.64 107.22 135.98 113.52
  A 1.29 1.28 58.3 0 0 135.60 115.16
  L 154.10 150.09
  A 1.28 1.26 76.5 0 0 155.18 150.76
  Q 168.40 151.11 181.58 151.33
  C 189.98 151.48 196.63 152.35 204.00 154.56
  Q 218.72 158.96 231.21 167.24
  C 256.01 184.43 271.56 210.21 275.04 240.02
  Q 275.88 247.14 275.85 259.76
  Q 275.76 294.03 275.75 325.86
  Q 275.75 326.40 276.29 326.42
  Q 287.30 326.76 296.42 325.22
  C 314.80 322.12 334.52 312.40 348.40 298.93
  Q 372.78 275.26 380.71 242.23
  C 383.65 229.95 383.77 215.47 383.43 202.26
  L 383.45 146.24
  Q 383.45 145.75 382.96 145.75
  L 338.19 145.76
  A 0.64 0.63 -89.5 0 0 337.56 146.39
  L 337.52 209.06
  C 338.09 233.04 328.16 258.32 307.35 271.63
  A 0.39 0.39 0.0 0 1 306.75 271.30
  L 306.84 233.27
  Q 306.82 200.11 306.81 167.00
  Q 306.81 162.33 306.06 157.21
  Q 306.02 151.07 304.66 144.34
  Q 300.19 122.30 288.35 102.95
  Q 286.14 98.44 282.09 92.91
  Q 269.49 75.64 253.78 62.80
  Q 249.32 58.67 244.61 54.87
  Q 218.55 33.82 191.59 12.11
  C 189.68 10.56 188.42 8.81 186.79 7.08
  Q 184.95 5.10 185.71 7.70
  L 195.17 39.87
  Z
  M 337.70 81.06
  L 337.52 112.98
  A 0.51 0.51 0.0 0 0 338.03 113.50
  L 383.15 113.50
  A 0.32 0.31 0.0 0 0 383.47 113.19
  L 383.43 92.21
  L 383.21 23.51
  A 0.45 0.45 0.0 0 0 382.76 23.06
  L 337.75 23.05
  Q 337.47 23.05 337.47 23.33
  L 337.70 81.06
  Z
  M 245.71 299.63
  Q 245.97 259.77 245.66 249.00
  Q 245.31 236.22 238.61 222.03
  Q 233.80 211.66 224.82 202.43
  Q 214.53 191.86 201.45 186.84
  Q 188.49 181.87 176.71 182.56
  Q 152.81 182.36 134.10 196.59
  Q 119.05 208.03 112.01 225.71
  Q 101.46 252.18 111.15 278.28
  C 116.21 291.92 125.04 302.64 136.85 311.85
  Q 142.66 316.38 149.65 319.36
  C 159.22 323.44 169.43 326.48 179.75 326.50
  Q 212.11 326.57 245.37 326.48
  A 0.42 0.42 0.0 0 0 245.79 326.06
  L 245.71 299.63
  Z"
/>
<path fill="#283d48" d="
  M 253.78 62.80
  Q 252.73 63.00 251.60 63.08
  Q 250.64 63.15 249.54 62.64
  Q 247.63 61.76 245.54 61.40
  C 244.08 61.15 242.89 60.35 241.50 60.27
  Q 232.74 59.77 224.07 60.13
  Q 223.58 60.15 223.29 60.54
  Q 222.72 61.31 221.71 61.16
  Q 217.46 60.54 213.45 60.05
  Q 212.95 59.98 212.50 59.75
  Q 211.95 59.46 211.37 59.47
  Q 210.73 59.47 210.12 59.38
  Q 208.25 59.07 206.53 58.92
  C 204.64 58.76 203.53 57.64 201.84 57.08
  Q 201.24 56.87 201.30 56.25
  Q 201.56 53.49 200.16 51.72
  Q 199.77 51.23 199.90 50.61
  Q 200.04 49.97 199.42 49.84
  A 0.71 0.70 -78.3 0 1 198.87 49.00
  Q 199.24 47.35 198.08 46.23
  Q 197.68 45.86 197.64 45.32
  Q 197.48 43.28 196.83 41.22
  Q 196.67 40.71 196.28 40.31
  Q 195.32 39.35 195.17 39.87
  L 185.71 7.70
  Q 184.95 5.10 186.79 7.08
  C 188.42 8.81 189.68 10.56 191.59 12.11
  Q 218.55 33.82 244.61 54.87
  Q 249.32 58.67 253.78 62.80
  Z"
/>
<path fill="#283d48" d="
  M 144.46 69.29
  L 144.45 68.79
  Q 144.45 68.22 143.97 68.53
  Q 143.19 69.04 142.19 69.18
  Q 139.78 69.49 137.44 69.88
  Q 135.33 70.23 132.68 71.36
  Q 128.51 73.13 124.18 74.88
  Q 123.84 75.02 123.66 75.35
  Q 123.39 75.82 122.83 75.67
  A 1.09 1.00 -43.6 0 0 122.28 75.68
  L 117.88 77.04
  Q 117.38 77.20 117.48 76.68
  L 117.85 74.66
  Q 117.90 74.34 117.61 74.19
  Q 117.46 74.11 117.27 74.11
  Q 116.73 74.13 116.33 73.76
  Q 114.96 72.53 113.30 71.80
  A 2.06 2.03 -5.5 0 1 112.44 71.10
  Q 111.50 69.73 110.12 68.59
  Q 109.83 68.35 109.49 68.34
  Q 109.20 68.34 108.97 68.14
  L 97.27 57.74
  Q 96.82 57.34 96.22 57.26
  Q 95.61 57.17 95.19 56.71
  Q 94.88 56.39 94.46 56.26
  Q 92.98 55.78 91.45 55.20
  Q 90.07 54.67 89.00 53.65
  Q 87.75 52.46 86.43 51.36
  A 1.64 1.63 60.3 0 1 87.21 48.49
  Q 88.75 48.24 88.73 46.74
  L 110.58 32.50
  Q 126.43 24.78 143.97 22.93
  Q 144.79 22.85 144.78 23.67
  Q 144.53 46.37 144.88 68.75
  Q 144.89 69.37 144.46 69.29
  Z"
/>
<path fill="#1a333d" d="
  M 383.43 92.21
  L 383.26 86.97
  Q 383.23 86.01 382.77 86.85
  Q 382.26 87.76 382.35 88.77
  Q 382.37 88.95 382.24 89.07
  Q 382.12 89.17 382.14 89.31
  Q 382.24 89.99 382.07 89.20
  Q 381.76 87.75 381.31 86.30
  Q 381.15 85.82 380.65 85.81
  Q 378.80 85.79 377.62 84.53
  Q 377.23 84.10 376.65 84.03
  Q 376.01 83.94 375.77 83.36
  Q 375.58 82.89 375.07 82.91
  Q 374.08 82.95 373.35 82.05
  Q 372.97 81.59 372.39 81.45
  Q 366.87 80.18 361.26 80.38
  Q 360.76 80.40 360.31 80.20
  Q 359.97 80.06 359.62 80.14
  Q 357.75 80.58 355.87 80.51
  Q 354.03 80.43 352.10 80.74
  Q 349.98 81.08 347.74 81.44
  Q 347.22 81.53 346.75 81.30
  Q 345.99 80.92 345.20 81.20
  Q 342.59 82.10 340.12 80.99
  Q 339.66 80.78 339.36 80.39
  L 338.54 79.32
  Q 338.22 78.90 338.19 79.43
  Q 338.12 80.51 337.70 81.06
  L 337.47 23.33
  Q 337.47 23.05 337.75 23.05
  L 382.76 23.06
  A 0.45 0.45 0.0 0 1 383.21 23.51
  L 383.43 92.21
  Z"
/>
<path fill="#0e2931" d="
  M 110.58 32.50
  L 88.73 46.74
  Q 81.43 53.19 74.23 59.70
  Q 72.50 61.27 71.19 63.10
  Q 69.82 65.03 68.18 66.58
  Q 67.76 66.98 67.61 67.53
  Q 67.47 68.04 67.00 68.25
  Q 66.24 68.60 66.03 69.47
  Q 65.92 69.91 66.38 69.87
  Q 67.32 69.79 67.68 70.62
  A 0.85 0.84 -11.6 0 0 68.46 71.13
  Q 71.08 71.15 71.71 73.25
  Q 71.84 73.71 72.20 74.03
  Q 73.37 75.04 73.99 76.50
  Q 74.43 76.66 74.23 77.07
  Q 74.04 77.45 74.33 77.75
  C 75.21 78.66 76.34 79.26 76.85 80.45
  Q 77.34 81.61 78.46 82.44
  Q 79.35 83.10 80.06 84.21
  Q 83.64 89.85 84.37 92.00
  Q 85.24 94.58 86.58 95.84
  Q 87.08 96.32 87.31 96.76
  Q 87.59 97.28 87.88 97.80
  Q 88.12 98.24 88.11 98.74
  Q 88.06 100.96 89.74 102.24
  Q 89.97 102.42 89.70 102.54
  Q 89.62 102.57 89.59 102.65
  Q 89.46 103.00 89.58 103.36
  Q 90.38 105.71 89.30 107.37
  Q 89.06 107.74 89.27 108.13
  Q 89.58 108.70 89.26 109.25
  Q 87.40 112.49 86.97 115.83
  Q 83.86 122.67 81.17 133.02
  Q 79.11 140.94 78.77 146.50
  Q 78.41 152.37 78.52 168.61
  Q 77.12 179.84 77.25 191.09
  Q 77.25 191.14 77.20 191.17
  Q 77.14 191.21 77.13 191.14
  Q 77.12 191.08 77.12 191.02
  C 77.09 189.60 77.69 187.38 75.61 187.00
  Q 75.08 186.91 74.77 186.48
  Q 74.54 186.15 74.70 185.83
  Q 74.99 185.23 74.48 184.81
  L 72.73 183.38
  Q 72.53 183.21 72.59 182.96
  Q 72.63 182.82 72.59 182.69
  Q 72.40 182.12 71.83 181.81
  Q 69.83 180.72 69.66 178.69
  A 1.41 1.39 -84.9 0 0 68.65 177.47
  Q 67.42 177.12 67.19 175.76
  Q 67.08 175.08 66.56 174.62
  Q 64.23 172.61 61.91 170.59
  Q 61.42 170.16 60.01 170.10
  Q 59.52 170.08 59.15 169.73
  Q 57.34 168.01 55.62 166.08
  C 54.79 165.15 53.61 164.46 52.53 163.85
  Q 52.16 163.64 51.94 163.27
  Q 51.36 162.28 50.18 162.15
  Q 49.71 162.10 49.52 161.66
  Q 49.35 161.27 48.93 161.36
  Q 48.52 161.44 48.17 161.21
  Q 46.42 160.04 45.12 158.49
  Q 44.00 157.16 42.47 156.30
  Q 38.60 154.12 34.53 153.25
  Q 33.89 153.12 34.10 152.50
  Q 34.37 151.71 34.13 150.95
  Q 34.00 150.55 33.89 150.95
  Q 33.49 152.40 32.93 152.23
  C 32.83 137.32 35.94 122.05 40.89 107.97
  C 45.98 93.50 53.71 80.83 63.36 68.82
  Q 69.63 61.02 78.03 53.74
  Q 86.66 46.26 93.30 41.70
  Q 101.34 36.18 110.58 32.50
  Z"
/>
<path fill="#1a333d" d="
  M 253.78 62.80
  Q 269.49 75.64 282.09 92.91
  Q 286.14 98.44 288.35 102.95
  Q 287.81 103.19 288.63 105.17
  Q 291.07 111.08 293.33 114.87
  C 293.78 115.61 293.59 116.24 293.67 117.06
  A 0.35 0.34 15.3 0 1 293.12 117.37
  C 290.94 115.79 290.63 113.73 289.43 111.54
  Q 288.56 109.95 287.88 108.23
  Q 287.64 107.64 287.15 107.25
  Q 286.77 106.94 286.62 106.47
  Q 285.65 103.30 283.18 101.10
  Q 282.81 100.78 282.65 100.32
  L 282.27 99.24
  Q 281.94 98.29 281.45 99.31
  Q 281.33 99.58 281.04 99.65
  Q 280.42 99.80 280.06 99.27
  Q 279.83 98.93 279.62 99.40
  Q 279.31 100.08 278.73 99.62
  L 276.81 98.11
  Q 276.43 97.81 275.94 97.75
  L 272.60 97.34
  Q 272.09 97.28 271.68 96.97
  L 271.01 96.47
  Q 270.58 96.15 270.04 96.12
  Q 268.21 96.03 266.37 95.94
  Q 265.56 95.91 262.65 95.53
  Q 260.77 95.28 258.86 95.47
  Q 257.26 95.62 255.60 95.37
  Q 252.03 94.82 248.49 95.13
  Q 247.96 95.18 247.56 94.84
  Q 246.93 94.31 246.21 94.55
  Q 245.72 94.71 245.20 94.65
  Q 237.31 93.64 228.32 93.91
  Q 225.66 93.99 217.27 93.32
  Q 215.47 93.18 213.75 93.15
  Q 212.04 93.11 210.30 92.71
  Q 207.63 92.09 205.72 94.31
  A 1.48 1.48 0.0 0 1 203.17 93.74
  Q 202.86 92.61 203.83 91.79
  Q 204.13 91.54 204.15 91.14
  Q 204.25 89.41 205.59 88.08
  Q 205.91 87.78 205.88 87.36
  Q 205.84 86.89 205.26 86.63
  Q 205.65 86.00 205.17 85.70
  Q 206.41 83.53 201.65 82.26
  Q 197.97 81.28 193.31 80.93
  Q 190.01 80.69 186.94 81.74
  Q 183.18 83.03 180.52 84.74
  Q 178.19 86.24 175.74 88.89
  Q 173.63 91.16 172.74 94.07
  Q 171.77 97.26 170.82 100.42
  Q 170.69 100.89 170.29 101.16
  Q 169.86 101.45 169.49 101.83
  Q 169.03 102.32 168.74 101.71
  Q 168.65 101.54 168.50 101.72
  Q 168.19 102.06 167.81 101.80
  Q 167.26 101.41 167.41 100.89
  Q 167.46 100.72 167.64 100.75
  Q 167.69 100.76 167.74 100.78
  Q 168.34 101.19 168.03 100.53
  Q 167.33 99.06 167.08 97.58
  A 0.83 0.81 3.5 0 0 166.48 96.92
  Q 165.96 96.78 165.82 96.21
  Q 165.68 95.64 166.28 95.64
  L 166.73 95.64
  Q 167.60 95.64 167.07 94.95
  Q 166.52 94.24 165.78 94.54
  A 3.39 3.19 -38.1 0 1 162.69 94.26
  Q 162.02 93.80 161.14 93.67
  Q 160.71 93.61 160.41 93.93
  Q 160.05 94.31 159.59 94.04
  Q 159.48 93.98 159.41 93.89
  Q 159.32 93.74 159.38 93.58
  Q 159.59 93.07 159.05 93.17
  Q 158.77 93.23 158.55 93.10
  Q 158.15 92.88 158.13 92.42
  L 158.10 90.97
  Q 160.40 86.75 160.87 85.00
  Q 161.39 83.08 160.25 82.89
  Q 168.67 68.08 183.85 61.00
  C 188.58 58.80 193.56 56.65 198.78 55.88
  A 1.12 1.12 0.0 0 0 199.69 54.44
  L 195.17 39.87
  Q 195.32 39.35 196.28 40.31
  Q 196.67 40.71 196.83 41.22
  Q 197.48 43.28 197.64 45.32
  Q 197.68 45.86 198.08 46.23
  Q 199.24 47.35 198.87 49.00
  A 0.71 0.70 -78.3 0 0 199.42 49.84
  Q 200.04 49.97 199.90 50.61
  Q 199.77 51.23 200.16 51.72
  Q 201.56 53.49 201.30 56.25
  Q 201.24 56.87 201.84 57.08
  C 203.53 57.64 204.64 58.76 206.53 58.92
  Q 208.25 59.07 210.12 59.38
  Q 210.73 59.47 211.37 59.47
  Q 211.95 59.46 212.50 59.75
  Q 212.95 59.98 213.45 60.05
  Q 217.46 60.54 221.71 61.16
  Q 222.72 61.31 223.29 60.54
  Q 223.58 60.15 224.07 60.13
  Q 232.74 59.77 241.50 60.27
  C 242.89 60.35 244.08 61.15 245.54 61.40
  Q 247.63 61.76 249.54 62.64
  Q 250.64 63.15 251.60 63.08
  Q 252.73 63.00 253.78 62.80
  Z"
/>
<path fill="#1a333d" d="
  M 88.73 46.74
  Q 88.75 48.24 87.21 48.49
  A 1.64 1.63 60.3 0 0 86.43 51.36
  Q 87.75 52.46 89.00 53.65
  Q 90.07 54.67 91.45 55.20
  Q 92.98 55.78 94.46 56.26
  Q 94.88 56.39 95.19 56.71
  Q 95.61 57.17 96.22 57.26
  Q 96.82 57.34 97.27 57.74
  L 108.97 68.14
  Q 109.20 68.34 109.49 68.34
  Q 109.83 68.35 110.12 68.59
  Q 111.50 69.73 112.44 71.10
  A 2.06 2.03 -5.5 0 0 113.30 71.80
  Q 114.96 72.53 116.33 73.76
  Q 116.73 74.13 117.27 74.11
  Q 117.46 74.11 117.61 74.19
  Q 117.90 74.34 117.85 74.66
  L 117.48 76.68
  Q 117.38 77.20 117.88 77.04
  L 122.28 75.68
  A 1.09 1.00 -43.6 0 1 122.83 75.67
  Q 123.39 75.82 123.66 75.35
  Q 123.84 75.02 124.18 74.88
  Q 128.51 73.13 132.68 71.36
  Q 135.33 70.23 137.44 69.88
  Q 139.78 69.49 142.19 69.18
  Q 143.19 69.04 143.97 68.53
  Q 144.45 68.22 144.45 68.79
  L 144.46 69.29
  Q 144.57 69.60 143.99 69.74
  Q 124.98 74.12 110.53 86.03
  Q 104.88 90.67 98.63 97.88
  Q 93.60 103.68 86.97 115.83
  Q 87.40 112.49 89.26 109.25
  Q 89.58 108.70 89.27 108.13
  Q 89.06 107.74 89.30 107.37
  Q 90.38 105.71 89.58 103.36
  Q 89.46 103.00 89.59 102.65
  Q 89.62 102.57 89.70 102.54
  Q 89.97 102.42 89.74 102.24
  Q 88.06 100.96 88.11 98.74
  Q 88.12 98.24 87.88 97.80
  Q 87.59 97.28 87.31 96.76
  Q 87.08 96.32 86.58 95.84
  Q 85.24 94.58 84.37 92.00
  Q 83.64 89.85 80.06 84.21
  Q 79.35 83.10 78.46 82.44
  Q 77.34 81.61 76.85 80.45
  C 76.34 79.26 75.21 78.66 74.33 77.75
  Q 74.04 77.45 74.23 77.07
  Q 74.43 76.66 73.99 76.50
  Q 73.37 75.04 72.20 74.03
  Q 71.84 73.71 71.71 73.25
  Q 71.08 71.15 68.46 71.13
  A 0.85 0.84 -11.6 0 1 67.68 70.62
  Q 67.32 69.79 66.38 69.87
  Q 65.92 69.91 66.03 69.47
  Q 66.24 68.60 67.00 68.25
  Q 67.47 68.04 67.61 67.53
  Q 67.76 66.98 68.18 66.58
  Q 69.82 65.03 71.19 63.10
  Q 72.50 61.27 74.23 59.70
  Q 81.43 53.19 88.73 46.74
  Z"
/>
<path fill="#0e2931" d="
  M 383.43 92.21
  L 383.47 113.19
  A 0.32 0.31 -0.0 0 1 383.15 113.50
  L 338.03 113.50
  A 0.51 0.51 0.0 0 1 337.52 112.98
  L 337.70 81.06
  Q 338.12 80.51 338.19 79.43
  Q 338.22 78.90 338.54 79.32
  L 339.36 80.39
  Q 339.66 80.78 340.12 80.99
  Q 342.59 82.10 345.20 81.20
  Q 345.99 80.92 346.75 81.30
  Q 347.22 81.53 347.74 81.44
  Q 349.98 81.08 352.10 80.74
  Q 354.03 80.43 355.87 80.51
  Q 357.75 80.58 359.62 80.14
  Q 359.97 80.06 360.31 80.20
  Q 360.76 80.40 361.26 80.38
  Q 366.87 80.18 372.39 81.45
  Q 372.97 81.59 373.35 82.05
  Q 374.08 82.95 375.07 82.91
  Q 375.58 82.89 375.77 83.36
  Q 376.01 83.94 376.65 84.03
  Q 377.23 84.10 377.62 84.53
  Q 378.80 85.79 380.65 85.81
  Q 381.15 85.82 381.31 86.30
  Q 381.76 87.75 382.07 89.20
  Q 382.24 89.99 382.14 89.31
  Q 382.12 89.17 382.24 89.07
  Q 382.37 88.95 382.35 88.77
  Q 382.26 87.76 382.77 86.85
  Q 383.23 86.01 383.26 86.97
  L 383.43 92.21
  Z"
/>
<path fill="#0e2931" d="
  M 205.17 85.70
  C 194.61 80.26 182.93 81.28 175.83 91.20
  Q 174.10 93.61 172.76 98.37
  Q 171.74 101.99 170.13 105.77
  A 0.72 0.72 0.0 0 0 170.85 106.77
  Q 175.96 106.38 181.18 106.67
  C 188.85 107.10 196.22 101.13 200.09 94.88
  Q 202.13 91.59 203.90 87.95
  Q 204.14 87.44 205.26 86.63
  Q 205.84 86.89 205.88 87.36
  Q 205.91 87.78 205.59 88.08
  Q 204.25 89.41 204.15 91.14
  Q 204.13 91.54 203.83 91.79
  Q 202.86 92.61 203.17 93.74
  A 1.48 1.48 0.0 0 0 205.72 94.31
  Q 207.63 92.09 210.30 92.71
  Q 212.04 93.11 213.75 93.15
  Q 215.47 93.18 217.27 93.32
  Q 225.66 93.99 228.32 93.91
  Q 237.31 93.64 245.20 94.65
  Q 245.72 94.71 246.21 94.55
  Q 246.93 94.31 247.56 94.84
  Q 247.96 95.18 248.49 95.13
  Q 252.03 94.82 255.60 95.37
  Q 257.26 95.62 258.86 95.47
  Q 260.77 95.28 262.65 95.53
  Q 265.56 95.91 266.37 95.94
  Q 268.21 96.03 270.04 96.12
  Q 270.58 96.15 271.01 96.47
  L 271.68 96.97
  Q 272.09 97.28 272.60 97.34
  L 275.94 97.75
  Q 276.43 97.81 276.81 98.11
  L 278.73 99.62
  Q 279.31 100.08 279.62 99.40
  Q 279.83 98.93 280.06 99.27
  Q 280.42 99.80 281.04 99.65
  Q 281.33 99.58 281.45 99.31
  Q 281.94 98.29 282.27 99.24
  L 282.65 100.32
  Q 282.81 100.78 283.18 101.10
  Q 285.65 103.30 286.62 106.47
  Q 286.77 106.94 287.15 107.25
  Q 287.64 107.64 287.88 108.23
  Q 288.56 109.95 289.43 111.54
  C 290.63 113.73 290.94 115.79 293.12 117.37
  A 0.35 0.34 15.3 0 0 293.67 117.06
  C 293.59 116.24 293.78 115.61 293.33 114.87
  Q 291.07 111.08 288.63 105.17
  Q 287.81 103.19 288.35 102.95
  Q 300.19 122.30 304.66 144.34
  Q 306.02 151.07 306.06 157.21
  Q 305.03 163.72 305.19 170.19
  Q 305.20 170.48 304.97 170.31
  Q 304.77 170.16 304.65 170.37
  A 0.08 0.08 0.0 0 1 304.50 170.36
  Q 304.09 169.13 304.12 167.93
  Q 304.13 167.75 304.05 167.60
  Q 303.99 167.46 303.83 167.45
  Q 303.44 167.43 303.43 167.04
  Q 303.39 163.77 302.99 160.99
  Q 302.85 160.09 303.62 159.66
  Q 303.99 159.45 304.12 159.04
  Q 304.52 157.79 303.58 156.99
  Q 303.16 156.63 303.22 156.07
  Q 303.66 152.26 300.75 149.02
  A 1.14 1.14 0.0 0 1 300.44 148.19
  Q 300.47 147.23 299.58 146.37
  Q 299.27 146.08 298.86 146.04
  Q 297.47 145.93 296.48 144.81
  Q 294.35 142.42 291.64 142.98
  Q 291.20 143.07 290.77 142.94
  L 288.37 142.22
  Q 288.04 142.11 287.81 141.84
  Q 287.46 141.41 286.89 141.74
  Q 286.64 141.88 286.46 141.66
  Q 285.85 140.94 284.92 140.92
  Q 284.23 140.91 283.55 140.70
  Q 281.80 140.16 280.01 139.71
  Q 278.36 139.29 276.39 139.35
  Q 273.52 139.43 270.61 139.45
  Q 267.97 139.46 265.41 138.57
  Q 262.16 137.45 258.68 137.10
  C 257.29 136.96 256.22 135.60 254.64 135.40
  Q 250.31 134.83 245.75 135.09
  Q 243.57 135.21 241.41 134.44
  Q 239.84 133.88 237.94 133.97
  Q 235.76 134.07 233.74 133.73
  Q 232.22 133.48 230.58 133.32
  Q 229.03 133.18 227.42 133.12
  Q 225.97 133.07 223.85 132.67
  Q 222.64 132.44 218.79 132.39
  Q 216.16 132.35 213.77 131.85
  Q 211.74 131.43 209.75 131.36
  Q 207.73 131.28 205.76 131.01
  Q 202.51 130.56 199.39 130.26
  Q 197.91 130.13 196.40 129.72
  Q 194.76 129.29 193.34 129.42
  Q 191.04 129.64 188.90 129.13
  Q 186.22 128.49 183.48 127.93
  Q 180.76 127.37 177.96 127.18
  Q 172.74 126.82 167.59 126.03
  Q 166.46 125.86 165.42 125.95
  Q 164.21 126.05 162.96 126.09
  Q 161.32 126.15 159.88 126.94
  Q 158.70 127.59 157.11 127.43
  Q 155.34 127.24 153.48 127.71
  Q 151.88 128.11 150.29 128.10
  Q 149.81 128.09 149.42 128.36
  L 148.32 129.12
  Q 147.92 129.40 147.62 129.02
  Q 146.52 127.67 145.06 128.29
  Q 144.71 128.44 144.62 128.07
  Q 144.40 127.27 143.57 127.38
  Q 142.93 127.47 143.12 126.85
  Q 143.51 125.51 142.27 125.10
  Q 141.65 124.89 141.86 124.27
  Q 142.08 123.65 141.52 123.36
  Q 141.05 123.11 140.88 122.61
  Q 139.64 118.94 137.22 115.45
  Q 136.80 114.83 137.47 114.50
  C 138.24 114.12 138.61 113.35 139.44 112.84
  Q 140.96 111.93 142.30 110.84
  Q 143.67 109.72 145.20 108.92
  Q 149.64 106.58 153.89 102.61
  Q 155.24 101.35 155.37 100.51
  Q 156.12 95.58 158.10 90.97
  L 158.13 92.42
  Q 158.15 92.88 158.55 93.10
  Q 158.77 93.23 159.05 93.17
  Q 159.59 93.07 159.38 93.58
  Q 159.32 93.74 159.41 93.89
  Q 159.48 93.98 159.59 94.04
  Q 160.05 94.31 160.41 93.93
  Q 160.71 93.61 161.14 93.67
  Q 162.02 93.80 162.69 94.26
  A 3.39 3.19 -38.1 0 0 165.78 94.54
  Q 166.52 94.24 167.07 94.95
  Q 167.60 95.64 166.73 95.64
  L 166.28 95.64
  Q 165.68 95.64 165.82 96.21
  Q 165.96 96.78 166.48 96.92
  A 0.83 0.81 3.5 0 1 167.08 97.58
  Q 167.33 99.06 168.03 100.53
  Q 168.34 101.19 167.74 100.78
  Q 167.69 100.76 167.64 100.75
  Q 167.46 100.72 167.41 100.89
  Q 167.26 101.41 167.81 101.80
  Q 168.19 102.06 168.50 101.72
  Q 168.65 101.54 168.74 101.71
  Q 169.03 102.32 169.49 101.83
  Q 169.86 101.45 170.29 101.16
  Q 170.69 100.89 170.82 100.42
  Q 171.77 97.26 172.74 94.07
  Q 173.63 91.16 175.74 88.89
  Q 178.19 86.24 180.52 84.74
  Q 183.18 83.03 186.94 81.74
  Q 190.01 80.69 193.31 80.93
  Q 197.97 81.28 201.65 82.26
  Q 206.41 83.53 205.17 85.70
  Z"
/>
<path fill="#ffffff" d="
  M 205.17 85.70
  Q 205.65 86.00 205.26 86.63
  Q 204.14 87.44 203.90 87.95
  Q 202.13 91.59 200.09 94.88
  C 196.22 101.13 188.85 107.10 181.18 106.67
  Q 175.96 106.38 170.85 106.77
  A 0.72 0.72 0.0 0 1 170.13 105.77
  Q 171.74 101.99 172.76 98.37
  Q 174.10 93.61 175.83 91.20
  C 182.93 81.28 194.61 80.26 205.17 85.70
  Z"
/>
<path fill="#052128" d="
  M 160.25 82.89
  Q 161.39 83.08 160.87 85.00
  Q 160.40 86.75 158.10 90.97
  Q 156.12 95.58 155.37 100.51
  Q 155.24 101.35 153.89 102.61
  Q 149.64 106.58 145.20 108.92
  Q 143.67 109.72 142.30 110.84
  Q 140.96 111.93 139.44 112.84
  C 138.61 113.35 138.24 114.12 137.47 114.50
  Q 136.80 114.83 137.22 115.45
  Q 139.64 118.94 140.88 122.61
  Q 141.05 123.11 141.52 123.36
  Q 142.08 123.65 141.86 124.27
  Q 141.65 124.89 142.27 125.10
  Q 143.51 125.51 143.12 126.85
  Q 142.93 127.47 143.57 127.38
  Q 144.40 127.27 144.62 128.07
  Q 144.71 128.44 145.06 128.29
  Q 146.52 127.67 147.62 129.02
  Q 147.92 129.40 148.32 129.12
  L 149.42 128.36
  Q 149.81 128.09 150.29 128.10
  Q 151.88 128.11 153.48 127.71
  Q 155.34 127.24 157.11 127.43
  Q 158.70 127.59 159.88 126.94
  Q 161.32 126.15 162.96 126.09
  Q 164.21 126.05 165.42 125.95
  Q 166.46 125.86 167.59 126.03
  Q 172.74 126.82 177.96 127.18
  Q 180.76 127.37 183.48 127.93
  Q 186.22 128.49 188.90 129.13
  Q 191.04 129.64 193.34 129.42
  Q 194.76 129.29 196.40 129.72
  Q 197.91 130.13 199.39 130.26
  Q 202.51 130.56 205.76 131.01
  Q 207.73 131.28 209.75 131.36
  Q 211.74 131.43 213.77 131.85
  Q 216.16 132.35 218.79 132.39
  Q 222.64 132.44 223.85 132.67
  Q 225.97 133.07 227.42 133.12
  Q 229.03 133.18 230.58 133.32
  Q 232.22 133.48 233.74 133.73
  Q 235.76 134.07 237.94 133.97
  Q 239.84 133.88 241.41 134.44
  Q 243.57 135.21 245.75 135.09
  Q 250.31 134.83 254.64 135.40
  C 256.22 135.60 257.29 136.96 258.68 137.10
  Q 262.16 137.45 265.41 138.57
  Q 267.97 139.46 270.61 139.45
  Q 273.52 139.43 276.39 139.35
  Q 278.36 139.29 280.01 139.71
  Q 281.80 140.16 283.55 140.70
  Q 284.23 140.91 284.92 140.92
  Q 285.85 140.94 286.46 141.66
  Q 286.64 141.88 286.89 141.74
  Q 287.46 141.41 287.81 141.84
  Q 288.04 142.11 288.37 142.22
  L 290.77 142.94
  Q 291.20 143.07 291.64 142.98
  Q 294.35 142.42 296.48 144.81
  Q 297.47 145.93 298.86 146.04
  Q 299.27 146.08 299.58 146.37
  Q 300.47 147.23 300.44 148.19
  A 1.14 1.14 0.0 0 0 300.75 149.02
  Q 303.66 152.26 303.22 156.07
  Q 303.16 156.63 303.58 156.99
  Q 304.52 157.79 304.12 159.04
  Q 303.99 159.45 303.62 159.66
  Q 302.85 160.09 302.99 160.99
  Q 303.39 163.77 303.43 167.04
  Q 303.44 167.43 303.83 167.45
  Q 303.99 167.46 304.05 167.60
  Q 304.13 167.75 304.12 167.93
  Q 304.09 169.13 304.50 170.36
  A 0.08 0.08 0.0 0 0 304.65 170.37
  Q 304.77 170.16 304.97 170.31
  Q 305.20 170.48 305.19 170.19
  Q 305.03 163.72 306.06 157.21
  Q 306.81 162.33 306.81 167.00
  Q 306.82 200.11 306.84 233.27
  Q 305.36 235.24 305.65 230.83
  Q 305.69 230.27 305.14 230.15
  L 304.75 230.06
  Q 303.80 229.84 304.54 229.20
  Q 305.03 228.78 304.81 228.15
  Q 304.68 227.80 304.31 227.71
  Q 304.06 227.65 304.10 227.39
  Q 304.12 227.25 304.10 227.10
  Q 303.82 225.41 303.33 223.68
  Q 303.18 223.14 302.62 223.14
  L 302.32 223.14
  Q 301.93 223.14 301.80 222.77
  Q 301.06 220.60 301.00 218.57
  Q 300.95 217.27 300.31 216.11
  Q 299.12 213.99 298.18 211.78
  Q 298.06 211.49 298.23 211.22
  L 298.38 210.99
  Q 298.48 210.82 298.35 210.68
  L 295.73 207.77
  Q 295.42 207.42 295.34 206.96
  Q 295.17 205.96 294.42 205.34
  A 1.38 1.36 14.9 0 1 293.94 204.53
  Q 293.60 202.57 291.92 201.59
  Q 291.46 201.33 291.28 200.84
  Q 290.76 199.40 290.07 197.90
  Q 289.68 197.07 288.77 196.59
  Q 287.73 196.04 286.80 195.45
  Q 285.40 194.56 284.89 192.98
  Q 284.74 192.51 284.32 192.25
  Q 280.18 189.71 275.50 186.92
  Q 273.75 185.88 270.92 182.49
  Q 269.73 181.06 267.88 180.10
  Q 265.94 179.09 264.18 178.96
  Q 261.95 178.79 260.35 177.27
  Q 259.98 176.92 259.50 176.76
  Q 256.06 175.57 255.17 174.95
  Q 252.85 173.31 251.40 173.18
  Q 251.30 173.17 251.22 173.24
  Q 251.02 173.44 250.88 173.19
  Q 250.57 172.63 250.12 173.09
  Q 249.35 173.88 248.15 173.88
  A 0.94 0.93 73.9 0 1 247.33 173.42
  Q 247.07 172.99 246.59 172.88
  A 0.62 0.62 0.0 0 1 246.11 172.29
  L 246.11 171.76
  Q 246.10 171.28 245.62 171.19
  Q 244.67 171.00 244.10 170.13
  Q 243.73 169.56 243.08 169.24
  Q 242.62 169.01 242.29 169.39
  Q 241.99 169.72 241.60 169.51
  Q 240.66 169.01 239.90 169.76
  Q 239.66 170.00 239.43 169.75
  Q 238.88 169.18 238.11 169.50
  Q 237.79 169.64 237.59 169.36
  Q 236.66 168.08 235.00 167.70
  Q 234.65 167.62 234.38 167.40
  Q 229.67 163.69 231.21 167.24
  Q 218.72 158.96 204.00 154.56
  C 196.63 152.35 189.98 151.48 181.58 151.33
  Q 168.40 151.11 155.18 150.76
  A 1.28 1.26 76.5 0 1 154.10 150.09
  L 135.60 115.16
  A 1.29 1.28 58.3 0 1 135.98 113.52
  Q 144.64 107.22 152.68 101.69
  Q 153.48 101.14 153.83 99.72
  Q 155.99 90.91 160.25 82.89
  Z"
/>
<path fill="#052128" d="
  M 383.43 202.26
  Q 382.89 208.47 383.04 214.75
  Q 383.04 214.90 382.86 214.91
  Q 382.74 214.92 382.74 214.80
  Q 382.60 212.47 382.65 210.45
  Q 382.65 210.30 382.51 210.25
  Q 382.46 210.23 382.41 210.27
  Q 382.09 210.55 382.10 210.13
  Q 382.14 208.01 381.95 205.88
  Q 381.92 205.57 381.75 205.32
  Q 381.67 205.20 381.64 205.05
  Q 381.57 204.65 381.61 205.06
  Q 381.62 205.19 381.54 205.31
  Q 381.41 205.51 381.26 205.31
  Q 380.29 204.04 379.79 202.55
  Q 379.63 202.07 379.13 202.11
  Q 378.13 202.18 377.62 202.89
  Q 377.32 203.30 376.82 203.37
  Q 375.75 203.51 375.50 202.53
  Q 375.45 202.31 375.29 202.47
  Q 374.49 203.29 373.56 202.18
  Q 373.46 202.06 373.57 201.96
  L 373.77 201.75
  Q 373.98 201.55 373.88 201.27
  L 373.03 198.78
  A 2.54 2.53 -7.7 0 0 370.80 197.08
  C 369.75 197.01 367.87 197.14 367.02 197.92
  Q 366.61 198.30 366.03 198.19
  Q 365.50 198.08 365.04 198.35
  Q 362.63 199.76 360.05 200.38
  Q 359.46 200.52 359.03 200.94
  Q 357.35 202.55 355.43 202.94
  Q 353.23 203.39 351.26 203.43
  Q 348.29 203.48 340.45 203.20
  Q 339.91 203.18 339.80 203.71
  Q 339.59 204.76 339.72 205.82
  Q 339.73 205.89 339.67 205.90
  Q 339.61 205.91 339.56 205.87
  Q 339.51 205.83 339.51 205.76
  Q 339.59 204.55 339.18 203.63
  Q 338.54 202.21 338.31 203.75
  L 337.52 209.06
  L 337.56 146.39
  A 0.64 0.63 -89.5 0 1 338.19 145.76
  L 382.96 145.75
  Q 383.45 145.75 383.45 146.24
  L 383.43 202.26
  Z"
/>
<path fill="#052128" d="
  M 78.52 168.61
  Q 78.32 234.54 78.76 267.25
  Q 78.83 272.32 80.25 280.98
  Q 79.03 281.26 79.04 282.27
  Q 79.04 282.62 78.78 282.86
  Q 78.59 283.04 78.59 283.30
  Q 78.56 284.43 78.21 283.35
  Q 78.07 282.90 77.62 282.67
  A 0.77 0.75 17.7 0 1 77.20 281.88
  Q 77.37 280.53 77.06 279.01
  A 0.50 0.50 0.0 0 0 76.24 278.74
  Q 75.75 279.18 75.88 279.80
  Q 75.89 279.86 75.83 279.87
  Q 75.68 279.92 75.52 279.88
  Q 75.20 279.80 75.40 279.55
  Q 76.18 278.56 76.11 277.48
  Q 76.08 277.08 75.75 277.31
  Q 75.48 277.50 75.68 277.80
  A 0.06 0.05 75.1 0 1 75.64 277.88
  L 75.29 277.88
  Q 74.94 277.88 74.92 277.54
  L 74.75 275.24
  Q 74.75 275.18 74.69 275.18
  L 74.42 275.20
  A 0.29 0.28 -90.0 0 0 74.15 275.48
  L 74.09 277.27
  A 0.66 0.66 0.0 0 1 73.42 277.91
  Q 72.05 277.89 71.86 276.41
  Q 71.84 276.25 71.78 276.10
  Q 71.74 275.96 71.60 275.95
  Q 70.80 275.91 71.22 275.23
  Q 71.69 274.47 71.02 273.94
  Q 70.84 273.79 70.69 273.97
  Q 70.60 274.08 70.56 274.21
  Q 70.33 275.07 70.36 274.18
  Q 70.37 274.05 70.39 273.91
  A 0.39 0.35 28.9 0 0 70.28 273.59
  Q 68.15 271.45 68.24 268.51
  Q 68.26 267.93 67.99 267.42
  Q 67.32 266.15 67.03 264.77
  Q 66.57 262.56 64.54 260.51
  Q 64.18 260.13 63.65 260.13
  L 62.80 260.13
  Q 62.43 260.13 62.35 259.76
  Q 62.20 259.07 61.53 258.82
  A 1.09 1.09 0.0 0 1 60.83 257.97
  Q 60.47 255.67 59.35 253.51
  A 1.37 1.36 -2.5 0 0 58.66 252.88
  L 56.25 251.83
  Q 55.78 251.63 55.65 251.14
  C 55.30 249.78 54.91 248.46 53.90 247.42
  Q 52.83 246.31 52.86 244.73
  Q 52.87 244.27 52.44 244.11
  Q 49.18 242.92 48.84 239.56
  Q 48.77 238.83 48.05 238.63
  Q 47.29 238.41 47.02 237.58
  A 1.22 1.21 6.7 0 0 46.51 236.94
  L 43.89 235.37
  Q 43.43 235.09 43.00 235.41
  Q 42.84 235.53 42.83 235.72
  Q 42.81 236.16 42.39 236.08
  L 39.53 235.54
  Q 39.15 235.47 38.78 235.57
  Q 38.09 235.74 37.82 234.94
  Q 37.67 234.51 37.23 234.40
  Q 37.05 234.35 36.88 234.41
  Q 36.73 234.46 36.72 234.61
  Q 36.71 234.78 36.86 234.81
  Q 37.31 234.89 37.08 235.28
  Q 36.84 235.71 36.35 235.85
  Q 36.07 235.92 36.04 236.22
  L 35.86 237.84
  Q 35.81 238.25 35.41 238.17
  Q 35.25 238.14 35.09 238.07
  Q 34.26 237.66 34.36 238.58
  Q 34.44 239.29 34.08 239.84
  Q 33.78 240.29 33.94 240.81
  C 34.51 242.64 33.71 244.26 33.69 246.08
  Q 33.65 249.02 33.63 251.69
  Q 33.62 253.47 33.86 257.29
  Q 34.22 262.88 33.51 268.49
  L 33.23 255.18
  L 32.93 152.23
  Q 33.49 152.40 33.89 150.95
  Q 34.00 150.55 34.13 150.95
  Q 34.37 151.71 34.10 152.50
  Q 33.89 153.12 34.53 153.25
  Q 38.60 154.12 42.47 156.30
  Q 44.00 157.16 45.12 158.49
  Q 46.42 160.04 48.17 161.21
  Q 48.52 161.44 48.93 161.36
  Q 49.35 161.27 49.52 161.66
  Q 49.71 162.10 50.18 162.15
  Q 51.36 162.28 51.94 163.27
  Q 52.16 163.64 52.53 163.85
  C 53.61 164.46 54.79 165.15 55.62 166.08
  Q 57.34 168.01 59.15 169.73
  Q 59.52 170.08 60.01 170.10
  Q 61.42 170.16 61.91 170.59
  Q 64.23 172.61 66.56 174.62
  Q 67.08 175.08 67.19 175.76
  Q 67.42 177.12 68.65 177.47
  A 1.41 1.39 -84.9 0 1 69.66 178.69
  Q 69.83 180.72 71.83 181.81
  Q 72.40 182.12 72.59 182.69
  Q 72.63 182.82 72.59 182.96
  Q 72.53 183.21 72.73 183.38
  L 74.48 184.81
  Q 74.99 185.23 74.70 185.83
  Q 74.54 186.15 74.77 186.48
  Q 75.08 186.91 75.61 187.00
  C 77.69 187.38 77.09 189.60 77.12 191.02
  Q 77.12 191.08 77.13 191.14
  Q 77.14 191.21 77.20 191.17
  Q 77.25 191.14 77.25 191.09
  Q 77.12 179.84 78.52 168.61
  Z"
/>
<path fill="#011b1d" d="
  M 306.84 233.27
  L 306.75 271.30
  A 0.39 0.39 0.0 0 0 307.35 271.63
  C 328.16 258.32 338.09 233.04 337.52 209.06
  L 338.31 203.75
  Q 338.54 202.21 339.18 203.63
  Q 339.59 204.55 339.51 205.76
  Q 339.51 205.83 339.56 205.87
  Q 339.61 205.91 339.67 205.90
  Q 339.73 205.89 339.72 205.82
  Q 339.59 204.76 339.80 203.71
  Q 339.91 203.18 340.45 203.20
  Q 348.29 203.48 351.26 203.43
  Q 353.23 203.39 355.43 202.94
  Q 357.35 202.55 359.03 200.94
  Q 359.46 200.52 360.05 200.38
  Q 362.63 199.76 365.04 198.35
  Q 365.50 198.08 366.03 198.19
  Q 366.61 198.30 367.02 197.92
  C 367.87 197.14 369.75 197.01 370.80 197.08
  A 2.54 2.53 -7.7 0 1 373.03 198.78
  L 373.88 201.27
  Q 373.98 201.55 373.77 201.75
  L 373.57 201.96
  Q 373.46 202.06 373.56 202.18
  Q 374.49 203.29 375.29 202.47
  Q 375.45 202.31 375.50 202.53
  Q 375.75 203.51 376.82 203.37
  Q 377.32 203.30 377.62 202.89
  Q 378.13 202.18 379.13 202.11
  Q 379.63 202.07 379.79 202.55
  Q 380.29 204.04 381.26 205.31
  Q 381.41 205.51 381.54 205.31
  Q 381.62 205.19 381.61 205.06
  Q 381.57 204.65 381.64 205.05
  Q 381.67 205.20 381.75 205.32
  Q 381.92 205.57 381.95 205.88
  Q 382.14 208.01 382.10 210.13
  Q 382.09 210.55 382.41 210.27
  Q 382.46 210.23 382.51 210.25
  Q 382.65 210.30 382.65 210.45
  Q 382.60 212.47 382.74 214.80
  Q 382.74 214.92 382.86 214.91
  Q 383.04 214.90 383.04 214.75
  Q 382.89 208.47 383.43 202.26
  C 383.77 215.47 383.65 229.95 380.71 242.23
  Q 372.78 275.26 348.40 298.93
  C 334.52 312.40 314.80 322.12 296.42 325.22
  Q 287.30 326.76 276.29 326.42
  Q 275.75 326.40 275.75 325.86
  Q 275.76 294.03 275.85 259.76
  Q 275.88 247.14 275.04 240.02
  C 271.56 210.21 256.01 184.43 231.21 167.24
  Q 229.67 163.69 234.38 167.40
  Q 234.65 167.62 235.00 167.70
  Q 236.66 168.08 237.59 169.36
  Q 237.79 169.64 238.11 169.50
  Q 238.88 169.18 239.43 169.75
  Q 239.66 170.00 239.90 169.76
  Q 240.66 169.01 241.60 169.51
  Q 241.99 169.72 242.29 169.39
  Q 242.62 169.01 243.08 169.24
  Q 243.73 169.56 244.10 170.13
  Q 244.67 171.00 245.62 171.19
  Q 246.10 171.28 246.11 171.76
  L 246.11 172.29
  A 0.62 0.62 0.0 0 0 246.59 172.88
  Q 247.07 172.99 247.33 173.42
  A 0.94 0.93 73.9 0 0 248.15 173.88
  Q 249.35 173.88 250.12 173.09
  Q 250.57 172.63 250.88 173.19
  Q 251.02 173.44 251.22 173.24
  Q 251.30 173.17 251.40 173.18
  Q 252.85 173.31 255.17 174.95
  Q 256.06 175.57 259.50 176.76
  Q 259.98 176.92 260.35 177.27
  Q 261.95 178.79 264.18 178.96
  Q 265.94 179.09 267.88 180.10
  Q 269.73 181.06 270.92 182.49
  Q 273.75 185.88 275.50 186.92
  Q 280.18 189.71 284.32 192.25
  Q 284.74 192.51 284.89 192.98
  Q 285.40 194.56 286.80 195.45
  Q 287.73 196.04 288.77 196.59
  Q 289.68 197.07 290.07 197.90
  Q 290.76 199.40 291.28 200.84
  Q 291.46 201.33 291.92 201.59
  Q 293.60 202.57 293.94 204.53
  A 1.38 1.36 14.9 0 0 294.42 205.34
  Q 295.17 205.96 295.34 206.96
  Q 295.42 207.42 295.73 207.77
  L 298.35 210.68
  Q 298.48 210.82 298.38 210.99
  L 298.23 211.22
  Q 298.06 211.49 298.18 211.78
  Q 299.12 213.99 300.31 216.11
  Q 300.95 217.27 301.00 218.57
  Q 301.06 220.60 301.80 222.77
  Q 301.93 223.14 302.32 223.14
  L 302.62 223.14
  Q 303.18 223.14 303.33 223.68
  Q 303.82 225.41 304.10 227.10
  Q 304.12 227.25 304.10 227.39
  Q 304.06 227.65 304.31 227.71
  Q 304.68 227.80 304.81 228.15
  Q 305.03 228.78 304.54 229.20
  Q 303.80 229.84 304.75 230.06
  L 305.14 230.15
  Q 305.69 230.27 305.65 230.83
  Q 305.36 235.24 306.84 233.27
  Z"
/>
<path fill="#011b1d" d="
  M 176.71 182.56
  Q 172.89 184.23 168.25 184.25
  Q 166.21 184.25 164.29 184.63
  Q 162.30 185.01 160.41 185.44
  Q 155.11 186.65 149.29 189.54
  Q 147.30 190.54 145.21 191.33
  Q 143.13 192.12 141.22 193.35
  C 139.24 194.63 137.06 195.77 135.27 197.34
  Q 134.07 198.39 132.69 199.42
  Q 131.86 200.04 131.36 200.92
  Q 130.67 202.14 129.54 202.99
  Q 128.28 203.94 127.30 205.24
  Q 125.02 208.28 122.52 211.06
  Q 120.00 213.41 118.39 216.34
  Q 117.35 218.25 116.55 219.63
  Q 115.18 222.01 114.89 223.01
  Q 113.31 228.53 111.75 234.04
  Q 110.69 237.79 110.31 241.53
  A 0.53 0.53 0.0 0 0 111.08 242.06
  Q 114.07 240.50 116.84 243.02
  Q 119.04 245.03 121.90 245.13
  Q 122.48 245.15 122.94 245.48
  C 124.26 246.41 125.22 247.25 126.82 247.78
  C 129.12 248.55 131.28 249.86 133.78 250.07
  Q 135.30 250.20 136.52 250.98
  Q 138.15 252.02 140.09 252.33
  C 141.26 252.52 141.93 253.48 143.24 253.73
  Q 144.89 254.03 146.30 254.86
  Q 146.99 255.27 147.75 255.09
  A 1.92 1.91 -40.3 0 1 148.88 255.18
  Q 150.77 255.95 152.72 256.74
  Q 154.08 257.28 155.82 257.53
  Q 157.49 257.77 159.10 258.47
  A 2.07 2.01 -35.1 0 0 160.11 258.63
  C 161.72 258.46 163.08 259.80 164.53 258.78
  A 1.25 1.24 -53.5 0 1 165.63 258.61
  L 169.66 259.94
  A 4.03 4.00 39.3 0 0 172.82 259.64
  Q 175.15 258.35 176.58 260.38
  Q 176.90 260.82 177.41 260.64
  Q 179.10 260.06 180.39 258.97
  A 1.07 1.07 0.0 0 1 181.13 258.72
  Q 183.18 258.83 184.92 259.85
  A 3.47 3.46 -42.0 0 0 188.13 260.01
  Q 189.94 259.18 191.42 260.20
  C 193.16 261.39 195.45 261.09 197.43 261.13
  C 199.62 261.17 202.07 261.94 204.56 261.77
  C 207.15 261.58 209.57 262.43 212.13 261.65
  Q 213.22 261.32 214.22 261.83
  Q 217.31 263.40 220.08 262.18
  Q 220.48 262.00 220.88 262.16
  Q 226.11 264.18 231.97 264.77
  Q 233.39 264.91 234.42 265.84
  Q 234.72 266.11 235.12 266.17
  Q 235.97 266.31 236.47 265.68
  Q 236.67 265.42 236.94 265.59
  Q 238.12 266.32 238.35 267.71
  Q 238.44 268.21 238.84 268.52
  Q 241.31 270.38 240.88 274.11
  Q 240.77 275.05 241.25 275.87
  A 1.50 1.46 32.9 0 1 241.44 276.70
  Q 241.40 277.19 241.20 277.63
  Q 240.97 278.12 241.01 278.65
  L 241.53 285.18
  Q 241.58 285.69 241.83 286.14
  Q 242.76 287.77 242.93 289.82
  Q 242.94 289.96 243.08 289.97
  Q 243.23 289.99 243.31 290.11
  Q 243.55 290.49 243.41 290.90
  Q 243.35 291.07 243.37 291.26
  Q 243.44 291.99 243.58 291.27
  Q 243.64 290.99 243.84 290.79
  Q 244.53 290.13 244.65 291.08
  L 245.71 299.63
  L 245.79 326.06
  A 0.42 0.42 0.0 0 1 245.37 326.48
  Q 212.11 326.57 179.75 326.50
  C 169.43 326.48 159.22 323.44 149.65 319.36
  Q 142.66 316.38 136.85 311.85
  C 125.04 302.64 116.21 291.92 111.15 278.28
  Q 101.46 252.18 112.01 225.71
  Q 119.05 208.03 134.10 196.59
  Q 152.81 182.36 176.71 182.56
  Z"
/>
<path fill="#0e2931" d="
  M 176.71 182.56
  Q 188.49 181.87 201.45 186.84
  Q 214.53 191.86 224.82 202.43
  Q 233.80 211.66 238.61 222.03
  Q 237.57 225.40 238.78 228.24
  Q 239.71 230.40 239.83 232.01
  A 2.02 1.89 -65.7 0 0 240.15 232.95
  Q 240.63 233.68 240.82 234.47
  Q 240.96 235.06 240.36 235.17
  Q 237.83 235.66 236.83 233.46
  Q 236.67 233.10 236.29 232.98
  Q 234.78 232.47 233.79 231.29
  Q 233.47 230.91 232.97 230.86
  Q 232.25 230.77 231.65 230.37
  A 1.29 1.25 57.8 0 0 230.78 230.16
  Q 227.14 230.64 226.00 230.50
  Q 220.99 229.92 216.00 230.65
  Q 214.54 230.86 210.50 230.13
  C 208.98 229.85 207.31 230.50 205.71 230.15
  Q 202.51 229.45 199.51 229.50
  Q 196.44 229.55 192.55 229.26
  Q 177.05 228.11 164.83 225.72
  Q 162.13 225.19 159.73 225.09
  C 157.39 225.00 155.03 224.62 152.81 223.85
  Q 149.68 222.78 146.43 222.00
  Q 143.07 221.18 140.23 219.75
  Q 137.76 218.49 135.16 217.87
  Q 132.23 217.17 129.84 216.16
  Q 126.21 214.63 122.65 213.18
  Q 122.16 212.99 122.26 212.47
  L 122.52 211.06
  Q 125.02 208.28 127.30 205.24
  Q 128.28 203.94 129.54 202.99
  Q 130.67 202.14 131.36 200.92
  Q 131.86 200.04 132.69 199.42
  Q 134.07 198.39 135.27 197.34
  C 137.06 195.77 139.24 194.63 141.22 193.35
  Q 143.13 192.12 145.21 191.33
  Q 147.30 190.54 149.29 189.54
  Q 155.11 186.65 160.41 185.44
  Q 162.30 185.01 164.29 184.63
  Q 166.21 184.25 168.25 184.25
  Q 172.89 184.23 176.71 182.56
  Z"
/>
<path fill="#052128" d="
  M 122.52 211.06
  L 122.26 212.47
  Q 122.16 212.99 122.65 213.18
  Q 126.21 214.63 129.84 216.16
  Q 132.23 217.17 135.16 217.87
  Q 137.76 218.49 140.23 219.75
  Q 143.07 221.18 146.43 222.00
  Q 149.68 222.78 152.81 223.85
  C 155.03 224.62 157.39 225.00 159.73 225.09
  Q 162.13 225.19 164.83 225.72
  Q 177.05 228.11 192.55 229.26
  Q 196.44 229.55 199.51 229.50
  Q 202.51 229.45 205.71 230.15
  C 207.31 230.50 208.98 229.85 210.50 230.13
  Q 214.54 230.86 216.00 230.65
  Q 220.99 229.92 226.00 230.50
  Q 227.14 230.64 230.78 230.16
  A 1.29 1.25 57.8 0 1 231.65 230.37
  Q 232.25 230.77 232.97 230.86
  Q 233.47 230.91 233.79 231.29
  Q 234.78 232.47 236.29 232.98
  Q 236.67 233.10 236.83 233.46
  Q 237.83 235.66 240.36 235.17
  Q 240.96 235.06 240.82 234.47
  Q 240.63 233.68 240.15 232.95
  A 2.02 1.89 -65.7 0 1 239.83 232.01
  Q 239.71 230.40 238.78 228.24
  Q 237.57 225.40 238.61 222.03
  Q 245.31 236.22 245.66 249.00
  Q 245.97 259.77 245.71 299.63
  L 244.65 291.08
  Q 244.53 290.13 243.84 290.79
  Q 243.64 290.99 243.58 291.27
  Q 243.44 291.99 243.37 291.26
  Q 243.35 291.07 243.41 290.90
  Q 243.55 290.49 243.31 290.11
  Q 243.23 289.99 243.08 289.97
  Q 242.94 289.96 242.93 289.82
  Q 242.76 287.77 241.83 286.14
  Q 241.58 285.69 241.53 285.18
  L 241.01 278.65
  Q 240.97 278.12 241.20 277.63
  Q 241.40 277.19 241.44 276.70
  A 1.50 1.46 32.9 0 0 241.25 275.87
  Q 240.77 275.05 240.88 274.11
  Q 241.31 270.38 238.84 268.52
  Q 238.44 268.21 238.35 267.71
  Q 238.12 266.32 236.94 265.59
  Q 236.67 265.42 236.47 265.68
  Q 235.97 266.31 235.12 266.17
  Q 234.72 266.11 234.42 265.84
  Q 233.39 264.91 231.97 264.77
  Q 226.11 264.18 220.88 262.16
  Q 220.48 262.00 220.08 262.18
  Q 217.31 263.40 214.22 261.83
  Q 213.22 261.32 212.13 261.65
  C 209.57 262.43 207.15 261.58 204.56 261.77
  C 202.07 261.94 199.62 261.17 197.43 261.13
  C 195.45 261.09 193.16 261.39 191.42 260.20
  Q 189.94 259.18 188.13 260.01
  A 3.47 3.46 -42.0 0 1 184.92 259.85
  Q 183.18 258.83 181.13 258.72
  A 1.07 1.07 0.0 0 0 180.39 258.97
  Q 179.10 260.06 177.41 260.64
  Q 176.90 260.82 176.58 260.38
  Q 175.15 258.35 172.82 259.64
  A 4.03 4.00 39.3 0 1 169.66 259.94
  L 165.63 258.61
  A 1.25 1.24 -53.5 0 0 164.53 258.78
  C 163.08 259.80 161.72 258.46 160.11 258.63
  A 2.07 2.01 -35.1 0 1 159.10 258.47
  Q 157.49 257.77 155.82 257.53
  Q 154.08 257.28 152.72 256.74
  Q 150.77 255.95 148.88 255.18
  A 1.92 1.91 -40.3 0 0 147.75 255.09
  Q 146.99 255.27 146.30 254.86
  Q 144.89 254.03 143.24 253.73
  C 141.93 253.48 141.26 252.52 140.09 252.33
  Q 138.15 252.02 136.52 250.98
  Q 135.30 250.20 133.78 250.07
  C 131.28 249.86 129.12 248.55 126.82 247.78
  C 125.22 247.25 124.26 246.41 122.94 245.48
  Q 122.48 245.15 121.90 245.13
  Q 119.04 245.03 116.84 243.02
  Q 114.07 240.50 111.08 242.06
  A 0.53 0.53 0.0 0 1 110.31 241.53
  Q 110.69 237.79 111.75 234.04
  Q 113.31 228.53 114.89 223.01
  Q 115.18 222.01 116.55 219.63
  Q 117.35 218.25 118.39 216.34
  Q 120.00 213.41 122.52 211.06
  Z"
/>
<path fill="#02181b" d="
  M 80.25 280.98
  Q 87.16 311.67 110.58 332.65
  C 124.18 344.84 142.33 353.11 160.25 355.65
  Q 166.11 356.48 180.26 356.52
  Q 241.37 356.68 302.58 356.77
  C 305.80 357.25 309.03 357.42 312.24 357.97
  C 342.41 363.14 366.83 382.43 380.52 409.80
  Q 380.77 410.29 380.22 410.29
  L 324.76 410.00
  A 1.94 1.93 61.9 0 1 323.68 409.67
  C 315.82 404.32 307.04 402.69 297.60 402.68
  Q 233.00 402.57 168.32 402.43
  C 129.99 402.35 93.11 383.39 67.87 354.85
  C 46.11 330.26 33.92 301.30 33.51 268.49
  Q 34.22 262.88 33.86 257.29
  Q 33.62 253.47 33.63 251.69
  Q 33.65 249.02 33.69 246.08
  C 33.71 244.26 34.51 242.64 33.94 240.81
  Q 33.78 240.29 34.08 239.84
  Q 34.44 239.29 34.36 238.58
  Q 34.26 237.66 35.09 238.07
  Q 35.25 238.14 35.41 238.17
  Q 35.81 238.25 35.86 237.84
  L 36.04 236.22
  Q 36.07 235.92 36.35 235.85
  Q 36.84 235.71 37.08 235.28
  Q 37.31 234.89 36.86 234.81
  Q 36.71 234.78 36.72 234.61
  Q 36.73 234.46 36.88 234.41
  Q 37.05 234.35 37.23 234.40
  Q 37.67 234.51 37.82 234.94
  Q 38.09 235.74 38.78 235.57
  Q 39.15 235.47 39.53 235.54
  L 42.39 236.08
  Q 42.81 236.16 42.83 235.72
  Q 42.84 235.53 43.00 235.41
  Q 43.43 235.09 43.89 235.37
  L 46.51 236.94
  A 1.22 1.21 6.7 0 1 47.02 237.58
  Q 47.29 238.41 48.05 238.63
  Q 48.77 238.83 48.84 239.56
  Q 49.18 242.92 52.44 244.11
  Q 52.87 244.27 52.86 244.73
  Q 52.83 246.31 53.90 247.42
  C 54.91 248.46 55.30 249.78 55.65 251.14
  Q 55.78 251.63 56.25 251.83
  L 58.66 252.88
  A 1.37 1.36 -2.5 0 1 59.35 253.51
  Q 60.47 255.67 60.83 257.97
  A 1.09 1.09 0.0 0 0 61.53 258.82
  Q 62.20 259.07 62.35 259.76
  Q 62.43 260.13 62.80 260.13
  L 63.65 260.13
  Q 64.18 260.13 64.54 260.51
  Q 66.57 262.56 67.03 264.77
  Q 67.32 266.15 67.99 267.42
  Q 68.26 267.93 68.24 268.51
  Q 68.15 271.45 70.28 273.59
  A 0.39 0.35 28.9 0 1 70.39 273.91
  Q 70.37 274.05 70.36 274.18
  Q 70.33 275.07 70.56 274.21
  Q 70.60 274.08 70.69 273.97
  Q 70.84 273.79 71.02 273.94
  Q 71.69 274.47 71.22 275.23
  Q 70.80 275.91 71.60 275.95
  Q 71.74 275.96 71.78 276.10
  Q 71.84 276.25 71.86 276.41
  Q 72.05 277.89 73.42 277.91
  A 0.66 0.66 0.0 0 0 74.09 277.27
  L 74.15 275.48
  A 0.29 0.28 -90.0 0 1 74.42 275.20
  L 74.69 275.18
  Q 74.75 275.18 74.75 275.24
  L 74.92 277.54
  Q 74.94 277.88 75.29 277.88
  L 75.64 277.88
  A 0.06 0.05 75.1 0 0 75.68 277.80
  Q 75.48 277.50 75.75 277.31
  Q 76.08 277.08 76.11 277.48
  Q 76.18 278.56 75.40 279.55
  Q 75.20 279.80 75.52 279.88
  Q 75.68 279.92 75.83 279.87
  Q 75.89 279.86 75.88 279.80
  Q 75.75 279.18 76.24 278.74
  A 0.50 0.50 0.0 0 1 77.06 279.01
  Q 77.37 280.53 77.20 281.88
  A 0.77 0.75 17.7 0 0 77.62 282.67
  Q 78.07 282.90 78.21 283.35
  Q 78.56 284.43 78.59 283.30
  Q 78.59 283.04 78.78 282.86
  Q 79.04 282.62 79.04 282.27
  Q 79.03 281.26 80.25 280.98
  Z"
/>
<path fill="#e7eaf2" d="
  M 33.23 255.18
  L 33.51 268.49
  C 33.92 301.30 46.11 330.26 67.87 354.85
  C 93.11 383.39 129.99 402.35 168.32 402.43
  Q 233.00 402.57 297.60 402.68
  C 307.04 402.69 315.82 404.32 323.68 409.67
  A 1.94 1.93 61.9 0 0 324.76 410.00
  L 380.22 410.29
  Q 380.77 410.29 380.52 409.80
  C 366.83 382.43 342.41 363.14 312.24 357.97
  C 309.03 357.42 305.80 357.25 302.58 356.77
  Q 303.48 355.62 301.40 354.79
  Q 301.10 354.67 301.12 354.39
  Q 301.13 354.33 301.16 354.28
  Q 301.31 354.07 301.55 354.11
  Q 302.42 354.28 302.48 353.41
  Q 302.52 352.95 302.09 352.78
  Q 301.94 352.72 301.77 352.70
  Q 300.90 352.58 301.76 352.39
  Q 303.30 352.06 304.70 351.63
  Q 306.12 351.19 307.83 350.05
  Q 309.76 348.75 311.91 347.85
  A 1.89 1.84 -83.0 0 0 312.67 347.24
  Q 314.10 345.27 316.27 344.17
  Q 316.38 344.12 316.45 344.02
  Q 316.60 343.81 316.81 343.96
  Q 317.18 344.23 317.53 343.94
  Q 318.30 343.29 319.02 342.58
  Q 319.72 341.88 320.66 341.52
  Q 322.60 340.77 324.09 339.14
  Q 325.50 337.58 327.85 337.17
  Q 328.43 337.07 328.84 336.66
  L 329.07 336.43
  Q 329.32 336.18 329.67 336.11
  L 332.18 335.63
  A 2.17 2.16 -3.3 0 0 333.94 333.66
  Q 334.04 332.31 334.93 331.74
  A 1.20 1.18 -10.0 0 0 335.44 331.02
  Q 335.61 330.31 336.30 330.37
  Q 336.78 330.41 337.18 330.15
  Q 340.29 328.16 343.99 327.90
  Q 344.49 327.87 344.87 327.54
  Q 345.75 326.79 346.81 326.34
  Q 347.51 326.05 347.74 325.64
  Q 347.93 325.32 348.02 324.94
  Q 348.15 324.43 348.51 324.05
  Q 349.71 322.80 350.37 321.18
  Q 350.55 320.75 351.00 320.62
  L 353.25 319.97
  Q 353.85 319.80 353.99 319.18
  Q 354.31 317.76 355.62 317.35
  Q 358.36 316.48 359.35 313.88
  Q 359.53 313.38 360.02 313.16
  L 363.76 311.50
  Q 364.19 311.31 364.41 310.90
  Q 365.37 309.14 366.42 307.40
  Q 366.97 306.48 367.19 305.39
  C 367.47 303.97 368.39 303.77 368.81 302.66
  Q 368.90 302.42 368.83 302.15
  A 0.73 0.71 -31.7 0 1 368.99 301.52
  Q 371.13 299.10 373.49 296.99
  Q 373.96 296.57 373.77 295.97
  Q 373.60 295.42 373.91 294.93
  L 376.19 291.34
  Q 376.48 290.89 377.01 290.78
  Q 377.91 290.59 378.54 289.79
  Q 378.87 289.38 378.97 289.90
  Q 379.01 290.11 379.22 290.05
  Q 380.75 289.58 380.90 288.40
  Q 380.95 287.93 381.41 287.82
  L 382.59 287.54
  Q 383.09 287.42 383.10 286.90
  Q 383.12 285.53 384.32 284.28
  Q 384.78 283.80 384.95 284.45
  Q 385.09 285.03 385.71 284.97
  Q 386.07 284.93 386.25 284.63
  Q 386.63 283.97 386.17 283.38
  A 0.61 0.59 -54.1 0 1 386.08 282.78
  Q 386.40 282.01 386.58 281.21
  Q 386.70 280.68 387.14 280.35
  Q 388.45 279.39 388.80 277.75
  Q 388.87 277.44 389.19 277.46
  Q 390.21 277.54 390.43 276.47
  A 1.39 1.38 -0.7 0 1 391.48 275.40
  Q 393.38 274.97 394.45 273.15
  Q 394.59 272.91 394.87 272.87
  Q 395.00 272.85 395.13 272.88
  Q 395.26 272.91 395.36 272.81
  Q 396.94 271.23 398.83 269.98
  Q 399.95 269.23 401.98 267.07
  Q 403.43 265.52 405.72 264.76
  Q 406.51 264.50 407.07 264.05
  C 408.04 263.27 408.12 262.06 408.98 261.29
  C 409.45 260.85 410.14 260.26 410.74 260.08
  Q 411.62 259.82 411.96 258.91
  A 0.49 0.48 23.7 0 1 412.63 258.65
  Q 412.81 258.74 412.92 258.92
  Q 413.18 259.32 413.64 259.28
  Q 413.88 259.25 414.01 259.10
  Q 414.45 258.59 414.38 259.26
  Q 414.10 261.99 415.00 264.38
  L 415.00 415.00
  L 390.91 415.00
  Q 388.58 414.49 386.25 415.00
  L 0.00 415.00
  L 0.00 255.25
  Q 0.64 253.56 0.35 251.42
  A 0.99 0.98 69.5 0 1 0.78 250.47
  Q 1.25 250.15 1.35 249.60
  Q 1.42 249.17 1.82 248.99
  Q 4.29 247.89 6.08 249.94
  Q 6.34 250.23 6.72 250.36
  L 18.37 254.29
  Q 18.83 254.45 19.06 254.88
  Q 19.60 255.92 20.75 255.69
  Q 21.20 255.60 21.57 255.88
  Q 25.05 258.64 29.56 258.30
  Q 29.96 258.27 30.23 258.56
  Q 31.21 259.63 31.34 261.76
  A 0.20 0.20 0.0 0 0 31.73 261.79
  Q 31.77 261.58 31.89 261.47
  Q 32.21 261.16 32.05 261.57
  Q 31.94 261.86 32.14 262.07
  Q 32.64 262.60 32.57 261.87
  Q 32.52 261.40 32.75 261.03
  Q 32.97 260.66 32.89 260.25
  Q 32.44 257.76 33.23 255.18
  Z"
/>
<path fill="#ffffff" d="
  M 390.91 415.00
  L 386.25 415.00
  Q 388.58 414.49 390.91 415.00
  Z"
/>
</svg>
