<?xml version="1.0" encoding="UTF-8" standalone="no"?>
<!DOCTYPE svg PUBLIC "-//W3C//DTD SVG 1.1//EN" "http://www.w3.org/Graphics/SVG/1.1/DTD/svg11.dtd">
<svg xmlns="http://www.w3.org/2000/svg" version="1.1" viewBox="0.00 0.00 415.00 415.00">
  <g stroke-width="2.00" fill="none" stroke-linecap="butt">
    <path stroke="#132d35" vector-effect="non-scaling-stroke" d="
  M 295.61 116.69
  Q 295.35 116.92 295.22 117.18
  Q 295.01 117.63 295.43 117.89
  Q 295.97 118.21 296.04 118.93
  Q 296.07 119.26 295.75 119.31
  Q 295.13 119.42 295.33 120.10
  Q 295.51 120.71 294.96 120.40
  Q 294.80 120.31 294.73 120.49
  A 0.27 0.27 0.0 0 1 294.25 120.54
  C 293.44 119.20 292.68 118.03 292.09 116.58
  Q 291.80 115.87 291.06 115.54
  Q 290.60 115.33 290.41 114.87
  Q 289.26 112.16 287.37 109.75
  C 286.94 109.21 286.59 108.57 286.61 107.85
  A 0.85 0.85 0.0 0 0 285.91 106.99
  Q 285.47 106.92 285.03 107.09
  A 0.82 0.82 0.0 0 1 283.99 106.69
  L 283.38 105.43
  Q 283.15 104.96 282.65 104.80
  Q 280.28 104.07 278.33 102.59
  Q 278.05 102.39 277.92 102.07
  Q 277.47 101.00 276.30 101.38
  Q 275.77 101.55 275.23 101.39
  Q 273.49 100.86 271.87 100.12
  Q 270.05 99.29 268.49 99.06
  Q 261.70 98.05 253.93 96.92
  Q 252.11 96.65 249.11 97.03
  Q 245.49 97.49 242.30 97.15
  Q 236.20 96.50 228.70 96.72
  Q 223.05 96.88 216.09 96.20
  Q 212.74 95.87 209.31 95.84
  Q 205.98 95.82 202.88 95.89
  A 0.86 0.86 0.0 0 1 202.06 94.75
  C 202.95 92.23 204.24 89.61 205.92 87.60
  Q 207.35 85.90 205.66 84.45
  Q 203.89 82.92 201.18 82.21
  Q 184.38 77.73 174.80 91.00
  Q 172.70 93.90 169.93 103.24
  Q 169.69 104.07 169.24 104.85
  Q 168.82 105.58 168.57 106.42
  Q 168.43 106.90 167.94 106.90
  Q 166.16 106.93 164.54 107.49
  Q 162.97 108.03 161.38 107.90
  Q 157.04 107.55 152.51 108.11
  Q 150.84 108.32 149.55 109.32
  Q 148.21 110.37 146.70 111.27
  C 145.91 111.74 144.69 111.90 143.99 111.13
  A 1.38 1.38 0.0 0 0 143.12 110.68
  L 142.23 110.56
  Q 141.44 110.47 141.93 109.85
  Q 142.20 109.50 141.99 109.15" />

    <path stroke="#132d35" vector-effect="non-scaling-stroke" d="
  M 306.67 188.03
  L 306.40 271.34" />
    <path stroke="#052025" vector-effect="non-scaling-stroke" d="
  M 306.40 271.34
  Q 306.43 257.88 306.06 244.43
  Q 305.97 241.21 304.89 244.24
  Q 304.60 245.09 304.42 246.45
  Q 304.34 247.03 303.80 246.80
  Q 303.53 246.69 303.47 246.23
  Q 302.69 240.21 302.28 234.15
  Q 302.14 232.22 302.41 230.38
  Q 302.67 228.51 302.63 226.75
  C 302.55 223.92 303.39 221.22 303.05 218.38
  Q 302.88 216.95 303.26 215.53
  Q 303.63 214.16 303.26 213.08
  Q 302.57 211.07 302.26 208.80
  Q 302.20 208.38 302.25 207.96
  Q 302.34 207.21 301.73 206.75
  Q 301.51 206.60 301.75 206.49
  Q 301.88 206.43 301.95 206.30
  Q 302.09 206.00 301.80 205.84
  Q 301.27 205.56 300.79 205.76
  A 0.75 0.75 0.0 0 1 300.19 205.76
  Q 297.88 204.77 296.72 202.68
  Q 296.49 202.26 296.07 202.02
  Q 294.56 201.17 292.81 200.83
  A 1.85 1.83 -15.0 0 1 291.79 200.25
  C 291.15 199.52 291.26 198.68 290.66 197.89
  Q 289.61 196.52 288.43 195.28
  Q 287.15 193.93 287.38 192.04
  A 0.59 0.58 -86.5 0 0 286.80 191.38
  L 282.79 191.38
  Q 282.29 191.38 281.89 191.06
  L 275.18 185.54
  A 0.63 0.57 8.6 0 1 275.05 185.38
  C 274.52 184.45 273.37 184.26 272.50 183.58
  Q 270.90 182.34 269.12 181.06
  C 268.03 180.27 266.50 178.55 264.62 177.87
  Q 261.25 176.66 257.91 175.93
  Q 256.51 175.62 255.23 175.11
  Q 253.93 174.59 252.60 173.99
  Q 251.32 173.40 249.82 173.27
  Q 248.44 173.15 246.93 172.46
  Q 246.45 172.24 246.27 172.74
  Q 246.15 173.04 246.11 173.37
  Q 246.17 173.19 246.13 172.98
  Q 246.06 172.65 245.77 172.83
  Q 245.61 172.93 245.61 173.10
  Q 245.62 173.65 245.14 173.39
  Q 244.14 172.83 243.19 173.29
  Q 242.71 173.52 242.45 173.05
  Q 242.13 172.45 241.44 172.62
  Q 241.01 172.72 240.70 172.40
  Q 239.73 171.36 239.15 170.24
  Q 238.94 169.84 238.59 169.58
  L 235.04 166.87
  Q 234.66 166.58 234.20 166.67
  Q 233.34 166.84 232.79 166.18
  Q 232.46 165.77 231.99 165.53
  Q 230.65 164.86 229.42 163.94
  Q 228.49 163.25 227.33 163.14
  Q 227.08 163.11 227.01 162.87
  Q 226.64 161.70 225.29 162.17
  Q 224.67 162.39 224.96 163.20" />

    <path stroke="#0f292f" vector-effect="non-scaling-stroke" d="
  M 379.07 248.67
  Q 377.58 252.41 376.21 256.11
  Q 374.69 260.24 373.12 263.43
  Q 369.68 270.40 365.99 277.33" />
    <path stroke="#0f292f" vector-effect="non-scaling-stroke" d="
  M 325.71 315.37
  Q 322.17 315.92 319.45 318.39" />
    <path stroke="#0f292f" vector-effect="non-scaling-stroke" d="
  M 275.72 313.06
  Q 276.47 309.85 275.62 306.00" />

    <path stroke="#0f292f" vector-effect="non-scaling-stroke" d="
  M 267.48 211.72
  Q 264.35 201.53 257.40 192.88
  Q 257.38 192.85 257.21 192.53
  Q 257.06 192.25 256.72 192.50" />

    <path stroke="#0f292f" vector-effect="non-scaling-stroke" d="
  M 306.40 271.34
  Q 307.21 272.82 309.77 269.94" />
    <path stroke="#0f292f" vector-effect="non-scaling-stroke" d="
  M 324.03 255.01
  Q 325.93 253.11 328.34 248.61
  Q 331.14 243.38 331.89 240.41" />



    <path stroke="#132d35" vector-effect="non-scaling-stroke" d="
  M 84.45 121.30
  Q 83.49 121.02 83.68 120.09
  Q 83.69 120.00 83.64 119.93
  Q 83.55 119.81 83.42 119.75
  Q 82.90 119.53 82.72 120.06
  Q 82.65 120.25 82.56 120.43
  Q 82.16 121.19 82.16 120.33
  Q 82.12 116.71 82.72 113.26
  A 1.79 1.77 27.4 0 0 82.22 111.71
  Q 81.04 110.52 80.85 109.11
  Q 80.73 108.22 80.43 107.34
  Q 80.00 106.10 79.19 105.13
  Q 78.40 104.19 77.76 102.99
  Q 73.90 95.86 69.35 90.45
  Q 67.59 88.36 65.98 86.21
  Q 65.33 85.35 64.36 84.94
  Q 63.89 84.74 63.89 84.23
  Q 63.89 83.77 63.74 83.32
  Q 63.58 82.83 63.20 82.50
  Q 62.74 82.10 62.69 81.51
  Q 62.65 81.01 62.30 80.66
  Q 60.95 79.30 60.17 77.53
  A 0.69 0.69 0.0 0 0 59.42 77.13
  Q 59.25 77.16 59.08 77.12
  Q 58.54 76.98 58.58 76.42
  L 58.70 74.95" />
    <path stroke="#4c5c5f" vector-effect="non-scaling-stroke" d="
  M 132.16 346.89
  Q 114.32 338.77 101.28 323.69
  Q 94.14 315.43 89.17 305.73
  Q 84.18 295.99 81.12 285.50
  Q 79.92 281.38 78.98 273.21" />

    <path stroke="#061e23" vector-effect="non-scaling-stroke" d="
  M 78.98 273.21
  Q 78.53 273.32 78.60 274.09
  Q 78.65 274.61 78.35 275.03
  L 77.64 276.02
  Q 77.37 276.40 77.41 276.87
  Q 77.45 277.35 77.34 277.81
  Q 77.14 278.63 77.19 277.79
  Q 77.25 276.73 76.89 275.87
  Q 76.54 275.03 76.50 274.33
  Q 76.37 272.05 75.89 269.38
  Q 75.54 267.45 75.57 265.46
  Q 75.60 263.45 75.18 261.61
  Q 74.42 258.33 74.62 254.87
  Q 74.72 253.30 74.16 251.67
  Q 73.63 250.11 72.85 248.76
  Q 72.06 247.39 71.61 245.86
  Q 71.45 245.32 70.98 245.00
  Q 70.31 244.53 70.12 243.75
  Q 70.01 243.29 69.62 243.01
  Q 69.28 242.77 68.92 242.56
  Q 68.49 242.31 68.26 241.87
  L 66.17 237.85
  Q 65.96 237.44 65.61 237.17
  Q 65.23 236.88 65.17 236.42
  Q 65.11 235.99 64.96 235.59
  Q 64.12 233.42 63.32 231.12
  A 0.37 0.35 -4.9 0 0 63.02 230.88
  Q 62.75 230.85 62.68 230.63
  Q 61.21 226.21 58.50 221.51
  C 58.01 220.66 57.98 219.69 57.83 218.74
  Q 57.75 218.30 57.38 218.04
  Q 56.93 217.75 56.88 217.15
  A 1.15 1.10 22.5 0 0 56.62 216.56
  Q 54.98 214.66 53.59 211.76
  Q 52.81 210.13 51.20 208.00
  A 1.52 1.51 79.4 0 0 50.43 207.47
  Q 49.57 207.21 49.42 206.27
  Q 49.19 204.87 47.82 204.47
  Q 47.49 204.38 47.75 204.16
  Q 47.88 204.04 47.88 203.85
  Q 47.88 203.55 47.66 203.35
  Q 45.71 201.57 44.62 199.10
  Q 44.18 198.11 43.35 197.37
  C 42.05 196.22 40.75 195.52 39.86 193.97
  Q 38.70 191.95 37.22 190.24
  Q 36.83 189.78 36.22 189.71
  Q 35.73 189.65 35.55 189.19
  Q 34.63 186.87 33.81 187.92" />


    <path stroke="#4c5c5f" vector-effect="non-scaling-stroke" d="
  M 320.73 408.05
  Q 316.57 405.10 311.50 404.06
  C 302.36 402.17 293.09 402.65 283.75 402.41
  Q 274.46 402.16 266.25 402.17
  Q 235.62 402.21 201.36 402.15
  Q 194.60 402.14 183.28 402.67" />


    <path stroke="#052025" vector-effect="non-scaling-stroke" d="
  M 245.30 262.45
  Q 244.17 263.04 244.32 264.20
  Q 244.35 264.40 244.25 264.58
  Q 244.19 264.71 244.12 264.83
  Q 243.73 265.47 243.40 264.80
  Q 243.02 264.01 242.10 264.23
  Q 241.62 264.35 241.18 264.14
  Q 239.72 263.44 238.25 262.61
  Q 237.54 262.22 236.76 262.45
  Q 236.30 262.58 235.91 262.32
  Q 233.33 260.58 230.87 260.08
  Q 228.87 259.68 226.41 259.60
  Q 224.28 259.54 222.18 259.28
  Q 220.11 259.02 217.82 259.33
  A 1.72 1.69 -37.8 0 1 216.97 259.23
  Q 215.24 258.57 213.45 258.63
  Q 210.73 258.72 209.58 258.50
  Q 206.00 257.80 204.26 258.02
  Q 202.01 258.30 200.47 257.89
  Q 198.48 257.37 198.43 257.36
  C 196.57 257.07 194.76 256.67 192.87 256.67
  Q 191.86 256.67 191.59 255.67
  Q 191.45 255.13 190.89 255.12
  C 188.65 255.11 184.57 255.63 182.57 254.63
  Q 181.51 254.09 180.23 253.94
  Q 179.77 253.88 179.35 254.08
  Q 177.76 254.82 176.24 254.07
  C 175.11 253.52 174.16 253.29 172.90 253.18
  Q 171.29 253.04 170.29 254.27
  Q 169.95 254.70 169.43 254.50
  L 164.79 252.74
  Q 164.31 252.56 163.86 252.79
  Q 163.04 253.20 162.96 254.20
  Q 162.92 254.75 162.42 254.50
  Q 159.84 253.22 156.75 252.85
  Q 154.72 252.61 152.95 251.88
  Q 151.23 251.17 149.33 250.94
  Q 147.03 250.67 144.75 249.94
  Q 142.46 249.20 140.27 248.62
  C 138.45 248.13 136.55 246.77 134.42 246.17
  Q 131.28 245.27 128.00 244.58
  Q 127.63 244.50 127.64 244.12
  Q 127.64 243.98 127.63 243.85
  Q 127.58 243.32 127.09 243.13
  Q 123.48 241.69 119.99 240.67
  Q 118.20 240.15 115.81 238.32
  Q 114.69 237.46 113.54 237.02
  Q 112.30 236.55 111.02 236.17
  Q 110.54 236.03 110.26 235.60
  Q 109.70 234.73 109.10 234.42" />

  </g>
  <path fill="#1d353f" d="
  M 295.61 116.69
  Q 295.35 116.92 295.22 117.18
  Q 295.01 117.63 295.43 117.89
  Q 295.97 118.21 296.04 118.93
  Q 296.07 119.26 295.75 119.31
  Q 295.13 119.42 295.33 120.10
  Q 295.51 120.71 294.96 120.40
  Q 294.80 120.31 294.73 120.49
  A 0.27 0.27 0.0 0 1 294.25 120.54
  C 293.44 119.20 292.68 118.03 292.09 116.58
  Q 291.80 115.87 291.06 115.54
  Q 290.60 115.33 290.41 114.87
  Q 289.26 112.16 287.37 109.75
  C 286.94 109.21 286.59 108.57 286.61 107.85
  A 0.85 0.85 0.0 0 0 285.91 106.99
  Q 285.47 106.92 285.03 107.09
  A 0.82 0.82 0.0 0 1 283.99 106.69
  L 283.38 105.43
  Q 283.15 104.96 282.65 104.80
  Q 280.28 104.07 278.33 102.59
  Q 278.05 102.39 277.92 102.07
  Q 277.47 101.00 276.30 101.38
  Q 275.77 101.55 275.23 101.39
  Q 273.49 100.86 271.87 100.12
  Q 270.05 99.29 268.49 99.06
  Q 261.70 98.05 253.93 96.92
  Q 252.11 96.65 249.11 97.03
  Q 245.49 97.49 242.30 97.15
  Q 236.20 96.50 228.70 96.72
  Q 223.05 96.88 216.09 96.20
  Q 212.74 95.87 209.31 95.84
  Q 205.98 95.82 202.88 95.89
  A 0.86 0.86 0.0 0 1 202.06 94.75
  C 202.95 92.23 204.24 89.61 205.92 87.60
  Q 207.35 85.90 205.66 84.45
  Q 203.89 82.92 201.18 82.21
  Q 184.38 77.73 174.80 91.00
  Q 172.70 93.90 169.93 103.24
  Q 169.69 104.07 169.24 104.85
  Q 168.82 105.58 168.57 106.42
  Q 168.43 106.90 167.94 106.90
  Q 166.16 106.93 164.54 107.49
  Q 162.97 108.03 161.38 107.90
  Q 157.04 107.55 152.51 108.11
  Q 150.84 108.32 149.55 109.32
  Q 148.21 110.37 146.70 111.27
  C 145.91 111.74 144.69 111.90 143.99 111.13
  A 1.38 1.38 0.0 0 0 143.12 110.68
  L 142.23 110.56
  Q 141.44 110.47 141.93 109.85
  Q 142.20 109.50 141.99 109.15
  Q 145.46 106.68 148.90 104.14
  C 152.31 101.63 154.15 99.67 155.12 95.59
  Q 156.74 88.70 160.72 82.32
  C 169.66 67.95 182.35 60.07 198.51 55.64
  Q 200.65 55.68 199.13 53.73
  L 185.24 6.92
  Q 184.78 5.36 185.97 6.47
  Q 193.81 13.83 202.59 20.88
  Q 227.00 40.48 248.22 58.02
  C 257.14 65.39 266.19 73.35 273.55 82.02
  Q 286.93 97.77 295.61 116.69
  Z" />
  <path fill="#1d353f" d="
  M 135.13 72.50
  Q 123.36 76.29 113.14 83.57
  Q 111.45 84.77 109.47 86.54
  C 106.50 89.21 103.43 91.85 100.96 94.72
  Q 90.65 106.69 84.45 121.30
  Q 83.49 121.02 83.68 120.09
  Q 83.69 120.00 83.64 119.93
  Q 83.55 119.81 83.42 119.75
  Q 82.90 119.53 82.72 120.06
  Q 82.65 120.25 82.56 120.43
  Q 82.16 121.19 82.16 120.33
  Q 82.12 116.71 82.72 113.26
  A 1.79 1.77 27.4 0 0 82.22 111.71
  Q 81.04 110.52 80.85 109.11
  Q 80.73 108.22 80.43 107.34
  Q 80.00 106.10 79.19 105.13
  Q 78.40 104.19 77.76 102.99
  Q 73.90 95.86 69.35 90.45
  Q 67.59 88.36 65.98 86.21
  Q 65.33 85.35 64.36 84.94
  Q 63.89 84.74 63.89 84.23
  Q 63.89 83.77 63.74 83.32
  Q 63.58 82.83 63.20 82.50
  Q 62.74 82.10 62.69 81.51
  Q 62.65 81.01 62.30 80.66
  Q 60.95 79.30 60.17 77.53
  A 0.69 0.69 0.0 0 0 59.42 77.13
  Q 59.25 77.16 59.08 77.12
  Q 58.54 76.98 58.58 76.42
  L 58.70 74.95
  C 71.27 58.24 88.14 42.89 107.10 33.84
  Q 120.21 27.59 134.58 24.32
  Q 139.38 23.23 144.49 23.05
  Q 145.00 23.03 145.00 23.54
  L 145.00 69.23
  A 0.54 0.54 0.0 0 1 144.60 69.75
  L 135.13 72.50
  Z" />

  <path fill="#1d353f" d="
  M 337.61 23.02
  L 383.01 23.01
  L 383.10 112.46
  A 0.74 0.73 88.8 0 1 382.40 113.20
  Q 377.02 113.46 371.51 113.39
  Q 355.45 113.20 338.36 113.36
  A 0.63 0.62 -0.0 0 1 337.73 112.74
  L 337.61 23.02
  Z" />

  <path fill="#09242b" d="
  M 58.70 74.95
  L 58.58 76.42
  Q 58.54 76.98 59.08 77.12
  Q 59.25 77.16 59.42 77.13
  A 0.69 0.69 0.0 0 1 60.17 77.53
  Q 60.95 79.30 62.30 80.66
  Q 62.65 81.01 62.69 81.51
  Q 62.74 82.10 63.20 82.50
  Q 63.58 82.83 63.74 83.32
  Q 63.89 83.77 63.89 84.23
  Q 63.89 84.74 64.36 84.94
  Q 65.33 85.35 65.98 86.21
  Q 67.59 88.36 69.35 90.45
  Q 73.90 95.86 77.76 102.99
  Q 78.40 104.19 79.19 105.13
  Q 80.00 106.10 80.43 107.34
  Q 80.73 108.22 80.85 109.11
  Q 81.04 110.52 82.22 111.71
  A 1.79 1.77 27.4 0 1 82.72 113.26
  Q 82.12 116.71 82.16 120.33
  Q 82.16 121.19 82.56 120.43
  Q 82.65 120.25 82.72 120.06
  Q 82.90 119.53 83.42 119.75
  Q 83.55 119.81 83.64 119.93
  Q 83.69 120.00 83.68 120.09
  Q 83.49 121.02 84.45 121.30
  Q 80.73 132.23 79.70 137.25
  Q 78.46 143.36 78.42 154.00
  Q 78.26 202.62 78.28 251.25
  Q 78.28 258.45 78.98 273.21
  Q 78.53 273.32 78.60 274.09
  Q 78.65 274.61 78.35 275.03
  L 77.64 276.02
  Q 77.37 276.40 77.41 276.87
  Q 77.45 277.35 77.34 277.81
  Q 77.14 278.63 77.19 277.79
  Q 77.25 276.73 76.89 275.87
  Q 76.54 275.03 76.50 274.33
  Q 76.37 272.05 75.89 269.38
  Q 75.54 267.45 75.57 265.46
  Q 75.60 263.45 75.18 261.61
  Q 74.42 258.33 74.62 254.87
  Q 74.72 253.30 74.16 251.67
  Q 73.63 250.11 72.85 248.76
  Q 72.06 247.39 71.61 245.86
  Q 71.45 245.32 70.98 245.00
  Q 70.31 244.53 70.12 243.75
  Q 70.01 243.29 69.62 243.01
  Q 69.28 242.77 68.92 242.56
  Q 68.49 242.31 68.26 241.87
  L 66.17 237.85
  Q 65.96 237.44 65.61 237.17
  Q 65.23 236.88 65.17 236.42
  Q 65.11 235.99 64.96 235.59
  Q 64.12 233.42 63.32 231.12
  A 0.37 0.35 -4.9 0 0 63.02 230.88
  Q 62.75 230.85 62.68 230.63
  Q 61.21 226.21 58.50 221.51
  C 58.01 220.66 57.98 219.69 57.83 218.74
  Q 57.75 218.30 57.38 218.04
  Q 56.93 217.75 56.88 217.15
  A 1.15 1.10 22.5 0 0 56.62 216.56
  Q 54.98 214.66 53.59 211.76
  Q 52.81 210.13 51.20 208.00
  A 1.52 1.51 79.4 0 0 50.43 207.47
  Q 49.57 207.21 49.42 206.27
  Q 49.19 204.87 47.82 204.47
  Q 47.49 204.38 47.75 204.16
  Q 47.88 204.04 47.88 203.85
  Q 47.88 203.55 47.66 203.35
  Q 45.71 201.57 44.62 199.10
  Q 44.18 198.11 43.35 197.37
  C 42.05 196.22 40.75 195.52 39.86 193.97
  Q 38.70 191.95 37.22 190.24
  Q 36.83 189.78 36.22 189.71
  Q 35.73 189.65 35.55 189.19
  Q 34.63 186.87 33.81 187.92
  L 33.86 135.84
  L 36.33 123.04
  Q 42.52 96.66 58.70 74.95
  Z" />
  <path fill="#09242b" d="
  M 295.61 116.69
  Q 302.66 131.83 304.74 144.76
  C 305.25 147.87 305.87 150.68 305.96 153.50
  Q 306.51 170.77 306.67 188.03
  L 306.40 271.34
  Q 306.43 257.88 306.06 244.43
  Q 305.97 241.21 304.89 244.24
  Q 304.60 245.09 304.42 246.45
  Q 304.34 247.03 303.80 246.80
  Q 303.53 246.69 303.47 246.23
  Q 302.69 240.21 302.28 234.15
  Q 302.14 232.22 302.41 230.38
  Q 302.67 228.51 302.63 226.75
  C 302.55 223.92 303.39 221.22 303.05 218.38
  Q 302.88 216.95 303.26 215.53
  Q 303.63 214.16 303.26 213.08
  Q 302.57 211.07 302.26 208.80
  Q 302.20 208.38 302.25 207.96
  Q 302.34 207.21 301.73 206.75
  Q 301.51 206.60 301.75 206.49
  Q 301.88 206.43 301.95 206.30
  Q 302.09 206.00 301.80 205.84
  Q 301.27 205.56 300.79 205.76
  A 0.75 0.75 0.0 0 1 300.19 205.76
  Q 297.88 204.77 296.72 202.68
  Q 296.49 202.26 296.07 202.02
  Q 294.56 201.17 292.81 200.83
  A 1.85 1.83 -15.0 0 1 291.79 200.25
  C 291.15 199.52 291.26 198.68 290.66 197.89
  Q 289.61 196.52 288.43 195.28
  Q 287.15 193.93 287.38 192.04
  A 0.59 0.58 -86.5 0 0 286.80 191.38
  L 282.79 191.38
  Q 282.29 191.38 281.89 191.06
  L 275.18 185.54
  A 0.63 0.57 8.6 0 1 275.05 185.38
  C 274.52 184.45 273.37 184.26 272.50 183.58
  Q 270.90 182.34 269.12 181.06
  C 268.03 180.27 266.50 178.55 264.62 177.87
  Q 261.25 176.66 257.91 175.93
  Q 256.51 175.62 255.23 175.11
  Q 253.93 174.59 252.60 173.99
  Q 251.32 173.40 249.82 173.27
  Q 248.44 173.15 246.93 172.46
  Q 246.45 172.24 246.27 172.74
  Q 246.15 173.04 246.11 173.37
  Q 246.17 173.19 246.13 172.98
  Q 246.06 172.65 245.77 172.83
  Q 245.61 172.93 245.61 173.10
  Q 245.62 173.65 245.14 173.39
  Q 244.14 172.83 243.19 173.29
  Q 242.71 173.52 242.45 173.05
  Q 242.13 172.45 241.44 172.62
  Q 241.01 172.72 240.70 172.40
  Q 239.73 171.36 239.15 170.24
  Q 238.94 169.84 238.59 169.58
  L 235.04 166.87
  Q 234.66 166.58 234.20 166.67
  Q 233.34 166.84 232.79 166.18
  Q 232.46 165.77 231.99 165.53
  Q 230.65 164.86 229.42 163.94
  Q 228.49 163.25 227.33 163.14
  Q 227.08 163.11 227.01 162.87
  Q 226.64 161.70 225.29 162.17
  Q 224.67 162.39 224.96 163.20
  L 214.56 158.47
  L 197.95 153.14
  Q 186.58 150.26 174.51 151.52
  L 154.50 150.39
  Q 153.96 150.36 153.72 149.87
  Q 145.93 134.47 137.96 120.03
  C 137.19 118.63 136.75 116.95 135.97 115.52
  A 1.65 1.64 56.9 0 1 136.41 113.41
  L 141.99 109.15
  Q 142.20 109.50 141.93 109.85
  Q 141.44 110.47 142.23 110.56
  L 143.12 110.68
  A 1.38 1.38 0.0 0 1 143.99 111.13
  C 144.69 111.90 145.91 111.74 146.70 111.27
  Q 148.21 110.37 149.55 109.32
  Q 150.84 108.32 152.51 108.11
  Q 157.04 107.55 161.38 107.90
  Q 162.97 108.03 164.54 107.49
  Q 166.16 106.93 167.94 106.90
  Q 168.43 106.90 168.57 106.42
  Q 168.82 105.58 169.24 104.85
  Q 169.69 104.07 169.93 103.24
  Q 172.70 93.90 174.80 91.00
  Q 184.38 77.73 201.18 82.21
  Q 203.89 82.92 205.66 84.45
  Q 207.35 85.90 205.92 87.60
  C 204.24 89.61 202.95 92.23 202.06 94.75
  A 0.86 0.86 0.0 0 0 202.88 95.89
  Q 205.98 95.82 209.31 95.84
  Q 212.74 95.87 216.09 96.20
  Q 223.05 96.88 228.70 96.72
  Q 236.20 96.50 242.30 97.15
  Q 245.49 97.49 249.11 97.03
  Q 252.11 96.65 253.93 96.92
  Q 261.70 98.05 268.49 99.06
  Q 270.05 99.29 271.87 100.12
  Q 273.49 100.86 275.23 101.39
  Q 275.77 101.55 276.30 101.38
  Q 277.47 101.00 277.92 102.07
  Q 278.05 102.39 278.33 102.59
  Q 280.28 104.07 282.65 104.80
  Q 283.15 104.96 283.38 105.43
  L 283.99 106.69
  A 0.82 0.82 0.0 0 0 285.03 107.09
  Q 285.47 106.92 285.91 106.99
  A 0.85 0.85 0.0 0 1 286.61 107.85
  C 286.59 108.57 286.94 109.21 287.37 109.75
  Q 289.26 112.16 290.41 114.87
  Q 290.60 115.33 291.06 115.54
  Q 291.80 115.87 292.09 116.58
  C 292.68 118.03 293.44 119.20 294.25 120.54
  A 0.27 0.27 0.0 0 0 294.73 120.49
  Q 294.80 120.31 294.96 120.40
  Q 295.51 120.71 295.33 120.10
  Q 295.13 119.42 295.75 119.31
  Q 296.07 119.26 296.04 118.93
  Q 295.97 118.21 295.43 117.89
  Q 295.01 117.63 295.22 117.18
  Q 295.35 116.92 295.61 116.69
  Z
  M 176.80 89.89
  C 173.34 94.17 172.16 100.78 170.11 106.01
  A 0.55 0.54 8.0 0 0 170.67 106.75
  C 177.54 106.07 184.27 107.95 190.60 104.12
  Q 197.74 99.81 201.43 92.53
  Q 203.12 89.22 205.36 86.17
  Q 205.52 85.96 205.28 85.82
  C 195.89 80.62 183.98 81.04 176.80 89.89
  Z" />
  <!-- eyes -->
  <path fill="#ffffff" d="
  M 176.80 89.89
  C 183.98 81.04 195.89 80.62 205.28 85.82
  Q 205.52 85.96 205.36 86.17
  Q 203.12 89.22 201.43 92.53
  Q 197.74 99.81 190.60 104.12
  C 184.27 107.95 177.54 106.07 170.67 106.75
  A 0.55 0.54 8.0 0 1 170.11 106.01
  C 172.16 100.78 173.34 94.17 176.80 89.89
  Z" />

  <path fill="#011c1f" d="
  M 379.07 248.67
  Q 377.58 252.41 376.21 256.11
  Q 374.69 260.24 373.12 263.43
  Q 369.68 270.40 365.99 277.33
  Q 350.55 301.49 325.71 315.37
  Q 322.17 315.92 319.45 318.39
  Q 305.26 324.90 290.73 325.91
  Q 287.26 326.15 276.31 326.18
  Q 275.80 326.18 275.80 325.67
  L 275.72 313.06
  Q 276.47 309.85 275.62 306.00
  Q 276.24 277.54 275.74 249.00
  Q 275.62 241.73 274.10 234.46
  Q 272.05 222.98 267.48 211.72
  Q 264.35 201.53 257.40 192.88
  Q 257.38 192.85 257.21 192.53
  Q 257.06 192.25 256.72 192.50
  Q 256.52 192.16 256.59 192.37
  Q 256.71 192.05 256.60 191.89
  Q 243.97 174.02 224.96 163.20
  Q 224.67 162.39 225.29 162.17
  Q 226.64 161.70 227.01 162.87
  Q 227.08 163.11 227.33 163.14
  Q 228.49 163.25 229.42 163.94
  Q 230.65 164.86 231.99 165.53
  Q 232.46 165.77 232.79 166.18
  Q 233.34 166.84 234.20 166.67
  Q 234.66 166.58 235.04 166.87
  L 238.59 169.58
  Q 238.94 169.84 239.15 170.24
  Q 239.73 171.36 240.70 172.40
  Q 241.01 172.72 241.44 172.62
  Q 242.13 172.45 242.45 173.05
  Q 242.71 173.52 243.19 173.29
  Q 244.14 172.83 245.14 173.39
  Q 245.62 173.65 245.61 173.10
  Q 245.61 172.93 245.77 172.83
  Q 246.06 172.65 246.13 172.98
  Q 246.17 173.19 246.11 173.37
  Q 246.15 173.04 246.27 172.74
  Q 246.45 172.24 246.93 172.46
  Q 248.44 173.15 249.82 173.27
  Q 251.32 173.40 252.60 173.99
  Q 253.93 174.59 255.23 175.11
  Q 256.51 175.62 257.91 175.93
  Q 261.25 176.66 264.62 177.87
  C 266.50 178.55 268.03 180.27 269.12 181.06
  Q 270.90 182.34 272.50 183.58
  C 273.37 184.26 274.52 184.45 275.05 185.38
  A 0.63 0.57 8.6 0 0 275.18 185.54
  L 281.89 191.06
  Q 282.29 191.38 282.79 191.38
  L 286.80 191.38
  A 0.59 0.58 -86.5 0 1 287.38 192.04
  Q 287.15 193.93 288.43 195.28
  Q 289.61 196.52 290.66 197.89
  C 291.26 198.68 291.15 199.52 291.79 200.25
  A 1.85 1.83 -15.0 0 0 292.81 200.83
  Q 294.56 201.17 296.07 202.02
  Q 296.49 202.26 296.72 202.68
  Q 297.88 204.77 300.19 205.76
  A 0.75 0.75 0.0 0 0 300.79 205.76
  Q 301.27 205.56 301.80 205.84
  Q 302.09 206.00 301.95 206.30
  Q 301.88 206.43 301.75 206.49
  Q 301.51 206.60 301.73 206.75
  Q 302.34 207.21 302.25 207.96
  Q 302.20 208.38 302.26 208.80
  Q 302.57 211.07 303.26 213.08
  Q 303.63 214.16 303.26 215.53
  Q 302.88 216.95 303.05 218.38
  C 303.39 221.22 302.55 223.92 302.63 226.75
  Q 302.67 228.51 302.41 230.38
  Q 302.14 232.22 302.28 234.15
  Q 302.69 240.21 303.47 246.23
  Q 303.53 246.69 303.80 246.80
  Q 304.34 247.03 304.42 246.45
  Q 304.60 245.09 304.89 244.24
  Q 305.97 241.21 306.06 244.43
  Q 306.43 257.88 306.40 271.34
  Q 307.21 272.82 309.77 269.94
  Q 318.01 263.88 324.03 255.01
  Q 325.93 253.11 328.34 248.61
  Q 331.14 243.38 331.89 240.41
  L 335.43 229.55
  Q 337.56 220.94 337.66 211.75
  Q 337.89 191.99 337.35 172.18
  L 337.83 146.37
  Q 337.84 145.77 338.44 145.77
  L 382.54 145.77
  Q 383.21 145.77 383.22 146.44
  Q 383.45 169.71 383.66 192.17
  C 383.77 204.36 383.38 216.66 383.00 228.75
  Q 382.76 236.30 379.07 248.67
  Z" />

  <path fill="#09242b" d="
  M 242.85 232.53
  L 245.12 242.12
  L 245.30 262.45
  Q 244.17 263.04 244.32 264.20
  Q 244.35 264.40 244.25 264.58
  Q 244.19 264.71 244.12 264.83
  Q 243.73 265.47 243.40 264.80
  Q 243.02 264.01 242.10 264.23
  Q 241.62 264.35 241.18 264.14
  Q 239.72 263.44 238.25 262.61
  Q 237.54 262.22 236.76 262.45
  Q 236.30 262.58 235.91 262.32
  Q 233.33 260.58 230.87 260.08
  Q 228.87 259.68 226.41 259.60
  Q 224.28 259.54 222.18 259.28
  Q 220.11 259.02 217.82 259.33
  A 1.72 1.69 -37.8 0 1 216.97 259.23
  Q 215.24 258.57 213.45 258.63
  Q 210.73 258.72 209.58 258.50
  Q 206.00 257.80 204.26 258.02
  Q 202.01 258.30 200.47 257.89
  Q 198.48 257.37 198.43 257.36
  C 196.57 257.07 194.76 256.67 192.87 256.67
  Q 191.86 256.67 191.59 255.67
  Q 191.45 255.13 190.89 255.12
  C 188.65 255.11 184.57 255.63 182.57 254.63
  Q 181.51 254.09 180.23 253.94
  Q 179.77 253.88 179.35 254.08
  Q 177.76 254.82 176.24 254.07
  C 175.11 253.52 174.16 253.29 172.90 253.18
  Q 171.29 253.04 170.29 254.27
  Q 169.95 254.70 169.43 254.50
  L 164.79 252.74
  Q 164.31 252.56 163.86 252.79
  Q 163.04 253.20 162.96 254.20
  Q 162.92 254.75 162.42 254.50
  Q 159.84 253.22 156.75 252.85
  Q 154.72 252.61 152.95 251.88
  Q 151.23 251.17 149.33 250.94
  Q 147.03 250.67 144.75 249.94
  Q 142.46 249.20 140.27 248.62
  C 138.45 248.13 136.55 246.77 134.42 246.17
  Q 131.28 245.27 128.00 244.58
  Q 127.63 244.50 127.64 244.12
  Q 127.64 243.98 127.63 243.85
  Q 127.58 243.32 127.09 243.13
  Q 123.48 241.69 119.99 240.67
  Q 118.20 240.15 115.81 238.32
  Q 114.69 237.46 113.54 237.02
  Q 112.30 236.55 111.02 236.17
  Q 110.54 236.03 110.26 235.60
  Q 109.70 234.73 109.10 234.42
  Q 118.48 200.83 150.80 187.36
  Q 159.08 183.91 166.44 183.03
  Q 173.60 182.17 180.90 182.43
  Q 188.90 182.70 195.68 184.78
  C 218.52 191.79 235.52 209.87 242.85 232.53
  Z" />
  <path fill="#02181b" d="
  M 78.98 273.21
  Q 79.92 281.38 81.12 285.50
  Q 84.18 295.99 89.17 305.73
  Q 94.14 315.43 101.28 323.69
  Q 114.32 338.77 132.16 346.89
  Q 146.12 352.87 150.75 353.84
  Q 154.02 354.52 157.26 355.14
  Q 165.24 356.59 174.50 356.60
  Q 190.28 356.61 237.25 356.91
  C 242.60 356.94 247.91 356.62 253.21 356.34
  Q 277.63 356.69 302.05 356.99
  C 306.02 357.04 309.66 357.45 313.52 357.92
  Q 315.72 358.19 317.97 358.82
  Q 330.93 362.46 342.74 368.78
  Q 348.37 371.79 353.00 375.66
  Q 368.31 388.46 377.54 403.93
  Q 379.33 406.93 380.63 409.92
  A 0.49 0.49 0.0 0 1 380.19 410.60
  L 377.72 410.64
  L 356.02 410.54
  Q 342.16 410.24 328.25 409.96
  Q 324.88 409.89 320.73 408.05
  Q 316.57 405.10 311.50 404.06
  C 302.36 402.17 293.09 402.65 283.75 402.41
  Q 274.46 402.16 266.25 402.17
  Q 235.62 402.21 201.36 402.15
  Q 194.60 402.14 183.28 402.67
  Q 170.78 402.35 158.25 401.94
  Q 151.28 401.72 140.59 399.23
  C 127.00 396.06 114.13 390.05 101.60 382.90
  Q 92.36 377.63 85.55 371.80
  C 60.79 350.59 42.93 325.32 36.01 293.47
  Q 35.04 289.01 34.75 284.38
  C 34.49 280.28 34.03 276.35 33.99 272.18
  Q 33.65 230.10 33.81 187.92
  Q 34.63 186.87 35.55 189.19
  Q 35.73 189.65 36.22 189.71
  Q 36.83 189.78 37.22 190.24
  Q 38.70 191.95 39.86 193.97
  C 40.75 195.52 42.05 196.22 43.35 197.37
  Q 44.18 198.11 44.62 199.10
  Q 45.71 201.57 47.66 203.35
  Q 47.88 203.55 47.88 203.85
  Q 47.88 204.04 47.75 204.16
  Q 47.49 204.38 47.82 204.47
  Q 49.19 204.87 49.42 206.27
  Q 49.57 207.21 50.43 207.47
  A 1.52 1.51 79.4 0 1 51.20 208.00
  Q 52.81 210.13 53.59 211.76
  Q 54.98 214.66 56.62 216.56
  A 1.15 1.10 22.5 0 1 56.88 217.15
  Q 56.93 217.75 57.38 218.04
  Q 57.75 218.30 57.83 218.74
  C 57.98 219.69 58.01 220.66 58.50 221.51
  Q 61.21 226.21 62.68 230.63
  Q 62.75 230.85 63.02 230.88
  A 0.37 0.35 -4.9 0 1 63.32 231.12
  Q 64.12 233.42 64.96 235.59
  Q 65.11 235.99 65.17 236.42
  Q 65.23 236.88 65.61 237.17
  Q 65.96 237.44 66.17 237.85
  L 68.26 241.87
  Q 68.49 242.31 68.92 242.56
  Q 69.28 242.77 69.62 243.01
  Q 70.01 243.29 70.12 243.75
  Q 70.31 244.53 70.98 245.00
  Q 71.45 245.32 71.61 245.86
  Q 72.06 247.39 72.85 248.76
  Q 73.63 250.11 74.16 251.67
  Q 74.72 253.30 74.62 254.87
  Q 74.42 258.33 75.18 261.61
  Q 75.60 263.45 75.57 265.46
  Q 75.54 267.45 75.89 269.38
  Q 76.37 272.05 76.50 274.33
  Q 76.54 275.03 76.89 275.87
  Q 77.25 276.73 77.19 277.79
  Q 77.14 278.63 77.34 277.81
  Q 77.45 277.35 77.41 276.87
  Q 77.37 276.40 77.64 276.02
  L 78.35 275.03
  Q 78.65 274.61 78.60 274.09
  Q 78.53 273.32 78.98 273.21
  Z" />
  <path fill="#1d353f" d="
  M 306.67 188.03
  L 307.00 270.49
  Q 307.01 271.03 307.51 270.83
  L 309.77 269.94
  Q 307.21 272.82 306.40 271.34
  L 306.67 188.03
  Z" />
  <path fill="#1d353f" d="
  M 256.72 192.50
  Q 257.06 192.25 257.21 192.53
  Q 257.38 192.85 257.40 192.88
  Q 264.35 201.53 267.48 211.72
  Q 263.08 201.51 256.72 192.50
  Z" />

  <path fill="#011c1f" d="
  M 109.10 234.42
  Q 109.70 234.73 110.26 235.60
  Q 110.54 236.03 111.02 236.17
  Q 112.30 236.55 113.54 237.02
  Q 114.69 237.46 115.81 238.32
  Q 118.20 240.15 119.99 240.67
  Q 123.48 241.69 127.09 243.13
  Q 127.58 243.32 127.63 243.85
  Q 127.64 243.98 127.64 244.12
  Q 127.63 244.50 128.00 244.58
  Q 131.28 245.27 134.42 246.17
  C 136.55 246.77 138.45 248.13 140.27 248.62
  Q 142.46 249.20 144.75 249.94
  Q 147.03 250.67 149.33 250.94
  Q 151.23 251.17 152.95 251.88
  Q 154.72 252.61 156.75 252.85
  Q 159.84 253.22 162.42 254.50
  Q 162.92 254.75 162.96 254.20
  Q 163.04 253.20 163.86 252.79
  Q 164.31 252.56 164.79 252.74
  L 169.43 254.50
  Q 169.95 254.70 170.29 254.27
  Q 171.29 253.04 172.90 253.18
  C 174.16 253.29 175.11 253.52 176.24 254.07
  Q 177.76 254.82 179.35 254.08
  Q 179.77 253.88 180.23 253.94
  Q 181.51 254.09 182.57 254.63
  C 184.57 255.63 188.65 255.11 190.89 255.12
  Q 191.45 255.13 191.59 255.67
  Q 191.86 256.67 192.87 256.67
  C 194.76 256.67 196.57 257.07 198.43 257.36
  Q 198.48 257.37 200.47 257.89
  Q 202.01 258.30 204.26 258.02
  Q 206.00 257.80 209.58 258.50
  Q 210.73 258.72 213.45 258.63
  Q 215.24 258.57 216.97 259.23
  A 1.72 1.69 -37.8 0 0 217.82 259.33
  Q 220.11 259.02 222.18 259.28
  Q 224.28 259.54 226.41 259.60
  Q 228.87 259.68 230.87 260.08
  Q 233.33 260.58 235.91 262.32
  Q 236.30 262.58 236.76 262.45
  Q 237.54 262.22 238.25 262.61
  Q 239.72 263.44 241.18 264.14
  Q 241.62 264.35 242.10 264.23
  Q 243.02 264.01 243.40 264.80
  Q 243.73 265.47 244.12 264.83
  Q 244.19 264.71 244.25 264.58
  Q 244.35 264.40 244.32 264.20
  Q 244.17 263.04 245.30 262.45
  L 246.07 326.63
  L 215.29 326.64
  L 172.48 326.15
  L 163.71 324.44
  Q 138.54 317.94 122.52 297.98
  Q 103.27 273.98 107.24 242.74
  Q 107.59 240.03 109.10 234.42
  Z" />
  <path fill="#02181b" d="
  M 274.10 234.46
  Q 275.62 241.73 275.74 249.00
  Q 276.24 277.54 275.62 306.00
  Q 275.88 307.63 275.60 309.22
  C 275.47 300.22 275.08 291.01 275.07 282.26
  C 275.05 269.06 275.32 255.66 274.43 242.50
  Q 274.16 238.52 274.10 234.46
  Z" />
  <path fill="#1d353f" d="
  M 331.89 240.41
  Q 331.14 243.38 328.34 248.61
  Q 325.93 253.11 324.03 255.01
  L 331.89 240.41
  Z" />
  <path fill="#1d353f" d="
  M 379.07 248.67
  Q 374.88 264.14 365.99 277.33
  Q 369.68 270.40 373.12 263.43
  Q 374.69 260.24 376.21 256.11
  Q 377.58 252.41 379.07 248.67
  Z" />
  <path fill="#1d353f" d="
  M 275.62 306.00
  Q 276.47 309.85 275.72 313.06
  L 275.60 309.22
  Q 275.88 307.63 275.62 306.00
  Z" />
  <path fill="#1d353f" d="
  M 325.71 315.37
  L 319.45 318.39
  Q 322.17 315.92 325.71 315.37
  Z" />
  <path fill="#02181b" d="
  M 163.71 324.44
  L 172.48 326.15
  Q 167.77 326.54 163.71 324.44
  Z" />
  <path fill="#02181b" d="
  M 246.07 326.63
  L 215.29 326.64
  L 246.07 326.63
  Z" />
  <path fill="#02181b" d="
  M 157.26 355.14
  C 161.75 354.87 167.13 355.51 170.59 355.59
  C 200.45 356.30 232.26 356.04 253.21 356.34
  C 247.91 356.62 242.60 356.94 237.25 356.91
  Q 190.28 356.61 174.50 356.60
  Q 165.24 356.59 157.26 355.14
  Z" />

  <path fill="#02181b" d="
  M 377.72 410.64
  L 356.02 410.54
  L 377.72 410.64
  Z" />
</svg>