<?xml version="1.0" encoding="UTF-8" standalone="no"?>
<!DOCTYPE svg PUBLIC "-//W3C//DTD SVG 1.1//EN" "http://www.w3.org/Graphics/SVG/1.1/DTD/svg11.dtd">
<svg xmlns="http://www.w3.org/2000/svg" version="1.1" viewBox="0.00 0.00 1472.00 1424.00">
<g stroke-width="2.00" fill="none" stroke-linecap="butt">
<path stroke="#808080" vector-effect="non-scaling-stroke" d="
  M 998.21 120.31
  Q 998.67 118.94 999.25 120.27
  Q 1085.04 316.67 1158.35 484.44
  C 1162.59 494.12 1177.31 487.84 1173.05 478.08
  Q 1089.66 287.14 1005.84 95.24
  C 1004.22 91.53 1002.08 88.53 997.66 88.65
  Q 991.84 88.80 989.91 94.58
  Q 953.85 202.52 902.86 355.17
  A 0.57 0.57 0.0 0 1 902.11 355.52
  Q 843.15 331.91 780.49 323.54
  Q 661.49 307.64 546.94 345.06
  A 0.68 0.67 -20.3 0 1 546.11 344.68
  Q 492.75 219.01 438.93 92.22
  C 437.40 88.62 435.06 85.48 430.82 85.65
  Q 424.70 85.90 422.91 91.74
  Q 354.21 315.66 285.90 537.98
  C 285.43 539.52 284.95 541.16 284.04 542.49
  C 253.15 587.55 229.48 636.39 213.92 688.61
  A 0.89 0.89 0.0 0 1 212.91 689.23
  Q 191.57 685.41 167.97 681.03
  C 164.89 680.45 161.63 681.74 159.91 684.42
  C 156.47 689.79 159.65 695.83 165.73 696.94
  Q 187.08 700.86 208.93 704.85
  A 0.37 0.37 0.0 0 1 209.22 705.31
  Q 197.31 751.08 193.76 798.69
  Q 193.03 808.54 192.57 822.65
  Q 192.55 823.29 191.90 823.29
  Q 180.70 823.19 170.86 823.32
  C 162.86 823.42 160.36 834.05 166.95 838.08
  Q 169.03 839.36 172.74 839.33
  Q 182.70 839.25 192.10 839.33
  A 0.32 0.32 0.0 0 1 192.42 839.65
  Q 193.43 958.22 245.17 1064.60
  Q 249.54 1073.60 254.37 1082.42
  Q 316.70 1196.26 423.07 1267.36
  Q 522.29 1333.68 642.19 1349.95
  Q 652.23 1351.32 662.65 1352.22
  Q 740.53 1358.98 814.02 1343.93
  Q 935.34 1319.10 1033.47 1241.27
  C 1102.08 1186.85 1155.38 1115.07 1188.69 1035.21
  Q 1234.09 926.37 1227.29 804.96
  Q 1227.26 804.41 1227.81 804.41
  Q 1246.97 804.26 1268.36 804.43
  Q 1270.78 804.45 1272.97 804.13
  C 1280.80 802.99 1281.73 791.32 1274.17 788.89
  Q 1272.14 788.24 1269.60 788.25
  Q 1247.92 788.38 1226.58 788.31
  Q 1225.99 788.31 1225.93 787.72
  Q 1220.14 725.64 1199.67 666.62
  A 0.29 0.28 71.2 0 1 1199.84 666.26
  Q 1224.56 657.94 1250.98 649.23
  C 1255.11 647.87 1258.34 645.07 1257.90 640.32
  C 1257.51 636.09 1253.42 632.10 1248.86 633.15
  Q 1246.99 633.58 1245.29 634.15
  Q 1220.36 642.52 1194.42 651.08
  A 0.42 0.42 0.0 0 1 1193.90 650.83
  C 1177.10 607.18 1154.30 565.41 1126.16 527.86
  Q 1043.93 418.13 918.05 362.06
  A 0.63 0.63 0.0 0 1 917.71 361.29
  L 998.21 120.31"
/>
<path stroke="#808080" vector-effect="non-scaling-stroke" d="
  M 531.05 350.19
  L 432.23 117.51
  A 0.24 0.24 0.0 0 0 431.78 117.53
  L 313.29 503.49
  Q 312.99 504.46 313.65 503.69
  Q 402.07 399.13 530.85 350.66
  A 0.36 0.35 68.3 0 0 531.05 350.19"
/>
<path stroke="#808080" vector-effect="non-scaling-stroke" d="
  M 1178.53 655.47
  C 1129.97 531.18 1034.92 431.63 913.10 377.46
  A 0.71 0.70 21.0 0 0 912.14 377.88
  Q 907.35 392.35 902.58 406.59
  C 899.81 414.87 888.14 414.51 886.91 405.93
  Q 886.60 403.77 887.54 400.94
  Q 892.41 386.41 897.41 371.50
  Q 897.59 370.97 897.07 370.76
  C 788.36 327.22 668.31 323.48 556.66 358.77
  Q 554.90 359.32 553.23 360.11
  Q 552.75 360.34 552.95 360.82
  Q 568.86 398.19 585.18 436.54
  C 589.94 447.71 575.02 453.67 570.76 443.65
  Q 554.58 405.61 537.75 365.95
  A 0.69 0.69 0.0 0 0 536.87 365.58
  C 442.06 400.92 361.01 462.72 301.88 544.96
  C 299.02 548.94 298.00 552.83 296.81 557.36
  C 295.82 561.15 293.77 564.34 289.66 564.89
  C 288.43 565.06 287.74 565.86 287.11 566.85
  Q 249.73 625.45 229.63 691.95
  Q 229.53 692.30 229.88 692.36
  Q 391.37 721.84 553.86 751.50
  C 557.40 752.15 560.37 753.83 561.29 757.64
  C 562.70 763.42 557.88 768.56 552.01 767.49
  Q 388.58 737.65 225.73 707.91
  Q 225.15 707.80 225.01 708.37
  Q 210.27 764.44 208.66 822.62
  Q 208.64 823.26 209.28 823.26
  Q 375.92 823.26 541.78 823.26
  C 552.77 823.26 552.45 839.28 542.19 839.28
  Q 374.10 839.30 209.02 839.28
  Q 208.42 839.28 208.43 839.89
  Q 210.10 979.50 281.70 1097.73
  Q 286.99 1106.47 292.49 1114.64
  Q 367.66 1226.17 487.60 1286.32
  Q 496.53 1290.80 505.78 1294.90
  Q 623.84 1347.18 753.93 1336.45
  Q 763.94 1335.63 773.49 1334.38
  Q 898.27 1318.04 998.78 1247.12
  C 1079.08 1190.46 1142.32 1111.31 1178.16 1018.63
  Q 1217.95 915.70 1211.19 804.87
  A 0.54 0.53 -1.7 0 0 1210.65 804.37
  Q 1077.33 804.29 945.67 804.40
  C 941.84 804.41 938.13 804.69 935.51 801.25
  C 931.33 795.76 935.26 788.33 942.16 788.33
  Q 1075.92 788.30 1209.26 788.33
  A 0.56 0.56 0.0 0 0 1209.82 787.72
  Q 1204.06 728.30 1184.52 671.83
  Q 1184.35 671.34 1183.85 671.50
  Q 1059.84 712.84 934.39 754.52
  C 924.03 757.97 919.05 742.74 929.37 739.30
  Q 1054.96 697.51 1178.02 656.57
  A 0.84 0.84 0.0 0 0 1178.53 655.47"
/>
<path stroke="#808080" vector-effect="non-scaling-stroke" d="
  M 1070.6502 578.4206
  A 148.23 92.15 -2.9 0 0 917.9479 493.8880
  A 148.23 92.15 -2.9 0 0 774.5698 593.4194
  A 148.23 92.15 -2.9 0 0 927.2721 677.9520
  A 148.23 92.15 -2.9 0 0 1070.6502 578.4206"
/>
<path stroke="#808080" vector-effect="non-scaling-stroke" d="
  M 630.3798 596.8869
  A 148.50 92.32 -2.9 0 0 477.3993 512.1982
  A 148.50 92.32 -2.9 0 0 333.7602 611.9131
  A 148.50 92.32 -2.9 0 0 486.7407 696.6018
  A 148.50 92.32 -2.9 0 0 630.3798 596.8869"
/>
<path stroke="#808080" vector-effect="non-scaling-stroke" d="
  M 839.78 1034.65
  Q 839.94 1034.05 840.39 1034.48
  C 858.73 1052.13 880.82 1068.84 904.42 1076.39
  C 963.02 1095.14 1000.31 1048.58 1022.42 1001.61
  C 1040.28 963.68 1052.15 921.73 1061.48 879.63
  C 1063.99 868.32 1048.13 865.38 1045.88 875.77
  Q 1036.72 918.01 1023.80 955.60
  Q 1013.68 985.06 1000.77 1008.76
  C 985.20 1037.33 960.26 1067.76 924.69 1064.37
  C 902.88 1062.29 881.93 1049.22 864.77 1034.75
  Q 844.27 1017.48 825.72 995.69
  C 796.33 961.20 770.16 922.69 746.92 884.41
  Q 746.64 883.95 746.85 883.45
  Q 767.42 833.76 786.97 786.62
  C 789.24 781.13 785.58 775.09 779.50 775.10
  Q 731.97 775.12 682.94 775.08
  C 678.97 775.08 675.49 774.96 673.03 778.85
  Q 670.42 782.98 673.01 787.44
  Q 702.57 838.36 730.63 886.60
  Q 730.88 887.03 730.53 887.39
  Q 728.09 889.94 727.48 892.68
  C 719.97 926.82 710.36 960.97 697.73 992.85
  Q 688.40 1016.38 675.90 1036.41
  C 665.30 1053.38 651.11 1069.54 632.89 1077.11
  C 602.53 1089.72 570.31 1071.40 547.15 1052.06
  Q 529.14 1037.02 512.50 1018.24
  C 481.19 982.89 453.88 942.62 428.76 901.42
  C 424.16 893.87 412.73 898.07 413.99 906.47
  Q 414.34 908.79 416.81 912.79
  C 443.23 955.49 470.56 995.60 503.61 1032.35
  Q 523.55 1054.53 545.70 1071.27
  C 563.75 1084.90 585.30 1095.97 607.75 1097.23
  C 643.73 1099.25 670.74 1074.74 688.66 1046.10
  A 0.33 0.33 0.0 0 1 689.25 1046.17
  C 696.73 1067.62 704.77 1088.39 715.11 1108.48
  C 725.67 1128.98 747.11 1163.50 775.43 1153.87
  C 786.75 1150.03 796.19 1139.57 802.58 1129.44
  Q 810.40 1117.03 815.05 1106.56
  Q 829.32 1074.42 839.78 1034.65"
/>
<path stroke="#808080" vector-effect="non-scaling-stroke" d="
  M 962.53 633.46
  C 959.73 642.40 955.59 651.52 949.79 658.83
  Q 949.25 659.52 950.11 659.38
  Q 971.21 656.13 990.74 648.62
  C 1016.68 638.65 1048.39 618.67 1053.82 589.08
  C 1058.31 564.61 1041.09 544.64 1021.74 532.66
  C 999.48 518.89 972.41 512.03 946.19 510.29
  Q 945.76 510.26 946.03 510.60
  C 964.30 533.29 969.71 567.40 968.68 595.74
  Q 967.93 616.24 962.53 633.46"
/>
<path stroke="#737373" vector-effect="non-scaling-stroke" d="
  M 923.9204 657.0114
  A 72.33 31.22 87.9 0 0 952.4690 583.5860
  A 72.33 31.22 87.9 0 0 918.6196 512.4486
  A 72.33 31.22 87.9 0 0 890.0710 585.8740
  A 72.33 31.22 87.9 0 0 923.9204 657.0114"
/>
<path stroke="#808080" vector-effect="non-scaling-stroke" d="
  M 875.12 558.46
  C 877.03 543.31 881.71 525.98 890.38 513.93
  A 0.38 0.38 0.0 0 0 890.00 513.33
  Q 865.52 517.77 844.48 527.48
  C 817.50 539.92 783.61 566.32 791.99 600.76
  C 797.23 622.31 817.56 637.57 837.10 646.51
  Q 864.40 659.00 898.14 661.51
  Q 898.92 661.57 898.40 660.98
  Q 889.46 650.92 883.83 636.73
  C 874.29 612.65 871.82 584.64 875.12 558.46"
/>
<path stroke="#808080" vector-effect="non-scaling-stroke" d="
  M 559.97 540.38
  Q 533.97 530.38 505.56 528.64
  A 0.07 0.06 -15.2 0 0 505.50 528.74
  Q 516.66 543.30 521.89 561.54
  Q 532.46 598.38 525.79 636.80
  Q 521.70 660.38 509.41 677.61
  A 0.25 0.25 0.0 0 0 509.65 678.01
  C 534.64 674.07 559.29 665.78 580.01 651.93
  C 595.03 641.89 608.58 627.81 612.93 610.30
  C 617.94 590.15 607.74 571.75 592.53 559.11
  Q 578.59 547.54 559.97 540.38"
/>
<path stroke="#737373" vector-effect="non-scaling-stroke" d="
  M 483.3741 675.5714
  A 72.43 31.30 87.9 0 0 511.9990 602.0431
  A 72.43 31.30 87.9 0 0 478.0659 530.8086
  A 72.43 31.30 87.9 0 0 449.4410 604.3369
  A 72.43 31.30 87.9 0 0 483.3741 675.5714"
/>
<path stroke="#808080" vector-effect="non-scaling-stroke" d="
  M 353.39 591.67
  C 339.46 627.34 370.38 654.23 399.69 666.57
  Q 426.79 677.99 457.63 680.13
  A 0.28 0.28 0.0 0 0 457.86 679.67
  C 444.31 664.37 437.67 643.31 434.79 622.81
  Q 431.41 598.76 434.72 575.31
  C 436.88 559.95 441.49 544.06 449.97 531.91
  A 0.21 0.21 0.0 0 0 449.76 531.58
  C 424.01 536.27 398.33 545.66 377.93 561.36
  C 367.47 569.40 357.98 579.91 353.39 591.67"
/>
<path stroke="#737373" vector-effect="non-scaling-stroke" d="
  M 767.43 791.60
  A 0.31 0.31 0.0 0 0 767.15 791.17
  L 694.27 791.17
  A 0.31 0.31 0.0 0 0 694.00 791.64
  L 736.61 865.00
  A 0.31 0.31 0.0 0 0 737.17 864.96
  L 767.43 791.60"
/>
<path stroke="#808080" vector-effect="non-scaling-stroke" d="
  M 824.00 1031.73
  C 824.88 1028.53 826.97 1026.18 830.13 1025.21
  Q 830.80 1025.01 830.32 1024.51
  Q 816.64 1010.27 806.09 997.37
  C 783.11 969.27 761.61 938.44 741.67 906.34
  Q 740.97 905.23 740.68 906.51
  Q 730.01 953.85 714.37 994.35
  Q 707.99 1010.88 699.06 1028.35
  Q 698.74 1028.98 699.28 1029.44
  C 700.55 1030.53 701.56 1032.28 702.06 1033.82
  Q 711.47 1062.85 724.00 1090.23
  Q 732.86 1109.59 743.60 1123.92
  Q 749.68 1132.03 757.11 1136.78
  C 789.41 1157.49 818.75 1050.79 824.00 1031.73"
/>
</g>
<path fill="#ffffff" d="
  M 0.00 0.00
  L 1472.00 0.00
  L 1472.00 1424.00
  L 0.00 1424.00
  L 0.00 0.00
  Z
  M 998.21 120.31
  Q 998.67 118.94 999.25 120.27
  Q 1085.04 316.67 1158.35 484.44
  C 1162.59 494.12 1177.31 487.84 1173.05 478.08
  Q 1089.66 287.14 1005.84 95.24
  C 1004.22 91.53 1002.08 88.53 997.66 88.65
  Q 991.84 88.80 989.91 94.58
  Q 953.85 202.52 902.86 355.17
  A 0.57 0.57 0.0 0 1 902.11 355.52
  Q 843.15 331.91 780.49 323.54
  Q 661.49 307.64 546.94 345.06
  A 0.68 0.67 -20.3 0 1 546.11 344.68
  Q 492.75 219.01 438.93 92.22
  C 437.40 88.62 435.06 85.48 430.82 85.65
  Q 424.70 85.90 422.91 91.74
  Q 354.21 315.66 285.90 537.98
  C 285.43 539.52 284.95 541.16 284.04 542.49
  C 253.15 587.55 229.48 636.39 213.92 688.61
  A 0.89 0.89 0.0 0 1 212.91 689.23
  Q 191.57 685.41 167.97 681.03
  C 164.89 680.45 161.63 681.74 159.91 684.42
  C 156.47 689.79 159.65 695.83 165.73 696.94
  Q 187.08 700.86 208.93 704.85
  A 0.37 0.37 0.0 0 1 209.22 705.31
  Q 197.31 751.08 193.76 798.69
  Q 193.03 808.54 192.57 822.65
  Q 192.55 823.29 191.90 823.29
  Q 180.70 823.19 170.86 823.32
  C 162.86 823.42 160.36 834.05 166.95 838.08
  Q 169.03 839.36 172.74 839.33
  Q 182.70 839.25 192.10 839.33
  A 0.32 0.32 0.0 0 1 192.42 839.65
  Q 193.43 958.22 245.17 1064.60
  Q 249.54 1073.60 254.37 1082.42
  Q 316.70 1196.26 423.07 1267.36
  Q 522.29 1333.68 642.19 1349.95
  Q 652.23 1351.32 662.65 1352.22
  Q 740.53 1358.98 814.02 1343.93
  Q 935.34 1319.10 1033.47 1241.27
  C 1102.08 1186.85 1155.38 1115.07 1188.69 1035.21
  Q 1234.09 926.37 1227.29 804.96
  Q 1227.26 804.41 1227.81 804.41
  Q 1246.97 804.26 1268.36 804.43
  Q 1270.78 804.45 1272.97 804.13
  C 1280.80 802.99 1281.73 791.32 1274.17 788.89
  Q 1272.14 788.24 1269.60 788.25
  Q 1247.92 788.38 1226.58 788.31
  Q 1225.99 788.31 1225.93 787.72
  Q 1220.14 725.64 1199.67 666.62
  A 0.29 0.28 71.2 0 1 1199.84 666.26
  Q 1224.56 657.94 1250.98 649.23
  C 1255.11 647.87 1258.34 645.07 1257.90 640.32
  C 1257.51 636.09 1253.42 632.10 1248.86 633.15
  Q 1246.99 633.58 1245.29 634.15
  Q 1220.36 642.52 1194.42 651.08
  A 0.42 0.42 0.0 0 1 1193.90 650.83
  C 1177.10 607.18 1154.30 565.41 1126.16 527.86
  Q 1043.93 418.13 918.05 362.06
  A 0.63 0.63 0.0 0 1 917.71 361.29
  L 998.21 120.31
  Z"
/>
<path fill="#000000" d="
  M 998.21 120.31
  L 917.71 361.29
  A 0.63 0.63 0.0 0 0 918.05 362.06
  Q 1043.93 418.13 1126.16 527.86
  C 1154.30 565.41 1177.10 607.18 1193.90 650.83
  A 0.42 0.42 0.0 0 0 1194.42 651.08
  Q 1220.36 642.52 1245.29 634.15
  Q 1246.99 633.58 1248.86 633.15
  C 1253.42 632.10 1257.51 636.09 1257.90 640.32
  C 1258.34 645.07 1255.11 647.87 1250.98 649.23
  Q 1224.56 657.94 1199.84 666.26
  A 0.29 0.28 71.2 0 0 1199.67 666.62
  Q 1220.14 725.64 1225.93 787.72
  Q 1225.99 788.31 1226.58 788.31
  Q 1247.92 788.38 1269.60 788.25
  Q 1272.14 788.24 1274.17 788.89
  C 1281.73 791.32 1280.80 802.99 1272.97 804.13
  Q 1270.78 804.45 1268.36 804.43
  Q 1246.97 804.26 1227.81 804.41
  Q 1227.26 804.41 1227.29 804.96
  Q 1234.09 926.37 1188.69 1035.21
  C 1155.38 1115.07 1102.08 1186.85 1033.47 1241.27
  Q 935.34 1319.10 814.02 1343.93
  Q 740.53 1358.98 662.65 1352.22
  Q 652.23 1351.32 642.19 1349.95
  Q 522.29 1333.68 423.07 1267.36
  Q 316.70 1196.26 254.37 1082.42
  Q 249.54 1073.60 245.17 1064.60
  Q 193.43 958.22 192.42 839.65
  A 0.32 0.32 0.0 0 0 192.10 839.33
  Q 182.70 839.25 172.74 839.33
  Q 169.03 839.36 166.95 838.08
  C 160.36 834.05 162.86 823.42 170.86 823.32
  Q 180.70 823.19 191.90 823.29
  Q 192.55 823.29 192.57 822.65
  Q 193.03 808.54 193.76 798.69
  Q 197.31 751.08 209.22 705.31
  A 0.37 0.37 0.0 0 0 208.93 704.85
  Q 187.08 700.86 165.73 696.94
  C 159.65 695.83 156.47 689.79 159.91 684.42
  C 161.63 681.74 164.89 680.45 167.97 681.03
  Q 191.57 685.41 212.91 689.23
  A 0.89 0.89 0.0 0 0 213.92 688.61
  C 229.48 636.39 253.15 587.55 284.04 542.49
  C 284.95 541.16 285.43 539.52 285.90 537.98
  Q 354.21 315.66 422.91 91.74
  Q 424.70 85.90 430.82 85.65
  C 435.06 85.48 437.40 88.62 438.93 92.22
  Q 492.75 219.01 546.11 344.68
  A 0.68 0.67 -20.3 0 0 546.94 345.06
  Q 661.49 307.64 780.49 323.54
  Q 843.15 331.91 902.11 355.52
  A 0.57 0.57 0.0 0 0 902.86 355.17
  Q 953.85 202.52 989.91 94.58
  Q 991.84 88.80 997.66 88.65
  C 1002.08 88.53 1004.22 91.53 1005.84 95.24
  Q 1089.66 287.14 1173.05 478.08
  C 1177.31 487.84 1162.59 494.12 1158.35 484.44
  Q 1085.04 316.67 999.25 120.27
  Q 998.67 118.94 998.21 120.31
  Z
  M 531.05 350.19
  L 432.23 117.51
  A 0.24 0.24 0.0 0 0 431.78 117.53
  L 313.29 503.49
  Q 312.99 504.46 313.65 503.69
  Q 402.07 399.13 530.85 350.66
  A 0.36 0.35 68.3 0 0 531.05 350.19
  Z
  M 1178.53 655.47
  C 1129.97 531.18 1034.92 431.63 913.10 377.46
  A 0.71 0.70 21.0 0 0 912.14 377.88
  Q 907.35 392.35 902.58 406.59
  C 899.81 414.87 888.14 414.51 886.91 405.93
  Q 886.60 403.77 887.54 400.94
  Q 892.41 386.41 897.41 371.50
  Q 897.59 370.97 897.07 370.76
  C 788.36 327.22 668.31 323.48 556.66 358.77
  Q 554.90 359.32 553.23 360.11
  Q 552.75 360.34 552.95 360.82
  Q 568.86 398.19 585.18 436.54
  C 589.94 447.71 575.02 453.67 570.76 443.65
  Q 554.58 405.61 537.75 365.95
  A 0.69 0.69 0.0 0 0 536.87 365.58
  C 442.06 400.92 361.01 462.72 301.88 544.96
  C 299.02 548.94 298.00 552.83 296.81 557.36
  C 295.82 561.15 293.77 564.34 289.66 564.89
  C 288.43 565.06 287.74 565.86 287.11 566.85
  Q 249.73 625.45 229.63 691.95
  Q 229.53 692.30 229.88 692.36
  Q 391.37 721.84 553.86 751.50
  C 557.40 752.15 560.37 753.83 561.29 757.64
  C 562.70 763.42 557.88 768.56 552.01 767.49
  Q 388.58 737.65 225.73 707.91
  Q 225.15 707.80 225.01 708.37
  Q 210.27 764.44 208.66 822.62
  Q 208.64 823.26 209.28 823.26
  Q 375.92 823.26 541.78 823.26
  C 552.77 823.26 552.45 839.28 542.19 839.28
  Q 374.10 839.30 209.02 839.28
  Q 208.42 839.28 208.43 839.89
  Q 210.10 979.50 281.70 1097.73
  Q 286.99 1106.47 292.49 1114.64
  Q 367.66 1226.17 487.60 1286.32
  Q 496.53 1290.80 505.78 1294.90
  Q 623.84 1347.18 753.93 1336.45
  Q 763.94 1335.63 773.49 1334.38
  Q 898.27 1318.04 998.78 1247.12
  C 1079.08 1190.46 1142.32 1111.31 1178.16 1018.63
  Q 1217.95 915.70 1211.19 804.87
  A 0.54 0.53 -1.7 0 0 1210.65 804.37
  Q 1077.33 804.29 945.67 804.40
  C 941.84 804.41 938.13 804.69 935.51 801.25
  C 931.33 795.76 935.26 788.33 942.16 788.33
  Q 1075.92 788.30 1209.26 788.33
  A 0.56 0.56 0.0 0 0 1209.82 787.72
  Q 1204.06 728.30 1184.52 671.83
  Q 1184.35 671.34 1183.85 671.50
  Q 1059.84 712.84 934.39 754.52
  C 924.03 757.97 919.05 742.74 929.37 739.30
  Q 1054.96 697.51 1178.02 656.57
  A 0.84 0.84 0.0 0 0 1178.53 655.47
  Z"
/>
<path fill="#ffffff" d="
  M 432.23 117.51
  L 531.05 350.19
  A 0.36 0.35 68.3 0 1 530.85 350.66
  Q 402.07 399.13 313.65 503.69
  Q 312.99 504.46 313.29 503.49
  L 431.78 117.53
  A 0.24 0.24 0.0 0 1 432.23 117.51
  Z"
/>
<path fill="#ffffff" d="
  M 913.10 377.46
  C 1034.92 431.63 1129.97 531.18 1178.53 655.47
  A 0.84 0.84 0.0 0 1 1178.02 656.57
  Q 1054.96 697.51 929.37 739.30
  C 919.05 742.74 924.03 757.97 934.39 754.52
  Q 1059.84 712.84 1183.85 671.50
  Q 1184.35 671.34 1184.52 671.83
  Q 1204.06 728.30 1209.82 787.72
  A 0.56 0.56 0.0 0 1 1209.26 788.33
  Q 1075.92 788.30 942.16 788.33
  C 935.26 788.33 931.33 795.76 935.51 801.25
  C 938.13 804.69 941.84 804.41 945.67 804.40
  Q 1077.33 804.29 1210.65 804.37
  A 0.54 0.53 -1.7 0 1 1211.19 804.87
  Q 1217.95 915.70 1178.16 1018.63
  C 1142.32 1111.31 1079.08 1190.46 998.78 1247.12
  Q 898.27 1318.04 773.49 1334.38
  Q 763.94 1335.63 753.93 1336.45
  Q 623.84 1347.18 505.78 1294.90
  Q 496.53 1290.80 487.60 1286.32
  Q 367.66 1226.17 292.49 1114.64
  Q 286.99 1106.47 281.70 1097.73
  Q 210.10 979.50 208.43 839.89
  Q 208.42 839.28 209.02 839.28
  Q 374.10 839.30 542.19 839.28
  C 552.45 839.28 552.77 823.26 541.78 823.26
  Q 375.92 823.26 209.28 823.26
  Q 208.64 823.26 208.66 822.62
  Q 210.27 764.44 225.01 708.37
  Q 225.15 707.80 225.73 707.91
  Q 388.58 737.65 552.01 767.49
  C 557.88 768.56 562.70 763.42 561.29 757.64
  C 560.37 753.83 557.40 752.15 553.86 751.50
  Q 391.37 721.84 229.88 692.36
  Q 229.53 692.30 229.63 691.95
  Q 249.73 625.45 287.11 566.85
  C 287.74 565.86 288.43 565.06 289.66 564.89
  C 293.77 564.34 295.82 561.15 296.81 557.36
  C 298.00 552.83 299.02 548.94 301.88 544.96
  C 361.01 462.72 442.06 400.92 536.87 365.58
  A 0.69 0.69 0.0 0 1 537.75 365.95
  Q 554.58 405.61 570.76 443.65
  C 575.02 453.67 589.94 447.71 585.18 436.54
  Q 568.86 398.19 552.95 360.82
  Q 552.75 360.34 553.23 360.11
  Q 554.90 359.32 556.66 358.77
  C 668.31 323.48 788.36 327.22 897.07 370.76
  Q 897.59 370.97 897.41 371.50
  Q 892.41 386.41 887.54 400.94
  Q 886.60 403.77 886.91 405.93
  C 888.14 414.51 899.81 414.87 902.58 406.59
  Q 907.35 392.35 912.14 377.88
  A 0.71 0.70 21.0 0 1 913.10 377.46
  Z
  M 1070.6502 578.4206
  A 148.23 92.15 -2.9 0 0 917.9479 493.8880
  A 148.23 92.15 -2.9 0 0 774.5698 593.4194
  A 148.23 92.15 -2.9 0 0 927.2721 677.9520
  A 148.23 92.15 -2.9 0 0 1070.6502 578.4206
  Z
  M 630.3798 596.8869
  A 148.50 92.32 -2.9 0 0 477.3993 512.1982
  A 148.50 92.32 -2.9 0 0 333.7602 611.9131
  A 148.50 92.32 -2.9 0 0 486.7407 696.6018
  A 148.50 92.32 -2.9 0 0 630.3798 596.8869
  Z
  M 839.78 1034.65
  Q 839.94 1034.05 840.39 1034.48
  C 858.73 1052.13 880.82 1068.84 904.42 1076.39
  C 963.02 1095.14 1000.31 1048.58 1022.42 1001.61
  C 1040.28 963.68 1052.15 921.73 1061.48 879.63
  C 1063.99 868.32 1048.13 865.38 1045.88 875.77
  Q 1036.72 918.01 1023.80 955.60
  Q 1013.68 985.06 1000.77 1008.76
  C 985.20 1037.33 960.26 1067.76 924.69 1064.37
  C 902.88 1062.29 881.93 1049.22 864.77 1034.75
  Q 844.27 1017.48 825.72 995.69
  C 796.33 961.20 770.16 922.69 746.92 884.41
  Q 746.64 883.95 746.85 883.45
  Q 767.42 833.76 786.97 786.62
  C 789.24 781.13 785.58 775.09 779.50 775.10
  Q 731.97 775.12 682.94 775.08
  C 678.97 775.08 675.49 774.96 673.03 778.85
  Q 670.42 782.98 673.01 787.44
  Q 702.57 838.36 730.63 886.60
  Q 730.88 887.03 730.53 887.39
  Q 728.09 889.94 727.48 892.68
  C 719.97 926.82 710.36 960.97 697.73 992.85
  Q 688.40 1016.38 675.90 1036.41
  C 665.30 1053.38 651.11 1069.54 632.89 1077.11
  C 602.53 1089.72 570.31 1071.40 547.15 1052.06
  Q 529.14 1037.02 512.50 1018.24
  C 481.19 982.89 453.88 942.62 428.76 901.42
  C 424.16 893.87 412.73 898.07 413.99 906.47
  Q 414.34 908.79 416.81 912.79
  C 443.23 955.49 470.56 995.60 503.61 1032.35
  Q 523.55 1054.53 545.70 1071.27
  C 563.75 1084.90 585.30 1095.97 607.75 1097.23
  C 643.73 1099.25 670.74 1074.74 688.66 1046.10
  A 0.33 0.33 0.0 0 1 689.25 1046.17
  C 696.73 1067.62 704.77 1088.39 715.11 1108.48
  C 725.67 1128.98 747.11 1163.50 775.43 1153.87
  C 786.75 1150.03 796.19 1139.57 802.58 1129.44
  Q 810.40 1117.03 815.05 1106.56
  Q 829.32 1074.42 839.78 1034.65
  Z"
/>
<path fill="#000000" d="
  M 1070.6502 578.4206
  A 148.23 92.15 -2.9 0 1 927.2721 677.9520
  A 148.23 92.15 -2.9 0 1 774.5698 593.4194
  A 148.23 92.15 -2.9 0 1 917.9479 493.8880
  A 148.23 92.15 -2.9 0 1 1070.6502 578.4206
  Z
  M 962.53 633.46
  C 959.73 642.40 955.59 651.52 949.79 658.83
  Q 949.25 659.52 950.11 659.38
  Q 971.21 656.13 990.74 648.62
  C 1016.68 638.65 1048.39 618.67 1053.82 589.08
  C 1058.31 564.61 1041.09 544.64 1021.74 532.66
  C 999.48 518.89 972.41 512.03 946.19 510.29
  Q 945.76 510.26 946.03 510.60
  C 964.30 533.29 969.71 567.40 968.68 595.74
  Q 967.93 616.24 962.53 633.46
  Z
  M 923.9204 657.0114
  A 72.33 31.22 87.9 0 0 952.4690 583.5860
  A 72.33 31.22 87.9 0 0 918.6196 512.4486
  A 72.33 31.22 87.9 0 0 890.0710 585.8740
  A 72.33 31.22 87.9 0 0 923.9204 657.0114
  Z
  M 875.12 558.46
  C 877.03 543.31 881.71 525.98 890.38 513.93
  A 0.38 0.38 0.0 0 0 890.00 513.33
  Q 865.52 517.77 844.48 527.48
  C 817.50 539.92 783.61 566.32 791.99 600.76
  C 797.23 622.31 817.56 637.57 837.10 646.51
  Q 864.40 659.00 898.14 661.51
  Q 898.92 661.57 898.40 660.98
  Q 889.46 650.92 883.83 636.73
  C 874.29 612.65 871.82 584.64 875.12 558.46
  Z"
/>
<path fill="#ffffff" d="
  M 949.79 658.83
  C 955.59 651.52 959.73 642.40 962.53 633.46
  Q 967.93 616.24 968.68 595.74
  C 969.71 567.40 964.30 533.29 946.03 510.60
  Q 945.76 510.26 946.19 510.29
  C 972.41 512.03 999.48 518.89 1021.74 532.66
  C 1041.09 544.64 1058.31 564.61 1053.82 589.08
  C 1048.39 618.67 1016.68 638.65 990.74 648.62
  Q 971.21 656.13 950.11 659.38
  Q 949.25 659.52 949.79 658.83
  Z"
/>
<path fill="#000000" d="
  M 630.3798 596.8869
  A 148.50 92.32 -2.9 0 1 486.7407 696.6018
  A 148.50 92.32 -2.9 0 1 333.7602 611.9131
  A 148.50 92.32 -2.9 0 1 477.3993 512.1982
  A 148.50 92.32 -2.9 0 1 630.3798 596.8869
  Z
  M 559.97 540.38
  Q 533.97 530.38 505.56 528.64
  A 0.07 0.06 -15.2 0 0 505.50 528.74
  Q 516.66 543.30 521.89 561.54
  Q 532.46 598.38 525.79 636.80
  Q 521.70 660.38 509.41 677.61
  A 0.25 0.25 0.0 0 0 509.65 678.01
  C 534.64 674.07 559.29 665.78 580.01 651.93
  C 595.03 641.89 608.58 627.81 612.93 610.30
  C 617.94 590.15 607.74 571.75 592.53 559.11
  Q 578.59 547.54 559.97 540.38
  Z
  M 483.3741 675.5714
  A 72.43 31.30 87.9 0 0 511.9990 602.0431
  A 72.43 31.30 87.9 0 0 478.0659 530.8086
  A 72.43 31.30 87.9 0 0 449.4410 604.3369
  A 72.43 31.30 87.9 0 0 483.3741 675.5714
  Z
  M 353.39 591.67
  C 339.46 627.34 370.38 654.23 399.69 666.57
  Q 426.79 677.99 457.63 680.13
  A 0.28 0.28 0.0 0 0 457.86 679.67
  C 444.31 664.37 437.67 643.31 434.79 622.81
  Q 431.41 598.76 434.72 575.31
  C 436.88 559.95 441.49 544.06 449.97 531.91
  A 0.21 0.21 0.0 0 0 449.76 531.58
  C 424.01 536.27 398.33 545.66 377.93 561.36
  C 367.47 569.40 357.98 579.91 353.39 591.67
  Z"
/>
<ellipse fill="#e5e5e5" cx="0.00" cy="0.00" transform="translate(921.27,584.73) rotate(87.9)" rx="72.33" ry="31.22"/>
<path fill="#ffffff" d="
  M 890.38 513.93
  C 881.71 525.98 877.03 543.31 875.12 558.46
  C 871.82 584.64 874.29 612.65 883.83 636.73
  Q 889.46 650.92 898.40 660.98
  Q 898.92 661.57 898.14 661.51
  Q 864.40 659.00 837.10 646.51
  C 817.56 637.57 797.23 622.31 791.99 600.76
  C 783.61 566.32 817.50 539.92 844.48 527.48
  Q 865.52 517.77 890.00 513.33
  A 0.38 0.38 0.0 0 1 890.38 513.93
  Z"
/>
<path fill="#ffffff" d="
  M 559.97 540.38
  Q 578.59 547.54 592.53 559.11
  C 607.74 571.75 617.94 590.15 612.93 610.30
  C 608.58 627.81 595.03 641.89 580.01 651.93
  C 559.29 665.78 534.64 674.07 509.65 678.01
  A 0.25 0.25 0.0 0 1 509.41 677.61
  Q 521.70 660.38 525.79 636.80
  Q 532.46 598.38 521.89 561.54
  Q 516.66 543.30 505.50 528.74
  A 0.07 0.06 -15.2 0 1 505.56 528.64
  Q 533.97 530.38 559.97 540.38
  Z"
/>
<ellipse fill="#e5e5e5" cx="0.00" cy="0.00" transform="translate(480.72,603.19) rotate(87.9)" rx="72.43" ry="31.30"/>
<path fill="#ffffff" d="
  M 353.39 591.67
  C 357.98 579.91 367.47 569.40 377.93 561.36
  C 398.33 545.66 424.01 536.27 449.76 531.58
  A 0.21 0.21 0.0 0 1 449.97 531.91
  C 441.49 544.06 436.88 559.95 434.72 575.31
  Q 431.41 598.76 434.79 622.81
  C 437.67 643.31 444.31 664.37 457.86 679.67
  A 0.28 0.28 0.0 0 1 457.63 680.13
  Q 426.79 677.99 399.69 666.57
  C 370.38 654.23 339.46 627.34 353.39 591.67
  Z"
/>
<path fill="#000000" d="
  M 839.78 1034.65
  Q 829.32 1074.42 815.05 1106.56
  Q 810.40 1117.03 802.58 1129.44
  C 796.19 1139.57 786.75 1150.03 775.43 1153.87
  C 747.11 1163.50 725.67 1128.98 715.11 1108.48
  C 704.77 1088.39 696.73 1067.62 689.25 1046.17
  A 0.33 0.33 0.0 0 0 688.66 1046.10
  C 670.74 1074.74 643.73 1099.25 607.75 1097.23
  C 585.30 1095.97 563.75 1084.90 545.70 1071.27
  Q 523.55 1054.53 503.61 1032.35
  C 470.56 995.60 443.23 955.49 416.81 912.79
  Q 414.34 908.79 413.99 906.47
  C 412.73 898.07 424.16 893.87 428.76 901.42
  C 453.88 942.62 481.19 982.89 512.50 1018.24
  Q 529.14 1037.02 547.15 1052.06
  C 570.31 1071.40 602.53 1089.72 632.89 1077.11
  C 651.11 1069.54 665.30 1053.38 675.90 1036.41
  Q 688.40 1016.38 697.73 992.85
  C 710.36 960.97 719.97 926.82 727.48 892.68
  Q 728.09 889.94 730.53 887.39
  Q 730.88 887.03 730.63 886.60
  Q 702.57 838.36 673.01 787.44
  Q 670.42 782.98 673.03 778.85
  C 675.49 774.96 678.97 775.08 682.94 775.08
  Q 731.97 775.12 779.50 775.10
  C 785.58 775.09 789.24 781.13 786.97 786.62
  Q 767.42 833.76 746.85 883.45
  Q 746.64 883.95 746.92 884.41
  C 770.16 922.69 796.33 961.20 825.72 995.69
  Q 844.27 1017.48 864.77 1034.75
  C 881.93 1049.22 902.88 1062.29 924.69 1064.37
  C 960.26 1067.76 985.20 1037.33 1000.77 1008.76
  Q 1013.68 985.06 1023.80 955.60
  Q 1036.72 918.01 1045.88 875.77
  C 1048.13 865.38 1063.99 868.32 1061.48 879.63
  C 1052.15 921.73 1040.28 963.68 1022.42 1001.61
  C 1000.31 1048.58 963.02 1095.14 904.42 1076.39
  C 880.82 1068.84 858.73 1052.13 840.39 1034.48
  Q 839.94 1034.05 839.78 1034.65
  Z
  M 767.43 791.60
  A 0.31 0.31 0.0 0 0 767.15 791.17
  L 694.27 791.17
  A 0.31 0.31 0.0 0 0 694.00 791.64
  L 736.61 865.00
  A 0.31 0.31 0.0 0 0 737.17 864.96
  L 767.43 791.60
  Z
  M 824.00 1031.73
  C 824.88 1028.53 826.97 1026.18 830.13 1025.21
  Q 830.80 1025.01 830.32 1024.51
  Q 816.64 1010.27 806.09 997.37
  C 783.11 969.27 761.61 938.44 741.67 906.34
  Q 740.97 905.23 740.68 906.51
  Q 730.01 953.85 714.37 994.35
  Q 707.99 1010.88 699.06 1028.35
  Q 698.74 1028.98 699.28 1029.44
  C 700.55 1030.53 701.56 1032.28 702.06 1033.82
  Q 711.47 1062.85 724.00 1090.23
  Q 732.86 1109.59 743.60 1123.92
  Q 749.68 1132.03 757.11 1136.78
  C 789.41 1157.49 818.75 1050.79 824.00 1031.73
  Z"
/>
<path fill="#e5e5e5" d="
  M 767.43 791.60
  L 737.17 864.96
  A 0.31 0.31 0.0 0 1 736.61 865.00
  L 694.00 791.64
  A 0.31 0.31 0.0 0 1 694.27 791.17
  L 767.15 791.17
  A 0.31 0.31 0.0 0 1 767.43 791.60
  Z"
/>
<path fill="#ffffff" d="
  M 824.00 1031.73
  C 818.75 1050.79 789.41 1157.49 757.11 1136.78
  Q 749.68 1132.03 743.60 1123.92
  Q 732.86 1109.59 724.00 1090.23
  Q 711.47 1062.85 702.06 1033.82
  C 701.56 1032.28 700.55 1030.53 699.28 1029.44
  Q 698.74 1028.98 699.06 1028.35
  Q 707.99 1010.88 714.37 994.35
  Q 730.01 953.85 740.68 906.51
  Q 740.97 905.23 741.67 906.34
  C 761.61 938.44 783.11 969.27 806.09 997.37
  Q 816.64 1010.27 830.32 1024.51
  Q 830.80 1025.01 830.13 1025.21
  C 826.97 1026.18 824.88 1028.53 824.00 1031.73
  Z"
/>
</svg>
